<svg transform="scale(1)" version="1.1" id="nsX9LLWlpf" xmlns="http://www.w3.org/2000/svg" xmlns:xlink="http://www.w3.org/1999/xlink" x="0px" y="0px" viewBox="0 0 500 500" xml:space="preserve" class="pbimage_pbimage__wrapper__image__0LEis false"><title>Chart 10</title><style type="text/css"> .st0{fill:#FFFFFF;} .st1{fill:#59BE4C;} .st2{fill:#000005;}
 .st2{fill:#000005;}
 .st1{fill:#59BE4C;}
 .st0{fill:#FFFFFF;}</style><g id="graph"><rect class="st0" x="109.3" y="379.6" width="55.6" height="70.1" fill="#FFFFFF"></rect><path class="st1" d="M166,377.8h-55.6c-1.4,0-3.4,1-3.4,2.6v70.1c0,0.6,0.7,1,1.3,1h55.6c1.4,0,3.4-1,3.4-2.6v-70
		c0-2.2-4.6-0.5-4.6,1.5v70.1l3.4-2.6h-55.6l1.3,1v-70l-3.3,2.6h55.6c1.3,0,2.4-0.6,3.1-1.7c0.4-0.5,0.3-1.3-0.3-1.7
		C166.6,377.8,166.3,377.8,166,377.8z" fill="#59BE4C"></path><rect class="st0" x="223.4" y="295.8" width="55.6" height="153.5" fill="#FFFFFF"></rect><path class="st1" d="M278.2,293.6h-55.6c-0.6,0-1.2,0.5-1.2,1.1v134.6c0,6.2-0.1,12.4,0,18.7v0.2c0,1.6,1.3,3,2.9,3.2h55.6
		c0.6,0,1.2-0.5,1.2-1.1V315.7c0-6.2,0.1-12.4,0-18.6v-0.3c0-1.2-0.8-2.4-1.9-2.9c-0.8-0.4-2.2-0.4-2.2,0.8V442c-0.1,2-0.1,4,0,6
		c0,0.1,0,0.2,0,0.2l1.2-1.1h-55.6l2.9,3.2V303c0.1-2,0.1-4,0-6c0-0.1,0-0.2,0-0.3l-1.2,1.1h55.6c1.2,0,1.4-1.3,1-2.2
		C280.5,294.6,279.4,293.8,278.2,293.6z" fill="#59BE4C"></path><rect class="st0" x="338" y="241.4" width="55.6" height="207.9" fill="#FFFFFF"></rect><path class="st1" d="M392.3,239.5h-55.6c-0.7,0-0.9,0.6-0.9,1.1V440c0,2.7-0.1,5.4,0,8.1c0,0.1,0,0.2,0,0.4c0,1.5,2.2,2.6,3.4,2.6
		h55.6c0.7,0,0.8-0.5,0.8-1.1V250.6c0-2.7,0.1-5.4,0-8.1c0-0.1,0-0.2,0-0.4c0-1.7-4.3-4-4.3-1.5V440c0,2.7-0.2,5.4,0,8.1
		c0,0.1,0,0.2,0,0.4l0.8-1.1h-55.6l3.4,2.6V250.6c0-2.7,0.2-5.4,0-8.1c0-0.1,0-0.2,0-0.4l-0.9,1.1h55.6c1.2,0,0.9-1.4,0.4-2
		C394.6,240.2,393.5,239.6,392.3,239.5z" fill="#59BE4C"></path><rect class="st0" x="141.1" y="378.8" width="55.6" height="70.1" fill="#FFFFFF"></rect><path class="st1" d="M197.8,377h-55.6c-1.4,0-3.5,0.8-3.5,2.5v70.1c0.1,0.6,0.6,1.1,1.2,1.1h55.6c1.4,0,3.5-0.8,3.5-2.5v-70.1
		c0-2.3-4.7-0.7-4.7,1.4v70.1l3.4-2.5h-55.6l1.2,1.1v-70.1l-3.4,2.4h55.6c1.3,0.1,2.5-0.5,3.2-1.5c0.4-0.5,0.4-1.3-0.2-1.7
		C198.4,377.1,198.1,377,197.8,377z" fill="#59BE4C"></path><rect class="st0" x="255.2" y="295.1" width="55.6" height="153.5" fill="#FFFFFF"></rect><path class="st1" d="M309.3,294h-55.6c-0.1,0-0.9,0-0.9,0.3v147.2c0,2-0.1,4,0,6c0,0.1,0,0.2,0,0.3c0,1.3,2.9,1.9,3.9,1.9h55.6
		c0.1,0,0.9,0,0.9-0.3V302.2c0-2,0.1-4,0-6v-0.3c0-1.4-4.7-2.4-4.7-1.6v151.1c-0.1,0.7-0.1,1.4,0,2.1c0,0.1,0,0.2,0,0.3l0.9-0.3
		h-55.6l3.8,1.9V298.2c0.1-0.7,0.1-1.4,0-2.1c0-0.1,0-0.2,0-0.3l-0.9,0.3h55.6c0.9,0,1.1-0.5,0.4-1.1
		C311.7,294.4,310.5,294,309.3,294z" fill="#59BE4C"></path><rect class="st1" x="369.8" y="240.7" width="55.6" height="207.9" fill="#59BE4C"></rect><path class="st1" d="M426.5,239.1h-55.6c-1.2,0-3.5,0.8-3.5,2.3v199.4c0,2.7-0.1,5.4,0,8.1c0,0.1,0,0.2,0,0.4c0,0.6,0.6,1,1.2,1
		h55.6c1.2,0,3.5-0.8,3.5-2.3V248.5c0-2.7,0.1-5.4,0-8.1V240c0-2.1-4.7-0.5-4.7,1.4v199.5c0,2.7-0.1,5.4,0,8.1v0.4l3.5-2.3h-55.6
		l1.2,1V248.5c0-2.7,0.1-5.4,0-8.1c0-0.1,0-0.2,0-0.4l-3.5,2.3h55.6c1.2,0,2.4-0.5,3.2-1.5C427.9,240.1,427.6,239.1,426.5,239.1z" fill="#59BE4C"></path><path class="st1" d="M284.2,449.2l26.4-20.1c1-0.7,1.3-2.1,0.6-3.1c0,0,0,0,0,0c-0.6-0.9-2.2-1.8-3.3-1l-26.4,20.1
		c-1,0.7-1.3,2.1-0.6,3.1c0,0,0,0,0,0C281.5,449.2,283.1,450.1,284.2,449.2L284.2,449.2z" fill="#59BE4C"></path><path class="st1" d="M256.9,445.9c13.6-10,27.5-19.7,41.6-29.1c4-2.7,8-5.3,12.1-7.9c0.4-0.3,1.7-1.3,1-1.8s-2.5,0.6-3,1
		c-14.2,9.1-28.2,18.6-41.9,28.4c-3.9,2.8-7.9,5.7-11.8,8.5c-0.4,0.3-1.7,1.2-1,1.8S256.5,446.3,256.9,445.9L256.9,445.9z" fill="#59BE4C"></path><path class="st1" d="M258.4,417.8c5.7-6.1,12-11.6,18.7-16.5c7.1-5.4,14.3-10.7,21.5-16.1l12.6-9.4c2.5-1.9-1.3-4.6-3.4-3.1
		l-22.4,16.8c-6.9,5.2-14,10.3-20.6,15.9c-3.7,3.1-7.3,6.5-10.6,10.1c-0.6,0.8-0.5,2,0.4,2.6c0.1,0.1,0.2,0.2,0.4,0.2
		C256.1,418.9,257.5,418.7,258.4,417.8L258.4,417.8z" fill="#59BE4C"></path><path class="st1" d="M257.6,384.3c13.5-11.4,27.5-22.1,42.1-32.1c4.1-2.8,8.3-5.6,12.5-8.3c0.3-0.2-2.7-4-3.5-3.5
		c-14.8,9.6-29,19.8-42.8,30.8c-4,3.2-7.9,6.4-11.8,9.6C253.6,381.2,256.9,384.8,257.6,384.3L257.6,384.3z" fill="#59BE4C"></path><path class="st1" d="M257.4,348.6c13.3-10.7,27.1-20.8,41.4-30.2c4-2.7,8-5.3,12.1-7.8c0.8-0.5-0.8-0.1-1-0.1
		c-1.1,0.3-2.2,0.7-3.2,1.3c-14.5,9.2-28.5,18.9-42.2,29.3c-3.9,3-7.8,6-11.6,9.1c-0.3,0.2,1.6-0.2,1.8-0.2
		C255.6,349.6,256.6,349.2,257.4,348.6L257.4,348.6z" fill="#59BE4C"></path><path class="st1" d="M258,320.5l14.3-10l6.9-4.9c2.3-1.6,4.5-3.5,7.1-4.5c1.3-0.5-1.2-4.8-2.8-4.1c-2.5,1-4.7,2.8-6.9,4.3l-7.1,5
		l-14.2,10C253.9,317.3,256.7,321.5,258,320.5L258,320.5z" fill="#59BE4C"></path></g><g id="arrow"><path class="st1" d="M123.8,357.4c3.3-3.9,6.8-7.7,10.2-11.5c8.4-9.3,17-18.5,25.7-27.5c11-11.4,22.3-22.4,34.1-33
		c11.1-10,22.7-19.8,35.2-28c5-3.4,10.3-6.4,15.8-8.9c2.2-1,4.5-1.8,6.8-2.5c1.1-0.3,2.2-0.6,3.3-0.7l1.5-0.2c0.5-0.1-0.3,0,0.3,0
		l0.8-0.1c4-0.1,7.9,0.4,11.7,1.4c1.9,0.4,3.8,1.1,5.6,1.9c0.9,0.4,1.7,0.8,2.6,1.3c0.6,0.3,1.3,0.7,1.9,1.2
		c0.6,0.4,1.2,0.8,1.7,1.2c0.6,0.5-0.3-0.4,0.2,0.2c0.1,0.1,0.2,0.2,0.3,0.3c0.3,0.3,0.5,0.6,0.8,0.9c0.3,0.4,0.6,0.8,0.9,1.2
		c0.3,0.6,0.6,1.1,0.9,1.7c0.3,0.6,0-0.1,0.2,0.5c0.1,0.3,0.2,0.5,0.2,0.8s0.1,0.5,0.2,0.8s0.2,1.1,0.1,0.7c0.1,1.1,0.1,2.1,0,3.2
		c-0.1,0.5,0-0.3,0,0.1c0,0.1,0,0.3-0.1,0.4c-0.1,0.3-0.1,0.5-0.2,0.8c-0.2,0.5-0.3,1-0.6,1.5c-0.1,0.2-0.2,0.4-0.3,0.6
		c0.1-0.1,0,0-0.2,0.3c-0.3,0.4-0.6,0.9-0.9,1.3c-0.3,0.4-0.6,0.7-1,1c-0.1,0.1-0.3,0.2,0,0c-0.1,0.1-0.2,0.2-0.3,0.2l-0.6,0.5
		c-0.4,0.2-0.8,0.5-1.2,0.7c-0.4,0.2,0.3-0.1-0.3,0.1c-0.2,0.1-0.5,0.2-0.8,0.2l-0.6,0.1c-0.6,0.1,0.3,0-0.3,0c-0.5,0-1,0-1.5-0.1
		c0.7,0.1-0.4-0.3,0.4,0.1c-0.4-0.2,0.2,0.1,0.3,0.2c-0.5-0.4,0.3,0.3,0.2,0.2c-0.3-0.4,0.4,0.7,0.1,0.1c0.4,0.6,0.2,0.5,0.1,0.2
		c-0.1-0.4,0,0.4,0,0.2s0-0.5,0-0.7s0.1-0.5,0-0.2s0-0.2,0.1-0.3c0.4-1.5,1-3,1.8-4.3l0.2-0.4l0.4-0.6c0.3-0.5,0.6-1,0.9-1.5
		c0.6-1,1.3-2,2-3c3.8-5.3,7.9-10.3,12.3-15.1c12.6-13.6,26.3-25.9,41.1-37c17.6-13.5,36.8-25,57-34.2c5-2.2,10.1-4.3,15.2-6.1
		l-3.3-3.2l-7.4,14.8l3.8,0.1c-2.7-2.6-4.9-5.7-6.6-9c-1-1.9-1.8-4.4-1-6.5c1-2.4,3.6-3.6,6-2.8c1.7,0.5,3.3,1.4,4.6,2.6
		c0.8,0.7,2.4,1,3.1,0.1s0-2.3-0.8-3c-4.2-3.8-11.4-6.4-15.8-1.5c-4.8,5.2-0.1,13,3.3,17.6c1.2,1.6,2.5,3.2,3.9,4.6
		c1.1,1.1,3,1.8,3.8,0.1l7.4-14.8c0.8-1.6-1.8-3.7-3.3-3.2c-21.9,7.9-42.4,19.1-61.5,32.3c-16.8,11.6-32.5,24.7-46.8,39.1
		c-5.4,5.4-10.4,11.1-15.2,17c-3.2,3.9-6,8.2-8.3,12.7c-1.3,2.7-2.4,6.4,0.4,8.6c3.4,2.8,8.9,0.7,11.6-2.1c3.4-3.4,4.3-8.7,3-13.2
		c-1.8-6.7-7.8-11.3-14-13.8c-4.9-1.8-10-3-15.2-3.3c-2.4-0.2-4.9-0.1-7.3,0.4c-5.2,1.1-10.2,3-14.9,5.5
		c-12.7,6.5-24.1,15.5-35,24.6c-12.7,10.6-24.8,22-36.5,33.7c-10.3,10.2-20.3,20.6-30.1,31.3c-5.2,5.7-10.4,11.5-15.5,17.3l-0.7,0.8
		C118.2,356.2,122.1,359.3,123.8,357.4L123.8,357.4z"></path></g><g id="character"><path class="st2" d="M313.8,191.2c0,0,15.9,15,16.5,14.7s7.9-5.9,7.9-5.9l-5.3-7.6l9.5,5.8l24.2-19.1c0,0-1.1-3.3-8.9-2.4
		s-20,3-20,3l-13.1-8.2L313.8,191.2z"></path><path class="st2" d="M311.4,191.9c3.3,3.1,6.6,6.2,10,9.3c1.9,1.7,3.7,3.4,5.7,5s4.7-0.1,6.5-1.4l6.8-5c0.1-0.1,0.2-0.2,0.2-0.4
		l-5.3-7.6l-4.7,1.6l9.5,5.8c0.5,0.3,1.6-0.1,2.1-0.2c0.8-0.2,1.6-0.5,2.3-1l21.2-16.7l3-2.4c0.2-0.1,0.2-0.2,0.2-0.4
		c-1-2.8-5.8-2.8-8-2.7c-3.1,0.2-6.3,0.6-9.4,1.1c-2.8,0.4-5.6,0.8-8.4,1.3l-4.5,0.7h1.2l-13.1-8.2c-0.5-0.3-1.9,0.1-2.4,0.3
		s-1.8,0.5-2.2,1.1l-9.5,17.2l-1.4,2.4c-0.4,0.6,1.7,0.2,1.9,0.2c0.8-0.2,2.4-0.5,2.8-1.3l9.5-17.2l1.4-2.4l-4.6,1.4l5.7,3.6
		c2.4,1.5,4.7,3.2,7.1,4.4c0.7,0.3,1.4,0.3,2.1,0.1c1.5-0.3,3-0.5,4.5-0.8c4.8-0.8,9.6-1.6,14.5-2.1c2.2-0.2,4.6-0.3,6.6,0.9
		c0.6,0.3,1,0.8,1.3,1.4l0.2-0.4l-21.2,16.7l-3,2.4l4.4-1.2l-9.5-5.8c-0.7-0.4-5,1.1-4.7,1.6l5.3,7.6l0.2-0.4c-2.6,2-5.2,4-7.9,5.9
		l1.4-0.7l0,0l2.4-0.6c1,0,0.6,0.1,0.3-0.2c-0.2-0.2-0.4-0.3-0.6-0.5c-0.7-0.5-1.3-1.1-2-1.7c-1.9-1.6-3.7-3.3-5.5-5s-3.6-3.3-5.4-5
		l-1.8-1.6l-0.5-0.5c-0.1-0.1-0.3-0.2-0.1-0.1c-0.6-0.5-1.9,0-2.6,0.2C313.5,190.7,311.1,191.6,311.4,191.9z"></path><path class="st2" d="M189.4,257.8c0,0,4.7,20.4,4.3,20.8s-7,7-7,7l-6.7-6.4l4.3,10.3l-22.5,21.1c0,0-3.1-1.6-1.1-9.2
		s5.9-19.3,5.9-19.3l0.4-14.9L189.4,257.8z"></path><path class="st2" d="M187,258.5c0.9,4,1.8,8,2.7,12c0.5,2.4,1,4.8,1.4,7.2c0.1,0.5,0.2,1.1,0.2,1.6c0-0.2,0.1-0.2-0.2,0.1l-1.1,1.1
		l-5.4,5.4l4.6-1.1l-6.7-6.4c-0.7-0.6-5.1,0.7-4.8,1.4l4.3,10.3l0.2-0.4l-19.7,18.5l-2.8,2.6l4.4-1.2c-1.9-1-1.7-4.5-1.5-6.2
		c0.4-2.5,1.1-5,1.9-7.5c0.7-2.4,1.4-4.7,2.2-7c0.6-1.9,1.2-3.7,1.8-5.6c0.3-0.7,0.5-1.3,0.6-2c0.1-0.7,0.1-1.5,0.1-2.2l0.1-4.7
		l0.2-7.9l-1,0.8l19.5-8.3l2.8-1.2c0.5-0.2,1.5-0.7,0.6-1s-2.6,0.5-3.3,0.8l-19.5,8.2l-2.8,1.2c-0.3,0.1-1,0.4-1,0.8
		c-0.1,4.9-0.2,9.8-0.4,14.7c0,0.4,0.1-0.2,0,0.2s-0.3,0.9-0.4,1.3c-0.6,1.8-1.1,3.5-1.7,5.3c-1.7,4.7-3.1,9.5-4.2,14.3
		c-0.4,2.1-0.9,6.3,1.6,7.6c0.5,0.3,1.6-0.1,2.1-0.2c0.8-0.2,1.6-0.5,2.3-1l19.7-18.5l2.8-2.6c0.1-0.1,0.2-0.2,0.2-0.4l-4.3-10.3
		l-4.8,1.5l6.7,6.4c0.8,0.8,3.9-0.4,4.6-1.1l4.8-4.7c0.7-0.7,1.5-1.4,2.2-2.1c0.4-0.5,0.4-0.7,0.3-1.3c-0.6-5-2-10.1-3.1-15
		c-0.4-1.7-0.8-3.3-1.1-5C191.7,256.3,186.8,257.6,187,258.5z"></path><path class="st2" d="M160.9,273.1c0,0,34.7-10.9,35.2-13s0.8-15,6.6-31.9c7.4-21.7,41.5-45.1,68-43c15.9,1.2,31.5,5,46.2,11.2
		l15-29.6c-19.9-10.4-41.9-16.3-64.3-17.1c-36.3-1-89.7,24.4-100.1,63.3C159.9,241.8,160.9,273.1,160.9,273.1z"></path><path class="st2" d="M162.1,275.3c8.6-2.7,17.2-5.5,25.7-8.6c2.2-0.8,4.4-1.6,6.6-2.6c0.9-0.4,2.6-0.9,3.2-1.9
		c0.2-0.6,0.3-1.2,0.4-1.8c0.1-1,0.2-2.1,0.4-3.2c0.4-3.6,0.9-7.2,1.6-10.8c1.7-8.7,3.9-17.7,8.8-25.2c4.6-6.8,10.4-12.8,17.1-17.7
		c13.7-10.3,30.7-17.6,48-15.9c14.8,1.3,29.4,4.9,43.1,10.6l0.7,0.3c0.3,0.2,0.7,0.1,0.9-0.2l13.2-25.9l1.9-3.7
		c0.7-1.3-0.9-3.5-2-4.1c-2.9-1.6-6-3.1-9.1-4.4c-7.7-3.3-15.6-6.1-23.7-8.1c-10.8-2.9-22-4.5-33.2-4.7c-8.1,0-16.1,1-24,2.9
		c-17.6,4.1-34.1,11.9-48.3,23c-6.9,5.3-13,11.7-18,18.8c-2.3,3.4-4.4,7.1-6,10.9c-1.8,4.4-3.3,9-4.2,13.7c-4,17.8-5.8,36-5.4,54.3
		c0,0.3,0,0.6,0,1c0.1,1.2,0.7,2.3,1.7,3.1c0.8,0.6,1.4,0.2,1.3-0.7c-0.1-4.6,0-9.1,0.2-13.8c0.4-10.6,1.6-21.2,3.4-31.6
		c1.7-9.7,3.9-19.4,8.9-28c4.3-7.3,9.8-13.9,16.2-19.4c13.3-11.8,29.6-20.2,46.6-25.1c8-2.4,16.2-3.9,24.5-4.4
		c10.3-0.4,20.7,0.6,30.8,2.8c13.6,2.7,26.8,7.3,39.1,13.8l0.6,0.3l-2-4.1l-13.2,25.9l-1.9,3.7l0.9-0.2c-3.3-1.5-6.7-2.7-10.1-3.8
		c-8.4-2.8-17-4.9-25.8-6.2c-4.9-0.9-9.9-1.3-14.9-1.4c-4,0.1-8.1,0.7-12,1.6c-8.6,2.2-16.8,5.7-24.3,10.5
		c-7.3,4.6-13.9,10.3-19.5,16.9c-2.4,2.9-4.6,6-6.3,9.4c-1.9,4-3.5,8.3-4.5,12.6c-2,7.4-3.3,15-4.1,22.6c-0.1,0.6-0.2,1.4-0.3,2
		c0-0.5,0.1-0.2,0-0.1s0.2-0.2,0,0c-0.2,0.1-0.4,0.3-0.6,0.4c-1.6,0.9-3.3,1.7-5,2.3c-9.4,3.7-19,6.7-28.6,9.8l-0.7,0.2
		C158.4,271.3,160.5,275.8,162.1,275.3z"></path><path class="st0" d="M213.8,130.9c0,0,54.1,26.1,77.1-23.4l-20.7-13.5c0,0-29.4,33.2-70.8,3.7L213.8,130.9z"></path><path class="st2" d="M213.9,133c6.5,2.9,13.3,5,20.3,6c13.4,2.2,27.7,0.9,39.3-6.7c8.5-5.6,14.8-13.9,19.1-23.1
		c0.5-1.3,0-2.8-1.2-3.6l-18.1-11.8l-2.6-1.7c-0.7-0.5-1.5-0.7-2.1,0c-0.3,0.3-0.5,0.6-0.8,0.9s0.2-0.2-0.2,0.2l-0.6,0.6
		c-0.5,0.4-0.9,0.8-1.4,1.2c-2.8,2.4-5.8,4.5-9,6.3c-9.7,5.6-21,7.6-32.1,5.6c-9-1.6-17.3-5.8-24.7-11c-1.7-1.2-2.9,0.4-2.1,2.1
		l12.7,29.1l1.8,4.1c0.4,0.9,1.4,2.2,2.6,2s1.1-1.7,0.7-2.5l-12.6-29.1l-1.8-4.1l-2.1,2.1c12.5,8.9,27.6,14.6,43.1,12.1
		c9.4-1.6,18.2-5.6,25.5-11.7c1.6-1.2,3-2.6,4.4-4.1h-2.1l18.1,11.8l2.6,1.7l-1.2-3.6c-3.8,8.1-9,15.5-16.1,20.9
		c-5.7,4.2-12.4,7-19.4,8.2c-6.2,1-12.5,1-18.7,0.1c-2.7-0.4-5.4-0.9-8.1-1.6c-1.2-0.3-2.4-0.6-3.6-1l-1.5-0.5l-0.4-0.1h0.1
		l-0.8-0.3c-2.3-0.7-4.6-1.6-6.8-2.7c-0.6-0.4-1.4-0.1-1.7,0.5c-0.1,0.2-0.2,0.5-0.2,0.8C212,131.2,212.7,132.4,213.9,133z"></path><path class="st0" d="M184,183.4c0,0-20.6-80,5.7-85.6s55.6,53.5,55.6,53.5S207.8,187.3,184,183.4z"></path><path class="st2" d="M186.4,183.6c-1.9-7.3-3.3-14.7-4.6-22.1c-2.3-13.5-4-27.4-2.7-41.1c0.5-5.3,1.5-11.1,4.4-15.7
		c1.1-1.8,2.7-3.4,4.5-4.6c2-1.2,4.3-1.7,6.6-1.5c-0.5,0,0.5,0,0.7,0.1c0.4,0,0.7,0.1,1.1,0.1c-0.6-0.1,0.4,0.1,0.6,0.1
		c0.4,0.1,0.8,0.2,1.2,0.3c0.7,0.2-0.5-0.2,0.2,0l0.4,0.1c0.4,0.1,0.7,0.2,1.1,0.4s0.7,0.3,1.1,0.4c-0.1,0-0.4-0.2,0.1,0l0.8,0.4
		c2.9,1.5,5.7,3.3,8.2,5.5c5.8,5,10.9,10.7,15.3,16.9c6.5,8.7,12.2,17.9,17.2,27.6l0.2,0.5l0.1-0.6c-4.4,4.1-8.9,8-13.7,11.6
		c-9,7-18.7,13.5-29.4,17.6c-2.8,1.1-5.7,1.9-8.6,2.4c-2.5,0.4-5.1,0.5-7.6,0.1c-0.7-0.1-2.2,0-2,1s2.1,1.3,2.8,1.5
		c11.3,1.8,22.8-3.6,32.3-9.1c9.2-5.4,17.8-11.7,25.8-18.8c1.7-1.5,3.4-3,5-4.5c0.2-0.2,0.2-0.4,0.1-0.6c-4.4-8.7-9.4-17-15-24.9
		c-4.5-6.5-9.6-12.6-15.2-18.1c-5.3-5.1-11.4-9.6-18.7-11.5c-5.6-1.5-12.2-1.3-16.8,2.6c-4,3.3-5.8,8.7-6.8,13.7
		c-1.2,6.7-1.6,13.5-1.2,20.3c0.3,7.2,1,14.5,2.1,21.6c0.9,6.1,2,12.1,3.2,18c0.7,3.1,1.2,6.4,2.1,9.5c0,0.1,0.1,0.3,0.1,0.4
		C182,184.6,186.8,185.2,186.4,183.6z"></path><polygon class="st1" points="195.6,105.6 192.3,113.4 203.7,118.4 205.5,106.5 	"></polygon><path class="st0" d="M196.4,62.1c0,0,5.9,5.8,11.7,5.2s17-3.5,18.7,2.2s-6,8.4-11.1,7.8c0,0,2.5,15.3-6.3,20.1s-13.2,2.6-13.3,9
		c0,0-12.2,0.7-12.5-0.1c-0.6-1.7-6.5-24.2,6.9-32.6C190.6,73.7,198.3,69.5,196.4,62.1z"></path><path class="st2" d="M194,62.3c1.9,1.8,4,3.3,6.4,4.3c4,1.7,7.9,1.6,12.1,1c1.7-0.2,3.4-0.5,5.1-0.7c0.7-0.1,1.4-0.1,2.1-0.1
		c0.5,0,0.9,0,1.4,0.1c2.3,0.4,3.9,2.6,3.5,4.9c-0.1,0.3-0.1,0.6-0.3,0.9c-0.7,1.5-2,2.7-3.6,3.3c-0.8,0.3-1.6,0.6-2.5,0.7
		c-0.4,0.1-0.8,0.1-1.1,0.1h-0.6c-0.2,0-3.3-0.2-3.2,0.6c0.6,3.9,0.5,8-0.5,11.8c-0.6,2.9-2.2,5.5-4.5,7.4c-2.9,2.2-6.6,3.1-10,4.3
		c-1.2,0.3-2.4,0.9-3.3,1.8c-0.8,1.1-1.3,2.4-1.2,3.8l1.9-0.6c-1.3,0.1-2.6,0.1-3.9,0.2L190,106h-1.4c-0.5,0-1,0-1.5,0h-0.7H186
		c-0.5,0,0.3,0,0,0h-0.6c-0.4,0,0.4,0.1,0.1,0c0.2,0,0.6,0.2,0.6,0.2c0.2,0,0.1,0.3,0.1,0.1c-0.1-0.4-0.2-0.8-0.3-1.2
		c-0.4-1.5-0.7-3.1-0.9-4.6c-1.3-9.1-0.7-20.8,7.9-26.3c4.1-2.6,7.3-6.8,6.1-11.9C198.6,61.1,193.8,61.6,194,62.3
		c0.6,2.8,0,5.8-1.9,8c-0.7,0.8-1.5,1.6-2.3,2.3c-0.3,0.2-0.6,0.4-0.9,0.6c-0.1,0.1-0.2,0.2-0.3,0.2c-4.4,2.8-7.4,7.3-8.4,12.5
		c-1,4.9-1,9.8-0.2,14.7c0.2,1.6,0.5,3.2,0.9,4.7c0.1,0.3,0.2,0.7,0.3,1c0.4,0.7,1.5,0.8,2.2,0.9c4.4,0.6,9,0.2,13.4,0
		c0.3,0,1.8-0.1,1.9-0.6c-0.1-1.2,0.3-2.4,1-3.4c0.8-0.7,1.7-1.2,2.7-1.5c3.5-1.2,7.1-2.2,10.2-4.3c4.8-3.2,6-9.8,6-15.2
		c0-1.6-0.1-3.2-0.3-4.7l-3.2,0.6c3.9,0.4,8.4-0.1,11.7-2.3c2.6-1.7,3.9-5.4,1.4-7.9s-7.2-2.4-10.5-2.3c-2,0.1-4.1,0.3-6.1,0.6
		c-1.5,0.3-3.1,0.6-4.6,0.7c-1.9-0.1-4-1.4-5.5-2.4c-1-0.7-2-1.5-2.8-2.4c-0.7-0.7-2.2-0.6-3.1-0.5C195.5,61.5,193.4,61.7,194,62.3z
		"></path><path class="st2" d="M177.4,94.4c0,0-7.1,4.4-9.6,0.6s2.7-4.3,2.7-4.3s-8.3-6.8-0.9-10.7c0,0-8.5-4.5-5.1-12.1s14.7-6.8,14.7-6.8
		s-3.1-9.2,5.3-10.5s8.1,4.9,8.1,4.9s5.3-0.9,6.4,2.3s-2.4,5.6-2.4,5.6s1.3,9.6-6.1,10.4l-3.3,13.5c2.2,2.3,3.1,5.5,2.4,8.6
		C188.5,100.9,178.9,100.4,177.4,94.4z"></path><path class="st2" d="M176,92.3c-2.1,1.3-5.2,2.7-7.6,2c-0.3-0.1-0.9-0.6-1.2-0.6l1.5,2.1l-0.1-0.2c0-0.2-0.1-0.5,0-0.7
		c0.1-0.6,0.4-1,0.9-1.3c0.7-0.5,1.6-0.8,2.5-0.8c-0.3-0.7-0.6-1.3-1-1.9c-0.5-0.8-1.1-1.5-1.7-2.1l-0.1-0.1
		c-0.2-0.2-0.5-0.4-0.7-0.7l-0.2-0.2c-0.1-0.1-0.2-0.4-0.2-0.2c0,0,0.8,1.6,0.4,0.4c-0.9-2.6,0.5-4.5,2.7-5.8
		c0.3-0.2-2.3-3.8-2.8-4.1c-1-0.5-1.9-1.2-2.7-2c-0.1-0.2-0.3-0.3-0.4-0.4c0.3,0.3,0.6,0.7,0.8,1.1c0-0.3-0.5-1.2-0.6-1.5
		c-0.3-1.4-0.3-2.9,0.2-4.2c1.6-4.9,6.6-7.1,11.4-7.7c1.2-0.2,2.5-0.2,3.8-0.1V63c-1-3.2-0.9-7.4,2.3-9.3c2.3-1.4,6.3-1.8,8.7-0.3
		c0.2,0.1,0.4,0.3,0.6,0.4c0.7,0.7,0.3,0.1-1.4-2c-0.1-0.1-0.1-0.1,0,0s0.2,0.6,0.2,0.9c0.1,0.3,0.1,0.7,0.1,1
		c0,0.7,1.1,1.9,1.4,2.4c0.2,0.3,1,1.7,1.5,1.6c1.8-0.3,3.6,0,5.2,0.8c0.9,0.7,0.4-0.1-1.7-2.5c0.1,0.2,0.1,0.4,0.2,0.6
		c0.1,0.5,0.1,0.9,0,1.4c-0.2,0.6-0.4,1.2-0.8,1.7c-0.5,0.7-1,1.2-1.7,1.7v0.1c0.4,2.6-0.2,5.3-1.5,7.5c-0.5,0.7-1.1,1.3-1.8,1.8
		c-0.4,0.3-0.9,0.5-1.4,0.6c-0.3,0.1-1.2,0.1-1.4,0.3s-0.2,0.8-0.2,1l-0.6,2.3l-1.4,5.6c-0.3,1.4-0.8,2.8-1,4.3
		c-0.1,0.3,0,0.7,0.2,1c0.6,1,1.2,2,2,2.9c0.1,0.2,0.2,0.2,0.3,0.3s-0.1-0.3,0,0c-0.2-0.4-0.5-0.7-0.7-1c-0.5-0.7-0.1-0.2,0,0
		c0.2,0.6,0.4,1.1,0.6,1.7c0.4,1.5,0.3,3.1-0.3,4.5c-0.8,1.9-2.9,2.8-4.9,2.8c-1.2,0-2.4-0.2-3.4-0.7c-0.5-0.3-1-0.6-1.5-0.9
		c-1-0.6-0.1-1.5,1,1.6c-0.1-0.3-0.3-0.7-0.4-1c-0.4-1-0.9-1.8-1.6-2.6c-0.2-0.3-0.6-1-1-1.2C176.3,92.5,175.9,92.1,176,92.3
		c0.6,1.9,1.5,3.5,2.7,5c0.9,1.3,2.1,2.4,3.4,3.1c2.2,1.1,4.8,1.1,7,0c2.6-1.6,2.6-5.3,1.7-7.9c-1-2.7-2.6-5.2-4.7-7.2l2.6,3.9
		l1.9-7.7l1.1-4.7c0-0.4,0.1-0.7,0.3-1.1c0.3-0.3,1.6-0.4,2.1-0.6c3.1-1.4,4-5,4-8.2c0-0.5,0-0.9-0.1-1.4s-0.1-0.2,0.1-0.4
		c1.2-1.4,2.6-2.5,2.4-4.6c-0.1-1.6-1.4-3.2-2.3-4.5c-0.7-1.1-1.7-2-2.9-2.5c-1.4-0.4-2.9-0.5-4.3-0.3l2.9,4c0-1.1-0.4-2.2-0.9-3.1
		c-1.3-2.4-3.1-5.1-5.9-5.7s-6.4-0.2-8.3,1.9c-1.3,1.6-1.9,3.6-1.6,5.7c0,0.7,0.2,1.5,0.3,2.2c0.1,0.2,0.1,0.4,0.1,0.6
		c0,0.3,0.1,0,0,0.1c-0.5,0.1-1,0.1-1.4,0c-0.9,0-1.9,0.1-2.8,0.2c-5.4,0.8-11.1,3.9-11.2,10c-0.1,3.6,2.5,7,4.7,9.5
		c1.1,1.3,2.5,2.4,4,3.3l-2.8-4c-1.5,0.9-2.9,2.1-3.1,3.9c0,1.6,0.5,3.1,1.4,4.3c1.4,2.5,3.2,4.7,5.3,6.5l-2.8-4.1
		c-1.1,0-2.2,0.5-3,1.3c-0.5,0.8-0.5,1.7-0.1,2.5c0.8,1.7,1.8,3.3,3.1,4.6c2.6,2.8,6.9,1.1,9.7-0.6C179.1,96.3,176.4,92.1,176,92.3z
		"></path><path class="st0" d="M192.3,75.1c0,0-3-5.9-7.1-3.3s-1.5,17.2,6.4,14.4"></path><path class="st2" d="M194.6,73.9c-0.8-1.7-2.1-3-3.7-3.9c-3.1-1.4-7.2,0.5-8.9,3.4c-0.9,1.9-1.2,4-0.9,6.1c0.2,2.3,1.1,4.4,2.5,6.2
		c0.8,1,1.9,1.7,3.1,2.1c1.6,0.3,3.3,0.2,4.8-0.4c0.8-0.3,2.3-1.1,2.3-2.1s-1.7-0.6-2.2-0.4s0.5-0.1,0.1,0c-0.1,0-0.3,0-0.4,0.1
		c-0.4,0.1,0.4,0,0,0h-0.2h-0.4c0.5,0,0.1,0,0,0l-0.7-0.1c-0.1,0-0.4-0.2-0.1,0l-0.3-0.1c-0.2-0.1-0.4-0.2-0.5-0.3s-0.3-0.2-0.5-0.3
		l-0.3-0.2l-0.2-0.2c-1.3-1.4-2.1-3.1-2.4-5c-0.2-0.9-0.2-1.8-0.2-2.8c0-0.4,0-0.9,0.1-1.3c0-0.2,0.1-0.4,0.1-0.6s0-0.2,0.1-0.3
		c0.1-0.3-0.1,0.2,0-0.1c0.1-0.3,0.3-0.7,0.4-1c0.1-0.1,0.3-0.4-0.1,0c0.1-0.1,0.1-0.2,0.2-0.2s0.1-0.1,0.1-0.2
		c0.1-0.3-0.4,0.4-0.1,0.1s-0.5,0.4-0.2,0.2s-0.5,0.3-0.2,0.1c0.1-0.1,0.6-0.3-0.1,0c0.5-0.2-0.5,0.2,0,0c-0.4,0.2-0.1,0,0.1,0
		s0.1,0,0,0l0.4,0.1l0.3,0.1c-0.1-0.1-0.1,0,0,0c1.5,0.7,2.7,1.9,3.4,3.5c0.4,0.9,2.2,0.1,2.8-0.2S194.9,74.8,194.6,73.9L194.6,73.9
		z"></path><path class="st2" d="M205.4,70.1c0.7,0,1.2,0.6,1.1,1.3c0,0.1,0,0.1,0,0.2c-0.3,1.3-1.9,1-2-0.2c-0.1-0.5,0.2-1.1,0.7-1.2
		C205.2,70.1,205.3,70.1,205.4,70.1z"></path><path class="st2" d="M205.1,82.1c0.4,0.7,0.8,1.4,1.3,2c1.4,1.6,3.3,2.7,5.4,3.1c1.7,0.3,3.4,0.2,5-0.3c0.4-0.1,1-0.3,1.2-0.7
		c0.2-0.3,0.1-0.7-0.2-0.9c-0.4-0.3-0.9-0.5-1.5-0.6c-0.6-0.1-1.3-0.1-1.9,0.1l-0.7,0.2c-0.5,0.1,0.5-0.1,0.1,0h-0.4
		c-0.4,0,0.7,0,0.3,0h-0.3c-0.2,0,0.7,0.1,0.3,0l-0.4-0.1c-0.2,0,0.4,0.1,0.4,0.1h-0.2l-0.2-0.1c-0.1,0-0.4-0.2-0.1,0s0,0-0.1,0
		s-0.3-0.2-0.5-0.2s0,0,0.1,0.1l-0.3-0.2c-0.3-0.2-0.5-0.4-0.8-0.6l-0.3-0.3l-0.2-0.2c-0.1-0.1,0.1,0.2,0.1,0.2l-0.1-0.1
		c-0.3-0.4-0.6-0.8-0.9-1.2c-0.1-0.2-0.2-0.4-0.4-0.6c-0.2-0.4-0.8-0.6-1.1-0.7c-0.6-0.2-1.3-0.2-1.9-0.2
		C206.3,81,204.7,81.3,205.1,82.1L205.1,82.1z"></path><path class="st1" d="M114.2,199.3c0.1-0.2,0.1-0.5,0.2-0.7l-0.1,0.3c0.3-1.1,0.9-2.2,1.7-3.1l-0.2,0.3c0.5-0.5,1.1-1,1.7-1.4
		l-0.4,0.2l0.3-0.2c0.3-0.1,0.7-0.4,0.7-0.8s-0.4-0.7-0.7-0.8c-0.6-0.2-1.2-0.3-1.8-0.3c-0.6,0-1.2,0.1-1.8,0.3
		c-1.3,0.7-2.4,1.6-3.2,2.7c-0.7,1-1.3,2.2-1.5,3.5c-0.1,0.4,0.5,0.7,0.7,0.8c1.1,0.4,2.4,0.4,3.5,0
		C113.9,200,114.1,199.7,114.2,199.3L114.2,199.3z"></path><path class="st0" d="M153.7,174.5c-4-0.5-13,16.2-13,16.2s1.5,5.4-2.2,9s-6.7,2.7-6.7,2.7c0.1,2.6-1.6,4.9-4.1,5.5
		c-4.3,1.2-7.2-4.9-6-9c0,0-8-0.5-4.9-5.7c0,0-4.8,0.3-2.8-5.4c0,0,2.8-9.5,15.8-7.4c0,0,8.6-23.5,20.8-24.8"></path><path class="st2" d="M152.1,173.5c-2.2-0.2-3.9,1.7-5.2,3.2c-1.9,2.3-3.7,4.7-5.2,7.3c-1.2,1.8-2.3,3.6-3.2,5.6
		c-0.2,0.3-0.2,0.7-0.1,1c0.3,1.4,0.3,2.8,0,4.2c-0.6,2.5-2.2,4.7-4.4,5.9c-0.8,0.5-1.6,0.8-2.5,0.9h-0.2c-0.2,0-0.4-0.1-0.2,0
		c0,0,0.6,0.1,0.9,0.2c-0.2-0.1-2.6-0.7-2.6-0.1c0.1,2.4-1.4,4.5-3.7,5.3c-0.3,0-0.5,0.1-0.8,0.2c0.1-0.4,1.9,1.2,1.2,0.3
		c-0.1-0.1-0.2-0.2-0.3-0.3c-0.6-0.6-1-1.3-1.3-2c-0.7-1.7-0.9-3.6-0.4-5.4c0.3-1-3.3-1.7-3.9-1.7c-0.3,0,0,0,0.2,0l-0.7-0.1
		c-0.3,0-0.3-0.1,0,0l-0.5-0.1c0.7,0.2,0.1,0,0,0c0.3,0.1,0.4,0.1,0.1,0c0.2,0.1,0.3,0.1,0.1,0.1s0.2,0.2-0.1,0l-0.3-0.3
		c-0.2-0.2-0.3-0.5-0.4-0.8c-0.2-1,0.1-1.9,0.6-2.7c0.5-0.9-3.9-1.8-4.3-1.7c0.6,0,0.2,0-0.1,0c0.1,0,0.7,0.1,0.4,0.1
		s1.5,0.4,1.4,0.6c-0.2-0.3-0.5-0.7-0.7-1.1c-0.1-0.7-0.1-1.5,0.1-2.2c0.2-1.1,0.7-2.1,1.2-3.1c2.9-4.6,8.4-6,13.5-5.2
		c0.3,0,1.2,0.2,1.4-0.2c1-2.7,2.2-5.3,3.5-7.8c2.5-4.8,5.4-9.6,9.5-13.1c2-1.9,4.6-3.2,7.4-3.7c1.1-0.1-0.3-1-0.6-1.1
		c-1-0.6-2.2-0.8-3.3-0.8c-5.4,0.6-9.5,4.8-12.6,8.9c-3,4.1-5.5,8.5-7.4,13.1c-0.4,1-0.9,2-1.2,3l1.4-0.2
		c-5.5-0.8-11.5-0.3-15.2,4.2c-1.7,2-3.7,6-1.5,8.2c1.9,1.6,4.3,2.4,6.8,2.3l-4.3-1.7c-2.9,5.2,5,7.2,8.8,7.4l-3.9-1.7
		c-0.5,2.3-0.2,4.7,1,6.7c1.5,2.3,4,3.8,6.8,4.1c3.6,0.6,7.3-2,7.1-5.8l-2.6-0.1c4.9,1.4,10-1.4,11.4-6.3c0.1-0.5,0.2-0.9,0.3-1.4
		c0-1.3,0-2.6-0.2-3.8c0-0.4-0.1,0.1,0-0.1s0.3-0.5,0.4-0.7c0.5-0.9,1-1.7,1.5-2.6c1.5-2.6,3.1-5.1,4.9-7.6c0.9-1.3,1.9-2.5,3.1-3.6
		c0.4-0.4,0.9-0.8,1.4-1.1c0.2-0.1,0.5-0.2,0.7-0.3c0.1-0.1,0.2,0,0.1,0c0.9,0.1,1-0.4,0.3-0.9c-1-0.6-2.2-1-3.4-1.1L152.1,173.5z"></path><path class="st2" d="M132.8,190.2c-3.1,1.5-5,4.7-4.8,8.1c0.2,1.8,0.9,3.5,2,5c0.4,0.6,0.9,1,1.5,1.2c0.5,0.2,1.1,0.2,1.6,0
		c0.9-0.6,1.2-1.8,0.6-2.8c0-0.1-0.1-0.1-0.1-0.2c-0.2-0.3-0.4-0.6-0.6-0.9c-0.1-0.1-0.1-0.2-0.2-0.4c-0.2-0.5,0.1,0.4,0,0
		s-0.2-0.5-0.3-0.8s-0.1-0.6,0,0c0-0.1,0-0.3-0.1-0.4c0-0.2-0.1-0.5-0.1-0.7c0-0.4,0,0.5,0,0.1v-0.4c0-0.2,0.1-0.4,0.1-0.6
		s0,0-0.1,0.1c0.1-0.1,0.1-0.2,0.1-0.4c0.2-0.3,0.3-0.7,0.6-1l0.1-0.1c-0.2,0.3,0,0.1,0,0s0.2-0.3,0.4-0.4c0.4-0.4,0.9-0.9,1.4-1.2
		l-0.2,0.2l0.1-0.1l0.2-0.1c0.1,0,0.2-0.1,0.2-0.1c0.9-0.6,1.2-1.8,0.6-2.8c0-0.1-0.1-0.1-0.1-0.2
		C135.2,190.6,133.8,189.7,132.8,190.2L132.8,190.2z"></path><path class="st2" d="M123.3,186.8c-1.1,0.8-2,1.8-2.7,3c-1.5,2.6-1.9,5.7-1.1,8.6c0.5,1.1,1.5,2,2.7,2.2c0.8,0.2,2,0.1,1.7-1.1
		c-0.2-0.7-0.3-1.4-0.3-2.1c0-0.7,0.1-1.4,0.2-2.1c0.1-0.3,0.1-0.6,0.2-0.9s0.1-0.2,0,0c0-0.1,0-0.1,0.1-0.2l0.2-0.4
		c0.2-0.5,0.4-1,0.7-1.4c0.4-0.7,1-1.4,1.6-2c0,0,0.2-0.2,0.2-0.2s-0.3,0.3-0.1,0.1l0.3-0.2l0.2-0.2c0.9-0.6,0-1.8-0.6-2.3
		c-0.5-0.4-1.1-0.7-1.7-0.9C124.3,186.5,123.8,186.5,123.3,186.8L123.3,186.8z"></path><path class="st2" d="M118.3,183.9c-1.7,2.2-3.1,5.2-2.7,8.1c0.1,0.6,0.3,1.2,0.5,1.7c0.2,0.6,0.6,1.1,1,1.5
		c0.2,0.2,0.6,0.6,0.9,0.4s0.3-0.7,0.2-0.9s0-0.2,0-0.4s0-0.1,0-0.1s0-0.1,0,0.1c0-0.2,0-0.4,0-0.6c0-0.2,0-0.4,0.1-0.6
		c0-0.1,0-0.2,0.1-0.4v-0.1c0,0.1,0,0.2,0,0.1c0.2-0.8,0.6-1.6,0.9-2.3c0.4-0.8,0.9-1.6,1.5-2.3c0.2-0.3,0.1-1,0-1.3
		c-0.2-0.6-0.4-1.2-0.8-1.8C119.7,184.6,118.8,183.2,118.3,183.9L118.3,183.9z"></path><rect class="st1" x="91" y="190.6" transform="matrix(0.5141 -0.8577 0.8577 0.5141 -135.625 203.205)" width="41.1" height="61.4"></rect><path class="st1" d="M129.6,253.9l-17.8-10.7l-28.4-17l-6.5-3.9l0.1,0.4l18.5-30.9l2.6-4.3l-4.6,1.4l17.8,10.7l28.4,17l6.5,3.9
		l-0.1-0.4l-18.5,31l-2.6,4.3c-0.4,0.7,1.8,0.3,1.9,0.3c0.8-0.2,2.3-0.6,2.8-1.4l18.5-30.9l2.6-4.3c0.1-0.1,0.1-0.2,0-0.3
		c0,0,0,0-0.1,0L132.9,208l-28.4-17l-6.5-3.9c-1-0.6-4,0.5-4.6,1.4l-18.5,30.9l-2.6,4.3c-0.1,0.1,0,0.2,0.1,0.3c0,0,0,0,0,0
		l17.8,10.7l28.4,17l6.5,3.9c0.8,0.5,2.3-0.2,3.1-0.5C128.4,255.1,130.2,254.2,129.6,253.9z"></path><path class="st0" d="M105.1,195.4c-7.6,10.9-14,22.5-19.1,34.8c-0.4,1,1.7,0.8,2.1,0.7c1.1-0.1,2.1-0.7,2.7-1.7
		c5-12,11.3-23.5,18.8-34.1c0.6-0.9-0.7-1.2-1.3-1.1C107,194,105.9,194.5,105.1,195.4L105.1,195.4z"></path><path class="st0" d="M134.9,211.4c-6.5,12-13.8,23.5-21.9,34.4c-1.6,2.1,2.7,4.6,4,2.8c8.3-11.2,15.8-23,22.4-35.2
		C140.6,211.2,136,209.2,134.9,211.4L134.9,211.4z"></path><path class="st1" d="M129.6,197.3c0.3,0.1,0.7,0.2,1,0.3l0.3,0.1l0.3,0.2c0.3,0.1,0.5,0.3,0.8,0.5l0.3,0.2l0.2,0.1
		c-0.1-0.1,0,0,0,0c1.6,1.4,2.6,3.4,2.8,5.6c0.1,0.5,0.1,1,0,1.5c0,0.2-0.1,0.4-0.1,0.6c0,0.2-0.1,0.4-0.1,0.5
		c-0.1,0.4-0.3,0.8-0.6,1.2c-0.1,0.1-0.1,0.2-0.2,0.2s0.1-0.1,0,0c-0.1,0.1-0.2,0.1-0.3,0.2c-0.3,0.2,0.2-0.1,0,0s-0.7,0.4-0.7,0.7
		s0.5,0.6,0.8,0.6c1.2,0.3,2.4,0.2,3.5-0.3c4.3-2.3,2.8-8.9-0.2-11.7c-1.3-1.2-2.8-2-4.5-2.4c-1.2-0.3-2.4-0.2-3.5,0.3
		C128.7,196.3,128.6,197,129.6,197.3L129.6,197.3z"></path><path class="st0" d="M180.7,103.4c0,0-53.7,65.4-51.5,70s21.2,15.3,21.2,15.3l45.2-47.8"></path><path class="st2" d="M178.7,103.2c-2.7,3.3-5.5,6.7-8.2,10.1c-6,7.5-12,15-17.9,22.6c-6.1,7.8-12.1,15.6-17.8,23.7
		c-2.1,2.9-4.1,5.9-5.9,8.9c-0.8,1.4-2.2,3.4-2.2,5.1c0,1.4,1.7,2.7,2.6,3.6c2,1.7,4.1,3.3,6.3,4.8c3.9,2.6,7.8,5.1,11.9,7.5
		l0.7,0.4c1.3,0.8,3.1,0,4.1-1.1l15.2-16.1l24.3-25.7l5.6-5.9c0.7-0.8,0.2-1.6-0.7-1.7c-1.2-0.1-2.4,0.4-3.3,1.4l-15.2,16.1
		L154,182.5l-5.6,5.9l4.1-1.1c-3-1.7-6-3.6-9-5.4c-2.4-1.5-4.7-3.1-6.9-4.8c-1.7-1.2-3.3-2.6-4.6-4.2c-0.2-0.2-0.3-0.5-0.4-0.7
		s-0.1,0.4,0,0c0-0.1,0-0.2,0-0.3c0.1-0.5,0,0.1,0-0.1c0.3-0.9,0.7-1.7,1.2-2.5c1.5-2.7,3.1-5.3,4.9-7.8c5.4-7.9,11.2-15.4,17.1-23
		c6-7.7,12.1-15.4,18.2-23c3.2-4,6.6-7.9,9.7-11.9l0.1-0.2c0.7-0.8,0.3-1.6-0.7-1.7c-1.2-0.1-2.4,0.4-3.3,1.3L178.7,103.2z"></path><path class="st0" d="M274,89.8c0,0-4.3-14.5-0.2-15s6,7.1,6,7.1s8.1-15.1,11.1-14.4s-1.2,14-1.2,14s7.7-13.1,10-10.1
		S295.9,84,295.9,84s5.9-6.7,7.3-4.1S291,105.1,291,105.1c-7.2-0.9-13.9-4.3-18.9-9.7C272.6,93.6,273.2,91.7,274,89.8z"></path><path class="st2" d="M276.2,90.8c-0.9-2.8-1.5-5.7-1.8-8.6c-0.2-1.6-0.5-3.6,0.3-5.1c0.3-0.6,0.6-0.6,1-0.9
		c0.2-0.1,0.7,0.2-0.3-0.3c-0.3-0.1-0.6-0.4-0.6-0.3c0.2,0.4,0.6,0.7,0.9,1.1c0.8,1.3,1.5,2.8,1.8,4.3c0.2,0.8,3.9,3.2,4.4,2.1
		c2-3.9,4.4-7.6,7-11.1c0.7-0.9,1.5-1.8,2.3-2.6c0.3-0.2,0.6-0.4,0.9-0.6c0.1-0.1,0.3-0.2,0.2-0.1h0.1l-2.9-1.4
		c-0.1,0-0.1-0.2-0.1-0.1c0,0.4,0.2,0.8,0.3,1.2c0,0.6,0,1.2,0,1.8c-0.1,1.3-0.4,2.7-0.7,4c-0.4,2-1,4-1.6,6
		c-0.3,1.1,3.9,3.3,4.4,2.3c1.7-3,3.6-5.8,5.9-8.3c0.6-0.7,1.2-1.3,2-1.8c0.2-0.1,0.7-0.3,0.8-0.3c0.3-0.1-3.2-2.7-2.8-1.4
		c0,0.2,0.1,0.3,0.2,0.5c0.5,2.2-0.7,4.8-1.6,6.7c-0.8,1.7-1.6,3.3-2.6,4.8c-0.5,0.8,3.6,3.2,4.4,2.3c1.5-1.8,3.4-3.3,5.5-4.4
		c0.6-0.3,0.5,0.1-1.2-0.8c-0.8-0.5-1.4-0.8-1.4-0.8s0,0.1,0,0.1c-0.1,0.3,0,0.5,0,0.8c-0.2,1-0.6,2-1,3c-2.5,5.7-5.4,11.2-8.6,16.6
		c-0.9,1.5-1.7,3-2.6,4.5l0.5-0.2c-0.3,0-0.2,0-0.1,0c-0.4-0.1-0.8-0.1-1.2-0.2c-1.3-0.2-2.5-0.6-3.7-1c-3.9-1.4-7.4-3.8-10.3-6.8
		l0.4,0.8c0.4-1.9,1-3.8,1.8-5.6c0.5-1.1-4.1-3.2-4.4-2.3c-0.7,1.6-1.2,3.3-1.7,5c-0.1,0.2-0.1,0.4-0.1,0.7c0,0.8,1.1,1.6,1.6,2.1
		c2.8,2.6,6,4.8,9.4,6.5c3.7,1.9,7.7,3.1,11.8,3.6c0.2,0,0.4,0,0.5-0.2c2.7-4.4,5.2-9,7.6-13.5c1.6-2.8,3-5.7,4.1-8.8
		c0.4-0.8,0.6-1.8,0.5-2.7c-0.2-1.8-3-3-4.5-3.2c-1.8-0.3-3.3,1-4.6,2.1c-1,0.8-1.9,1.8-2.8,2.7l4.4,2.3c1-1.6,1.9-3.3,2.7-5.1
		c0.9-2.1,2.3-5.2,1.3-7.4s-4.6-4-6.8-2.5c-1.9,1.5-3.6,3.4-4.9,5.5c-1.1,1.5-2.1,3.1-3,4.7l4.4,2.3c0.6-2,1.2-4,1.6-6
		c0.3-1.5,0.6-3,0.7-4.5c0.2-1.2,0-2.4-0.5-3.5c-1.1-1.5-2.9-2.5-4.8-2.6c-1,0.1-1.9,0.6-2.5,1.4c-2.1,2.2-3.9,4.7-5.4,7.3
		c-1.2,1.9-2.3,3.9-3.4,5.9l4.4,2.1c-0.4-1.6-1.1-3.2-2-4.6c-1.6-2.5-4.8-4.9-7.9-4.8c-2,0.1-2.3,2.1-2.4,3.7c0,2.4,0.3,4.8,0.8,7.1
		c0.3,1.5,0.7,3.1,1.1,4.6c0.3,0.9,1.7,1.6,2.5,1.9C274.5,90.9,276.5,91.6,276.2,90.8z"></path><path class="st2" d="M279.9,84c0.5,0.4,1,0.8,1.5,1.2l0.5,0.4l0.3,0.3c0,0,0.3,0.3,0.1,0.1s0.1,0.1,0.2,0.2s0.1,0.2,0.2,0.2
		s0,0-0.1-0.1c0.1,0.1,0.2,0.2,0.2,0.3l0.2,0.2c0.2,0.3-0.3-0.5-0.1-0.1c0.1,0.2,0.2,0.4,0.3,0.6s-0.2-0.5-0.1-0.2
		c0,0.1,0.1,0.2,0.1,0.3s0.2,0.4,0.2,0.7s0.1,0.2,0.1,0.4c0.1,0.3-0.1-0.4,0-0.1s0.1,0.4,0.2,0.7c0.2,0.9,0.3,1.8,0.5,2.8
		c0.1,0.6,0.4,1.2,0.8,1.8c0.3,0.4,0.7,0.8,1.2,1c1.1,0.3,1.3-0.8,1.2-1.6c-0.2-2.3-0.9-4.6-1.8-6.8c-0.6-1.2-1.3-2.3-2.3-3.2
		c-0.5-0.5-1-0.9-1.6-1.3l-0.6-0.4l-0.3-0.2c-0.1-0.1-0.5-0.4-0.1-0.1c-0.3-0.4-0.8-0.6-1.2-0.7c-0.4,0-0.7,0.3-0.8,0.7
		C278.6,81.9,279,83.2,279.9,84z"></path><path class="st1" d="M202.1,112.4c0,0-2.5,41.9-36,35.9l-21,9.6l21,9.6C166.1,167.6,230.6,156.6,202.1,112.4z"></path></g></svg>