<svg transform="scale(1)" version="1.1" id="soKLp81SUI" xmlns="http://www.w3.org/2000/svg" xmlns:xlink="http://www.w3.org/1999/xlink" x="0px" y="0px" viewBox="0 0 500 500" xml:space="preserve" class="pbimage_pbimage__wrapper__image__0LEis false"><title>Getting Started 1</title><style type="text/css"> .st0{fill:#59BE4C;} .st1{fill:#FFFFFF;} .st2{fill:#000005;}
 .st2{fill:#000005;}
 .st1{fill:#FFFFFF;}
 .st0{fill:#59BE4C;}</style><g id="stair"><path class="st0" d="M26.7,398.2l0.2-22.9l0.3-36.6l0.1-8.4l-1.1,0.7h138.2c1.9,0,3.8,0.1,5.6,0h0.2l-3.6-2.3V356
		c0,1.4,2.5,2.2,3.6,2.3l25.3,0.8l3.6,0.1l-3.5-2.3l0.7,24.4l0.1,3.5c0,1.4,2.5,2.2,3.6,2.3l18,0.2l28.8,0.3l6.6,0.1l-3.5-2.3
		l0.3,14.7c0,1.5,4.6,3.2,4.6,1.5l-0.3-14.7c0-1.4-2.5-2.2-3.6-2.3l-18-0.2l-28.8-0.4l-6.6-0.1l3.6,2.3l-0.7-24.4l-0.1-3.5
		c0-1.4-2.5-2.2-3.6-2.3l-25.3-0.8l-3.6-0.1l3.6,2.3v-27.1c0-1.3-2.5-2.3-3.6-2.3H41.5c-5.8,0-11.6-0.1-17.5,0h-0.2
		c-0.5,0-1.1,0.1-1.1,0.7l-0.2,22.9l-0.3,36.6l-0.1,8.4C22.1,398.2,26.7,399.9,26.7,398.2L26.7,398.2z" fill="#59BE4C"></path><path class="st0" d="M38.5,323.2v-6.5l-0.1-17.5l-0.1-25.8L38,241.9l-0.2-34.5l-0.2-34.8l-0.2-32.6l-0.1-27.4L37.2,93
		c0-3.1,0.1-6.3,0-9.4c0-0.1,0-0.3,0-0.4L34.3,85h72.5l-2-0.8v6.6v18v26.5v32.3v35.3v35.8l0.1,33.3V300v20.2c0,3.2-0.2,6.4,0,9.6
		c0,0.1,0,0.3,0,0.4c0,1.5,4.9,0.9,4.9-0.9v-6.6v-18v-26.5V246v-35.4v-35.8l-0.1-33.3v-28.1V93.2c0-3.2,0.2-6.4,0-9.6v-0.4
		c0-0.8-1.6-0.8-2-0.8H35.2c-0.9,0-2.9,0.5-2.9,1.7v6.4l0.1,17.5l0.1,25.8l0.2,31.6l0.2,34.5l0.2,34.8l0.2,32.6l0.2,27.4l0.1,19.7
		c0,3.1-0.2,6.3,0.1,9.4c0,0.1,0,0.3,0,0.4C33.5,325.7,38.4,325.1,38.5,323.2L38.5,323.2z" fill="#59BE4C"></path><path class="st0" d="M38.5,321l6.9-5.4l16.4-12.9l20-15.7l17.3-13.6c2.8-2.2,5.7-4.3,8.4-6.6c0,0,0.1-0.1,0.1-0.1
		c1.7-1.3,0.4-3.7-1.6-3.7l-22.9,0.3l-36.4,0.4l-8.3,0.1l1.6,3.7l6.7-5.6l16.1-13.6l19.6-16.5l16.9-14.2c2.7-2.3,5.6-4.5,8.2-6.9
		l0.1-0.1c1.7-1.4,0.4-3.7-1.6-3.7H35.5l1.5,3.7l7.1-5.9L61,190.7l20.5-17.2l17.7-14.8c2.9-2.4,5.9-4.7,8.7-7.2l0.1-0.1
		c0.9-0.8,1-2.1,0.2-3c-0.4-0.5-1.1-0.8-1.8-0.7l-23.9,0.7l-38.3,1.1l-8.8,0.2l1.5,3.7l7.1-6.8l17.1-16.3l20.8-19.8l17.9-17
		c2.9-2.8,5.9-5.5,8.7-8.3l0.1-0.1c2.3-2.2-1.3-5-3.4-3l-7.1,6.8l-17.1,16.3L60.5,125l-17.9,17c-2.9,2.8-5.9,5.5-8.7,8.3l-0.1,0.1
		c-0.9,0.8-1,2.1-0.2,3c0.4,0.5,1.1,0.8,1.8,0.7l23.9-0.7l38.3-1.1l8.8-0.2l-1.6-3.7l-7.1,5.9l-16.9,14.1l-20.5,17.1l-17.7,14.8
		c-2.9,2.4-5.9,4.7-8.6,7.2l-0.1,0.1c-1.7,1.4-0.4,3.7,1.6,3.7h70.6l-1.6-3.7l-6.7,5.6l-16.1,13.6l-19.6,16.5l-16.9,14.2
		c-2.7,2.3-5.6,4.5-8.2,6.9l-0.1,0.1c-0.9,0.8-1,2.1-0.2,3c0.4,0.5,1.1,0.8,1.8,0.7L61,268l36.4-0.4l8.3-0.1l-1.6-3.7l-6.9,5.4
		l-16.4,12.9l-20,15.7l-17.2,13.6c-2.8,2.2-5.7,4.2-8.4,6.6l-0.1,0.1c-0.9,0.7-1.1,1.9-0.4,2.8c0.1,0.1,0.2,0.2,0.3,0.3
		C36,321.9,37.5,321.9,38.5,321L38.5,321z" fill="#59BE4C"></path><path class="st0" d="M32.7,83l7.1,6.6l17.1,15.8l20.6,19.1l17.9,16.6c2.9,2.7,5.7,5.5,8.7,8.1l0.1,0.1c0.9,0.7,2,1.2,3.1,1.5
		c0.3,0.1,1.8,0.5,1-0.1l-7.1-6.6l-17.1-15.9l-20.6-19.1L45.6,92.5c-2.9-2.7-5.7-5.5-8.7-8l-0.1-0.1c-0.9-0.7-2-1.2-3.1-1.5
		C33.4,82.8,31.9,82.3,32.7,83L32.7,83z" fill="#59BE4C"></path><path class="st0" d="M33.2,153l7,5.7L57,172.4l20.4,16.5L95,203.2l5.8,4.8c0.8,0.8,1.8,1.6,2.8,2.2l0.1,0.1c0.4,0.3,2-0.7,2.4-0.9
		c0.7-0.4,1.4-0.9,2.1-1.4l-7-5.7l-16.8-13.7L64,172.2l-17.7-14.3l-5.8-4.7c-0.8-0.8-1.8-1.6-2.8-2.2c0,0-0.1-0.1-0.1-0.1
		c-0.4-0.3-2,0.7-2.4,0.9C34.5,152,33.8,152.5,33.2,153L33.2,153z" fill="#59BE4C"></path><path class="st0" d="M34.1,210.1l7,5.4l17,13.1l20.5,15.7l17.8,13.6c2.9,2.2,5.8,4.5,8.7,6.7l0.1,0.1c0.8,0.6,2.2,1.4,3.2,0.7
		s0.1-1.9-0.6-2.4l-7-5.4l-17-13.1l-20.5-15.7l-17.8-13.6c-2.9-2.2-5.8-4.5-8.7-6.7l-0.1-0.1c-0.8-0.6-2.2-1.4-3.2-0.7
		S33.5,209.6,34.1,210.1z" fill="#59BE4C"></path><path class="st0" d="M36.1,267.3l7,5.6l16.9,13.4l20.5,16.2l17.7,14l8.6,6.8l0.1,0.1c1,0.7,2.3,0.7,3.3,0.1c0.6-0.4,1.9-1.7,1-2.5
		l-7.1-5.6L87.3,302l-20.5-16.2l-17.7-14c-2.9-2.3-5.7-4.5-8.6-6.8l-0.1-0.1c-1-0.7-2.3-0.7-3.3-0.1
		C36.5,265.2,35.2,266.6,36.1,267.3L36.1,267.3z" fill="#59BE4C"></path></g><g id="rocket"><path class="st1" d="M135.3,256.4c0,0-19.8,4.1-21.7,23.1s10.7,44.8,10.7,44.8h4.7c0,0-4.1-40.5,11-46.6L135.3,256.4z"></path><path class="st0" d="M134.4,254.2c-8.3,1.8-15.4,6.9-19.8,14.1c-3.8,6.6-3.9,14.5-3,21.9c1.1,7.7,3,15.2,5.7,22.5
		c1.4,4.1,3.1,8.1,5,12c0.4,1,1.4,1.7,2.4,1.8h4.7c1,0.1,1.8-0.6,1.9-1.6c0-0.2,0-0.3,0-0.5c-0.1-1.3-0.2-2.6-0.3-4
		c0-0.6-0.1-1.3-0.1-1.9c0-0.4,0-0.7,0-1.1c0-0.2,0-0.4,0-0.6s0-0.2,0,0c0-0.1,0-0.3,0-0.4c0-1.8-0.1-3.6,0-5.4
		c0.1-8,0.7-16.5,3.9-23.8c0.7-1.7,1.6-3.3,2.8-4.7c0.3-0.3,0.6-0.7,0.9-1s0.7-0.6,0.7-0.6c0.7-0.5,1.5-0.9,2.3-1.3
		c0.7-0.4,1-1.1,0.8-1.9l-4.1-18.6l-0.6-2.7c-0.3-1.3-1.3-2.3-2.6-2.4c-1-0.1-1.8,0.6-1.9,1.5c0,0.2,0,0.4,0,0.5l4.1,18.7l0.6,2.7
		l0.8-1.9c-7.3,3-9.9,12.3-11.1,19.3c-1.2,7.9-1.6,15.9-1.1,23.9c0.1,1.7,0.2,3.5,0.4,5.2l1.9-2.1H124l2.4,1.8
		c-4.6-9.3-7.9-19.2-9.8-29.5c-1.2-6.9-1.9-14.5,0.9-21c2.2-4.9,5.9-8.9,10.6-11.5c1-0.6,2.1-1.1,3.2-1.6c0.5-0.2,0.9-0.4,1.4-0.6
		l0.7-0.3l0.2-0.1c0.8-0.3,1.7-0.5,2.6-0.7C139.1,258,136.9,253.6,134.4,254.2z"></path><path class="st1" d="M191.4,255.5c40.6,9.8,12.1,63.3,11,66.3h-4.7c0,0,4.1-39.6-11-45.5L191.4,255.5z"></path><path class="st0" d="M191.1,257.5c3.2,0.8,6.3,2,9.1,3.8c1.7,1.1,3.3,2.4,4.7,4c0.2,0.2,0.4,0.5,0.6,0.8l0.3,0.4
		c0,0.1,0.5,0.6,0.2,0.3c3.2,4.5,4.4,9.7,4.6,15.3c0-0.2,0,0.6,0,0.8s0,0.6,0,0.9c0,0.8,0,1.6-0.1,2.3c-0.1,1.5-0.2,2.9-0.4,4.4
		c-0.4,2.8-1,5.6-1.7,8.4c-0.7,2.8-1.3,4.8-2.3,7.4c-0.8,2.3-1.6,4.5-2.5,6.7c-1.1,2.7-2.6,5.3-3.6,8l1.9-1.2h-4.7l2.9,2.4
		c0.4-4.7,0.6-9.5,0.5-14.2c-0.2-8.3-0.8-17.1-4.4-24.7c-1.8-3.9-4.6-7.2-8.6-8.9l1.6,2.2l4.1-18.2l0.6-2.6c0.6-2.6-4.4-3.3-5-0.7
		l-4.1,18.2l-0.5,2.7c-0.2,1,0.7,1.9,1.6,2.2l0.5,0.2c0.6,0.2-0.4-0.3,0.1,0c0.3,0.2,0.6,0.4,1,0.6c0.1,0.1,1,0.8,0.6,0.4
		c0.4,0.3,0.7,0.6,1,1c0.3,0.3,0.5,0.6,0.8,0.9c0.1,0.2,0.2,0.3,0.4,0.5c-0.2-0.3,0,0,0,0c0.5,0.8,1,1.6,1.4,2.4
		c1.6,3.4,2.7,7.1,3.2,10.9c1.1,7.1,1.4,14.4,0.9,21.6c-0.1,1.6-0.2,3.2-0.3,4.8s1.5,2.4,2.9,2.4h4.7c0.8,0,1.5-0.5,1.9-1.2
		c0.9-2.4,2.2-4.7,3.1-7.1c2-4.8,3.8-9.8,5.1-14.8c3-11.1,4.6-24.5-1.9-34.7c-4.4-6.9-11.7-10.7-19.5-12.6c-1.2-0.3-2.4,0.5-2.8,1.7
		C188.7,256.5,190,257.2,191.1,257.5z"></path><path class="st0" d="M146.3,322.2c10.7,4.1,22.6,3.6,32.9-1.2c0,0,21-60.9,18.5-109.4s-35-74-35-74s-33.3,23-33.3,81.9
		S146.3,322.2,146.3,322.2z"></path><path class="st0" d="M144.5,323.1c6.4,2.8,13.9,3.5,20.8,3c3-0.2,6-0.8,8.9-1.6c1.5-0.4,3-1,4.4-1.6c0.9-0.4,2.4-0.7,3-1.6
		c0.3-0.8,0.6-1.6,0.8-2.4c4.4-13.5,8-27.3,11-41.2c4.5-21,7.7-42.7,6.9-64.2c-0.7-19.4-6.5-38.3-16.8-54.7
		c-3.4-5.4-7.3-10.4-11.6-15.1c-2.1-2.3-4.3-4.5-6.7-6.5l-0.3-0.3c-1.2-0.8-2.7-0.9-3.9-0.3c-4.1,3-7.7,6.5-10.8,10.5
		c-8,9.9-14.1,21.3-17.7,33.6c-6,19.6-6.2,40.2-4.8,60.5c1.3,18.8,4.2,37.5,8.6,55.9c1.4,5.8,3,11.6,4.8,17.3
		c0.7,2.7,1.6,5.3,2.6,7.9c0.1,0.1,0.1,0.2,0.1,0.4c0.6,1.6,5.6,1.2,4.8-0.7c-2.4-6.6-4.5-13.3-6.1-20.1
		c-4.5-17.2-7.5-34.7-9.2-52.3c-1.9-20.6-2.7-41.8,2.3-62.1c3.1-13.1,8.8-25.4,16.8-36.3c3.5-4.8,7.6-9.1,12.3-12.7
		c0.2-0.1,0.6-0.4-0.2,0.1l-3.9-0.3c4.5,3.7,8.5,8,12,12.6c8.7,11,15.1,23.7,18.8,37.2c5,17.9,4.6,36.8,2.6,55.1
		c-2,17.2-5.2,34.3-9.6,51.1c-1.5,5.9-3.1,11.7-4.9,17.5c-0.9,2.8-2,5.6-2.7,8.5c0,0.1-0.1,0.3-0.1,0.4l0.6-0.6
		c-6.5,3-13.7,4.2-20.8,3.3c-2.2-0.3-4.3-0.7-6.4-1.4c-0.6-0.2-1.3-0.4-1.9-0.6l-0.5-0.2c0.7,0.2,0.5,0.2,0.3,0.1
		c-1.1-0.5-2.4-0.5-3.5,0C143.7,321.7,143.5,322.7,144.5,323.1z"></path><path class="st1" d="M161.9,257.9c0,0-10.1,11-7.1,36s5.6,36.1,5.6,36.1h4.9c0,0,2.6-19.5,4.2-36.6S167.8,261.4,161.9,257.9z"></path><path class="st0" d="M159.9,256.4c-1.3,1.6-2.5,3.4-3.3,5.2c-2.3,4.9-3.8,10.1-4.4,15.5c-1,8.7,0.2,17.4,1.3,26
		c0.9,6.5,1.8,13.1,3,19.6c0.4,2.4,0.9,4.9,1.4,7.3c0.3,1.3,1.5,2.1,2.8,2.1h4.9c1,0,1.9-0.7,2-1.7c1.1-8.1,2-16.2,2.9-24.3
		c1.4-12.5,3.1-25.5-0.2-37.9c-1.2-4.3-3.1-9.5-7.1-12C162.3,255.6,160.8,255.3,159.9,256.4c-0.7,0.9-0.6,2.2,0.3,2.9
		c0,0,0.1,0.1,0.2,0.1c0.3,0.2,0.6,0.4,0.9,0.7c0.1,0.1,0.3,0.3,0,0c0.1,0.1,0.3,0.3,0.4,0.5c0.5,0.6,0.9,1.2,1.3,1.8
		c1,1.8,1.8,3.7,2.3,5.7c1.4,5.4,2.1,10.9,2,16.5c-0.2,6.5-0.7,13-1.6,19.5c-0.6,5.6-1.3,11.3-2,16.9c-0.3,2.8-0.7,5.7-1.1,8.5
		l2-1.7H160l2.8,2.1c-1.8-7.5-2.8-15.2-3.9-22.8c-1.9-13.9-4.3-28.7,1.6-41.9c0.4-0.9,0.9-1.8,1.3-2.7c0.2-0.4,0.4-0.7,0.6-1.1
		l0.3-0.4c0.1-0.2-0.3,0.4,0,0c0.3-0.5,0.7-1,1.1-1.5C165.8,257.2,161.7,254.4,159.9,256.4z"></path><circle class="st2" cx="162.6" cy="200.3" r="16.8"></circle><path class="st1" d="M177.1,201.3c0,3.3-1,6.5-2.8,9.2c-1.3,2-3.4,4.4-5.7,5.1c-6.3,1.8-13.3-1.1-17.1-6.2
		c-3.9-5.3-4.4-12.5-1.1-18.3c1.3-2.3,3.4-4.8,5.8-5.9c2.6-1.2,6.3-0.8,9,0C172.2,187.4,177.1,193.9,177.1,201.3
		c0,0.2,2.3-0.6,2.4-0.7c0.4-0.2,2.2-0.7,2.2-1.3c-0.1-7.5-5.1-14.1-12.3-16.2c-3.7-1-7.6-0.8-11.2,0.5c-4,1.2-7.6,3.4-10.4,6.5
		c-4.9,5.7-5.5,14-1.4,20.4c4.2,6.2,12,9,19.2,6.9c4.5-1.1,8.7-3.5,11.9-6.8c2.7-3.1,4.3-7.1,4.3-11.3c0-0.3-2.3,0.6-2.4,0.6
		C178.9,200.2,177.1,200.7,177.1,201.3z"></path><path class="st2" d="M142.6,167.4c13.3,1.8,28.3,3.6,39.8-4.8c1.2-0.9-1.2-5.2-2.2-4.5c-11.4,8.3-26.1,6.5-39.3,4.7
		C139.7,162.7,141.2,167.2,142.6,167.4L142.6,167.4z"></path><path class="st2" d="M159,230.2l0.1,1.3c0.1,0.1,0.3,0.2,0.4,0.1c0.2,0,0.4,0,0.6-0.1c0.3,0,0.6-0.1,0.8-0.2
		c0.4-0.1,0.8-0.3,1.2-0.4c0.2-0.1,0.4-0.2,0.6-0.3c0.2-0.1,0.4-0.2,0.5-0.3c0.2-0.1,0.3-0.2,0.5-0.4c0.2-0.2,0.3-0.4,0.5-0.6
		c0.1-0.2,0.2-0.4,0.2-0.6c0-0.2,0-0.3,0-0.5c-0.1-0.1-0.2-0.1-0.3-0.1c-0.2,0-0.4,0-0.5,0c-0.3,0-0.5,0.1-0.8,0.2
		c-0.3,0.1-0.6,0.2-0.9,0.3l-0.6,0.2c-0.3,0.1-0.7,0.3-1,0.5l-0.3,0.2c-0.1,0.1-0.2,0.2-0.2,0.4c0,0.2,0,0.4,0,0.6v-0.2
		c-0.1,0.2-0.2,0.5-0.3,0.6l0.2-0.2c-0.1,0.1-0.1,0.1-0.2,0.2l0.3-0.2l-0.1,0.1l0.4-0.2h-0.1l0.5-0.2l0,0l3.1-0.6l-0.1-1.3
		c-0.1-0.1-0.2-0.1-0.3-0.1c-0.2,0-0.4,0-0.5,0c-0.3,0-0.5,0.1-0.8,0.2c-0.3,0.1-0.6,0.2-0.9,0.3l-0.6,0.2c-0.3,0.1-0.7,0.3-1,0.5
		l-0.3,0.2C159.1,229.8,159,229.9,159,230.2L159,230.2z"></path><path class="st2" d="M160,240.6l0.1,2.5c0,0.2,0.1,0.4,0.2,0.6c0.1,0.3,0.3,0.5,0.4,0.8c0.3,0.5,0.7,0.9,1.1,1.2
		c0.1,0.1,0.3,0.3,0.4,0.4c0.2,0.1,0.4,0.3,0.6,0.4l0.3,0.1c0.2,0,0.3-0.1,0.4-0.3c0.2-0.4,0.3-0.9,0.2-1.4c0-0.3-0.1-0.6-0.2-0.9
		l-0.1-0.3c-0.1-0.2-0.2-0.5-0.3-0.7c-0.3-0.6-0.7-1.1-1.1-1.6c-0.2-0.2-0.4-0.4-0.6-0.6c-0.2-0.1-0.4-0.3-0.6-0.4
		c-0.2-0.1-0.6-0.1-0.7,0.2v0.3c0.1,0.3,0.2,0.6,0.3,0.9c0,0.1,0.1,0.1,0.1,0.2l-0.2-0.5c0,0.1,0.1,0.2,0.1,0.3l-0.1-0.4
		c0,0.2,0.1,0.3,0.1,0.5v-0.3c0,0.3-0.1,0.7-0.2,1l3.4,3.2l-0.1-2.5c0-0.2-0.1-0.4-0.2-0.6c-0.1-0.3-0.2-0.5-0.4-0.8
		c-0.2-0.3-0.4-0.5-0.6-0.8c-0.2-0.2-0.4-0.5-0.7-0.7l-0.4-0.3c-0.2-0.1-0.4-0.2-0.7-0.3l-0.2,0.1C160,240.2,159.9,240.4,160,240.6
		L160,240.6z"></path><path class="st2" d="M159.1,252.6C159.1,252.6,159.1,252.6,159.1,252.6c0,0.1,0.1,0.3,0.1,0.3c0,0.1,0.1,0.2,0.1,0.2
		c0.1,0.2,0.2,0.4,0.4,0.5c0.1,0.1,0.4,0.3,0.4,0.4l0,0l0,0l0.6,0.3l0,0c0.1,0,0.3,0.1,0.4,0.1s0.3,0.1,0.4,0.1l0,0l0.7,0.1h0.1
		c0,0,0.5,0,0.7-0.1l0.3-0.1c0,0,0.2-0.1,0.3-0.1c0.2-0.1,0.4-0.2,0.6-0.4c0.1-0.1,0.3-0.3,0.3-0.4s0,0,0,0c0.1-0.2,0.2-0.3,0.2-0.5
		l-0.5,0.8c0.4-0.3,0.6-0.6,0.7-1.1c0-0.2,0-0.4,0-0.6c0-0.2-0.1-0.4-0.2-0.6c-0.1-0.2-0.3-0.4-0.4-0.6c-0.3-0.3-0.7-0.6-1.1-0.8
		c-0.3-0.1-0.5-0.2-0.8-0.2c-0.5-0.1-1-0.1-1.5,0c-0.4,0.1-0.8,0.3-1.2,0.5c-0.2,0.2-0.4,0.3-0.5,0.5l-0.1,0.2
		c-0.1,0.2-0.2,0.4-0.3,0.7c0,0.1,0,0.2,0,0.2c0,0.2,0,0.5,0,0.7c0.1,0.2,0.1,0.4,0.2,0.6c0,0,0,0.1,0,0.1c0.1,0.2,0.2,0.3,0.4,0.5
		c0.3,0.3,0.7,0.5,1.1,0.7c0.2,0.1,0.5,0.2,0.7,0.2c0.4,0.1,0.9,0.1,1.4,0c0.4-0.1,0.7-0.2,1.1-0.5c0.1-0.1,0.3-0.3,0.4-0.4
		c0.2-0.3,0.3-0.7,0.2-1.1c0-0.2-0.1-0.4-0.2-0.5c-0.2-0.3-0.5-0.6-0.8-0.8c-0.3-0.2-0.6-0.3-0.9-0.4c-0.3-0.1-0.7-0.2-1-0.1
		c-0.3,0-0.6,0-0.9,0.1c-0.3,0.1-0.5,0.2-0.7,0.4l-0.3,0.4c-0.2,0.3-0.2,0.6-0.2,0.9l0.2,0.5c0.2,0.3,0.4,0.6,0.8,0.8l0,0l-0.4-0.4
		l0,0l-0.3-0.4l0,0l-0.2-0.5c0,0,0,0,0,0.1v-0.5c0,0,0,0.1,0,0.1l0.2-0.4c0,0,0,0.1,0,0.1l0.3-0.4l-0.1,0.1l0.4-0.3h-0.1l0.5-0.2
		l0,0l0.6-0.1l0,0l0.7,0.1h-0.1l0.6,0.2l0,0l0.6,0.3h-0.1l0.4,0.4l-0.1-0.1l0.3,0.4c0,0-0.1-0.1-0.1-0.1l0.2,0.5c0-0.1,0-0.2,0-0.3
		v0.5c0-0.1,0-0.3,0.1-0.4l-0.2,0.4c0-0.1,0.1-0.2,0.2-0.3l-0.3,0.4c0-0.1,0.1-0.1,0.2-0.1l-0.4,0.3l0.1-0.1l-0.6,0.2h0.1l-0.6,0.1
		c0,0,0.1,0,0.1,0l-0.7-0.1h0.1l-0.6-0.2h0.1l-0.6-0.3c0,0,0.1,0,0.1,0.1l-0.4-0.4c0,0,0.1,0.1,0.1,0.1l-0.3-0.4
		c0,0.1,0.1,0.1,0.1,0.2l-0.2-0.5c0,0.1,0,0.1,0,0.2v-0.5c0,0,0,0.1,0,0.1l0.2-0.4c0,0,0,0.1-0.1,0.1l0.3-0.4h-0.1
		c-0.1,0.1,0,0-0.2,0.2c-0.1,0.1-0.2,0.2-0.2,0.4l-0.1,0.2l0.2-0.4c0,0,0,0,0,0.1l0.3-0.4l-0.1,0.1l0.4-0.3h-0.1l0.6-0.2H161
		l0.6-0.1h-0.1l0.7,0.1h-0.1l0.6,0.2h-0.1l0.6,0.3h-0.1l0.4,0.4c0,0,0,0,0-0.1l0.3,0.4v-0.1l0.2,0.5c0,0,0-0.1,0-0.1
		c0-0.3-0.1-0.5-0.3-0.7c-0.2-0.2-0.4-0.4-0.6-0.6c-0.3-0.2-0.6-0.3-0.9-0.4c-0.3-0.1-0.7-0.2-1-0.2l-0.6,0.1
		c-0.4,0.1-0.7,0.2-1,0.4l-0.3,0.4c-0.2,0.3-0.2,0.6-0.2,0.9L159.1,252.6z"></path><path class="st2" d="M122.6,272.3L122.6,272.3c-0.3,0-0.4,0.1-0.6,0.1c-0.1,0-0.1,0.1-0.2,0.1c-0.2,0.1-0.4,0.3-0.6,0.5
		c-0.3,0.5-0.5,1-0.5,1.6c0,1.1,0.3,2.1,1,2.9c0.3,0.4,0.7,0.7,1.1,1l0.1,0c0.2,0.1,0.4,0.2,0.5,0.2h0.1l0.6,0h0.2
		c0.2,0,0.4-0.1,0.6-0.2c0.2-0.1,0.5-0.3,0.7-0.5c0.1-0.1,0.2-0.2,0.2-0.3c0.1-0.2,0.2-0.4,0.3-0.6c0.1-0.2,0.1-0.4,0.1-0.7
		c0-0.5-0.1-1-0.2-1.5c-0.3-0.7-0.7-1.4-1.3-1.9c-0.3-0.3-0.8-0.5-1.2-0.6c-0.2,0-0.4-0.1-0.6-0.1h-0.2c-0.3,0-0.5,0.1-0.8,0.2
		l-0.2,0.1c-0.1,0.1-0.3,0.2-0.4,0.3l-0.1,0.1c0,0.1-0.1,0.1-0.1,0.2c-0.1,0.2-0.2,0.4-0.3,0.6c0,0.2-0.1,0.4-0.1,0.6v0.1
		c0,0.5,0.1,0.9,0.2,1.3c0.1,0.3,0.3,0.6,0.5,0.9c0.2,0.3,0.4,0.5,0.6,0.7c0.2,0.2,0.4,0.3,0.7,0.4c0.2,0.1,0.4,0.2,0.7,0.1l0.4-0.1
		c0.3-0.2,0.4-0.4,0.5-0.7l0.1-0.5c0-0.4-0.1-0.8-0.2-1.1l0,0l0.2,0.6c0,0,0-0.1,0-0.1v0.6c0,0,0-0.1,0-0.1l-0.1,0.5
		c0-0.1,0-0.1,0.1-0.2l-0.2,0.4c0.1-0.1,0.1-0.2,0.2-0.3l-0.3,0.3c0.1-0.1,0.3-0.2,0.4-0.2l-0.4,0.1c0.1,0,0.3,0,0.4,0h-0.4
		c0.1,0,0.2,0,0.2,0l-0.5-0.2l0.1,0.1l-0.5-0.3l0.1,0.1l-0.4-0.4l0.1,0.1l-0.4-0.6c0,0,0,0.1,0,0.1l-0.3-0.6c0,0,0,0.1,0,0.1
		l-0.2-0.6c0,0,0,0.1,0,0.1v-0.6c0,0.1,0,0.1,0,0.2l0.1-0.5c0,0.1-0.1,0.2-0.1,0.3l0.2-0.4c-0.1,0.1-0.2,0.2-0.3,0.4l0.3-0.3
		c-0.1,0.1-0.3,0.2-0.4,0.2l0.4-0.1c-0.1,0-0.2,0-0.3,0h0.4c-0.1,0-0.1,0-0.2,0l0.5,0.2c-0.1,0-0.1-0.1-0.2-0.1l0.5,0.3l-0.1-0.1
		l0.4,0.4c0,0-0.1-0.1-0.1-0.1l0.4,0.6c0,0-0.1-0.1-0.1-0.1l0.3,0.6c0-0.1,0-0.1,0-0.2l0.2,0.6c0-0.1,0-0.1,0-0.2v0.6
		c0-0.1,0-0.2,0-0.3l-0.1,0.5c0-0.1,0.1-0.2,0.1-0.4l-0.2,0.4c0.1-0.1,0.1-0.2,0.2-0.3l-0.3,0.3c0.1-0.1,0.2-0.1,0.3-0.2l-0.4,0.1
		h0.1c0.2,0,0.4-0.1,0.6-0.3c0.2-0.1,0.3-0.3,0.4-0.5c0.1-0.3,0.1-0.5,0.1-0.8c0-0.3-0.1-0.6-0.2-0.9l-0.3-0.6
		c-0.2-0.4-0.5-0.7-0.8-1l-0.5-0.3C123.2,272.4,122.9,272.3,122.6,272.3L122.6,272.3z"></path><path class="st2" d="M205.3,273.4c-0.9,0.3-1.8,0.7-2.6,1.2c-0.3,0.2-0.7,0.4-1,0.6c-0.2,0.1-0.4,0.3-0.6,0.4c-0.3,0.3-0.3,0.8,0,1
		c0,0,0,0,0.1,0.1c0.2,0.1,0.4,0.1,0.6,0.1c0.4-0.1,0.9-0.2,1.3-0.4c1-0.4,1.9-0.9,2.8-1.5c0.5-0.3,1.1-0.7,1-1.4
		c0-0.5-0.3-0.9-0.6-1.2c-0.1,0-0.2,0-0.2,0c-0.2,0-0.3,0.1-0.5,0.2c-0.5,0.2-1.1,0.5-1.6,0.8c-0.5,0.3-1,0.6-1.5,0.9
		c-0.1,0-0.6,0.4-0.6,0.5c0.5,0.4,0.7,1,0.6,1.7l0.1-0.1c-0.1,0.1-0.2,0.3-0.3,0.4l0.2-0.2l-0.1,0c-0.1,0,0,0,0.1-0.1
		c0.2-0.1,0.3-0.2,0.5-0.3l1.1-0.6c0.5-0.3,1.1-0.5,1.6-0.8h0.1l0.3-0.1c-0.1,0-0.2,0-0.3,0h0.1c-0.4-0.1-0.6-0.5-0.4-0.9
		c0,0,0,0,0,0l-0.1,0.1c0-0.1,0.1-0.1,0.1-0.2l-0.2,0.2c0.2-0.2,0,0-0.7,0.5l-1.1,0.6l0,0l-1.1,0.5l-0.8,0.3c0.5-0.2,1-0.4,1.5-0.6
		c0.6-0.3,1.1-0.6,1.7-0.9l0.4-0.3c0.2-0.1,0.4-0.3,0.5-0.4v-0.1C205.5,273.3,205.4,273.3,205.3,273.4L205.3,273.4z"></path><path class="st0" d="M115.8,285.9c4.6,2.7,9.7,4.6,14.9,5.5c1,0.2,0.6-1,0.3-1.5c-0.5-0.8-1.5-2.1-2.5-2.3c-5-0.9-9.8-2.6-14.1-5.2
		c-0.2-0.1-0.7-0.3-1-0.1s-0.1,0.7,0,1C113.9,284.4,114.7,285.3,115.8,285.9L115.8,285.9z"></path><path class="st0" d="M197,290.6c7,0.6,13.9-2.1,18.7-7.2c0.6-0.6-0.7-1.4-1.2-1.7s-2.5-1.2-3.1-0.6c-4.5,4.6-10.6,7.6-17.2,7
		c-0.2,0-0.8,0-0.9,0.3s0.3,0.7,0.4,0.9C194.7,290.1,195.8,290.5,197,290.6L197,290.6z"></path></g><g id="cloud"><path class="st1" d="M393.4,183.8c0,0,7.1-7.9,17.2-5.4c2.2,0.5,4.2,1.8,5.6,3.6c4.3,5.4-0.7,12.6-8.4,12.6l-87.5-0.1
		c-6.4,0-9.1-6.8-4-10c6-3.8,13.9-0.6,13.9-0.6s-13.6-16.5,2.5-33.4s39.7-0.7,37.2,17C369.7,167.4,395.5,154.3,393.4,183.8z"></path><path class="st0" d="M395,185.7c3.9-4.4,10.6-6.8,16.4-5.3c3.5,0.9,5.5,3.8,3.8,7.3c-1.5,3.1-5,4.7-8.3,4.8c-6,0.1-12.1,0-18.1,0
		l-35.9-0.1l-29-0.1c-1.8,0.1-3.7,0.1-5.5-0.1c-0.7-0.1-1.5-0.3-2.1-0.7c-0.1-0.1-0.5-0.4-0.2-0.2c0,0-0.5-0.6-0.3-0.3
		c0,0.1-0.1-0.1-0.1-0.2c-0.4-1.2-0.1-2.5,0.8-3.5c2.8-3.2,8-3.1,11.8-2.3c0.8,0.2,1.5,0.4,2.2,0.7c0.6,0.2,1.3,0.1,1.5-0.6
		c0.1-0.8-0.2-1.7-0.9-2.3l-0.1-0.1l-0.1-0.1c-0.3-0.4,0.3,0.5,0.1,0.2c-0.3-0.5-0.7-1-1-1.5c-0.2-0.4-0.4-0.7-0.6-1
		c-0.3-0.5,0.1,0.2-0.1-0.2s-0.2-0.5-0.4-0.8c-0.5-1.1-0.9-2.1-1.3-3.2c-1.8-5.9-1.1-12.3,1.9-17.6c3.5-6.3,9.5-11.7,16.7-12.9
		c5.5-0.8,11.2,0.9,15.4,4.5c2.2,1.9,3.9,4.2,5,6.9c1.2,2.9,1.6,6.1,1.2,9.2c-0.2,1.5,2,3.9,3.5,3.1c-0.7,0.4,0.2-0.1,0.4-0.1
		c0.6-0.3,1.2-0.5,1.8-0.7c1.8-0.7,3.7-1.2,5.7-1.6c1-0.2,2.1-0.3,3.1-0.3c0.6,0,1.1,0,1.7,0.1l0.8,0.1c0.1,0,1,0.2,0.6,0.1
		c0.6,0.2,1.1,0.4,1.6,0.6c0.5,0.2-0.1-0.1,0.4,0.2c0.3,0.2,0.5,0.3,0.8,0.5c-0.6-0.4,0.2,0.2,0.4,0.3s0.2,0.2,0.3,0.3
		c-0.5-0.5-0.1-0.1,0,0s0.7,0.9,0.3,0.3c0.2,0.3,0.4,0.6,0.6,1c0,0.1,0.3,0.6,0.1,0.1c0.1,0.2,0.2,0.4,0.3,0.6
		c0.2,0.5,0.4,0.9,0.5,1.4c0.2,0.9,0.4,1.7,0.6,2.6c0.4,2.6,0.4,5.2,0.2,7.8c0.1,1.2,0.8,2.3,1.9,2.9c0.7,0.4,1.9,0.6,2-0.5
		c0.5-8-0.8-17.6-9-21.4c-4.6-2.1-10-1.3-14.6,0.3c-1.2,0.4-2.5,0.9-3.6,1.5l3.5,3.1c1.8-13.5-10.5-27-24-27.4
		c-8-0.2-14.7,4.2-19.4,10.4c-4.7,6-6.5,13.8-4.9,21.2c0.9,4.4,2.9,8.5,5.7,12l0.6-2.8c-3-1.2-6.2-1.6-9.4-1.3
		c-4,0.4-8.9,2.8-8.6,7.4c0.3,4.4,4.5,8.1,8.8,8.5c0.6,0,1.3,0,2,0H349l38.6,0.1c7,0,13.9,0.1,20.9,0c3.6,0,7.1-1.3,9.3-4.2
		c2.7-3.7,1.9-8.2-0.9-11.6c-6.2-7.3-17.1-5.8-23.8-0.2c-0.5,0.4-0.9,0.8-1.4,1.3C390.5,183.4,393.8,187.1,395,185.7z"></path><path class="st1" d="M173.4,111.7c0,0,71.4,0.5,78.6-1.1c7.2-1.6,15.7-14,7.7-28.5s-20-10.3-20-10.3s1-20.3-23.9-19.3
		s-23.9,24.3-23.9,24.3s-18.7,0.8-16.4,15.9c0,0-8.7-3.2-13.4,7.9S173.4,111.7,173.4,111.7z"></path><path class="st0" d="M175.1,113.1c5.2,0,10.4,0.1,15.6,0.1c10.7,0,21.3,0,32-0.1c9-0.1,18-0.1,26.9-0.6c3.1-0.2,5.9-0.5,8.5-2.4
		c5.6-4.2,7.8-11.8,6.8-18.6c-1.3-8.2-6.4-15.3-13.8-19.2c-3.9-2.1-8.4-2.8-12.8-1.9c-0.2,0-0.4,0.1-0.7,0.2l4.2,2.3
		c0.1-2.6-0.4-5.1-1.4-7.5c-2.2-5.8-7.1-9.8-12.8-12.1c-4.1-1.5-8.5-2.2-12.9-2.1c-4.2,0-8.3,0.9-12.2,2.5c-5.3,2.5-9.4,7-11.3,12.5
		c-1.1,3.1-1.7,6.4-1.6,9.7l0.5-0.4c-5.8,0.2-12.9,2.6-15.8,8c-1.2,2.6-1.6,5.5-1.1,8.3l1.4-0.2c-1.8-0.6-3.7-0.8-5.5-0.5
		c-3.8,0.6-6.6,3.3-8.4,6.6c-1.6,3-2.6,6.7-0.4,9.6c2.2,2.7,5.7,4.3,9,5.1C171.2,112.8,173.1,113.1,175.1,113.1c1,0-0.1-1-0.4-1.3
		c-0.9-0.8-2-1.2-3.1-1.4c-1.1,0-2.3-0.1-3.4-0.3c-0.5-0.1-1-0.2-1.5-0.3s0.4,0.1-0.1,0l-0.4-0.1c-0.1,0-1-0.4-0.5-0.2
		c-0.1,0-0.9-0.4-0.6-0.2s-0.2-0.1-0.2-0.1s0.5,0.3,0.1,0.1c-0.1-0.1-0.2-0.1-0.3-0.2c0.4,0.3,0.1,0.1,0,0c-0.1-0.1-0.3-0.2-0.4-0.4
		c-1.9-2.2-0.9-5.5,0.2-7.9c1.5-3.1,3.9-5.9,7.3-6.8c1.1-0.3,2.2-0.4,3.4-0.2c-0.4,0,0.2,0,0.3,0.1l0.5,0.1c-0.1,0-0.4-0.2,0,0
		s1.5,0.5,1.4-0.2c-0.7-4.6,0.7-8.9,4.5-11.7c2.8-1.9,6-3.1,9.4-3.6c0.7-0.1,1.4-0.2,2.1-0.2c0.3,0,0.5-0.1,0.5-0.4
		c-0.3-7.3,3.3-15.4,9.3-19.6c6.2-4.3,14.8-5.3,22.1-3.8c0.7,0.2,1.5,0.3,2.2,0.6l0.8,0.3l0.6,0.2c0.1,0,0.7,0.3,0.3,0.1l0.8,0.4
		c0.6,0.4-0.3-0.2,0.1,0.1l0.5,0.3l0.4,0.2l0,0c0.2,0.2,0.7,0.6,0.8,0.6c1.6,1.5,2.9,3.2,3.7,5.2c1.2,2.6,1.8,5.4,1.7,8.3
		c0,0.6,1.5,1.4,1.9,1.6c0.6,0.3,1.7,0.9,2.4,0.7c2.4-0.7,5-0.7,7.4,0c0.9,0.2,1.8,0.7,2.6,1.2c1.2,0.8,2.3,1.9,3.2,3
		c2.8,3.4,4.7,7.5,5.5,11.8c1.2,6.6-0.9,14.3-6.5,18.4c-1.4,1-3,1.7-4.7,2c-0.3,0,0.2,0,0,0h-0.4l-0.8,0.1l-1.9,0.1
		c-8.5,0.5-17,0.5-25.5,0.6c-10.4,0.1-20.7,0.1-31.1,0.1c-5.8,0-11.7-0.2-17.5-0.1h-0.2c-1.1,0,0,1.1,0.3,1.3
		C172.8,112.5,173.9,113,175.1,113.1z"></path><path class="st1" d="M230.2,78.2c0,0,5.3-11.4,20.4-5"></path><path class="st0" d="M232.3,77c0.5-1.1,1.3-2.1,2.2-2.9l0.3-0.3c0.2-0.2-0.1,0.1,0.1-0.1l0.3-0.3c0.3-0.2-0.2,0.2,0.1-0.1
		s-0.4,0.2-0.1,0.1s-0.2,0.1-0.2,0.1l0,0c-0.3,0.2-0.1,0.1,0.1,0c-0.3,0.2,0.2-0.1,0.3-0.1c1.6-0.6,3.2-0.8,4.9-0.8
		c2.8,0.1,5.6,0.8,8.1,1.9c0.6,0.2,1.9-0.7,2.3-1c0.7-0.5,1.3-1,1.9-1.6c-4.6-1.9-9.6-2.8-14.4-0.8c-3.6,1.4-6.8,3.7-9.2,6.8
		c-0.4,0.5-0.7,1-1,1.6c-0.2,0.4,1.6-0.5,1.7-0.5C230.4,78.5,231.9,77.9,232.3,77L232.3,77z"></path></g><g id="character"><path class="st1" d="M346.8,306.3c0,0,13.5-21,39.6-15.9s34.1,42.1,4.8,53L346.8,306.3z"></path><path class="st2" d="M349.1,307.4c2.3-3.3,5.1-6.3,8.4-8.6c7.1-5.5,16-8.2,25-7.7c2.4,0.1,4.8,0.5,7.1,1.2c0.5,0.2,1,0.3,1.5,0.5
		c0.3,0.1,0.7,0.2,1,0.4c0.9,0.4,1.8,0.8,2.3,1.1c3.1,1.8,5.8,4.3,7.9,7.2c4.4,6,6.1,13.6,4.8,21c-1.9,9.5-9.1,16.3-17.9,19.6l3.6,1
		l-15.1-12.5l-23.9-19.9l-5.5-4.6c-0.8-0.6-2.2-1.4-3.2-1.1s-0.3,1.2,0.2,1.6l15.1,12.5l23.9,19.9l5.5,4.6c0.9,0.7,2.5,1.5,3.6,1
		c8.3-3.1,15.5-9.4,17.9-18.1c2-7.7,0.7-15.9-3.6-22.6c-10.6-17-35-20-51.3-9.7c-4.7,2.8-8.7,6.6-11.8,11.1
		C343.9,306.3,348.2,308.7,349.1,307.4z"></path><path class="st0" d="M359.5,303.4c0,0,12.7-7.8,22.7-4s28.1,25,25.5,29.4s-11,11.5-12.6,11.3S358.8,309,359.5,303.4z"></path><path class="st1" d="M417.4,366.5c-0.7-9-61.1-66-87-61.4l-0.3,0.1c-2.6-0.2-5.1,0.1-7.6,0.8c-2.1,0.6-4.2,1.5-6.1,2.7
		c-0.3-0.1-0.5-0.1-0.8-0.1c-11.9,0.6-50.6,41-50.6,41l-31.6-24.4l-15.1,20.6c0,0,8.1,28.3,37.8,41c13.9,5.9,24.7,2.5,32.3-2.8
		c-1.1,12.7-1,21.8-1,21.8c26,21.1,89.8-1.1,89.8-1.1c0.8-5.2-3.1-16.4-3.6-24.5c10.5,8.9,23.1,26.9,30,26.3
		C413.4,405.6,418.1,375.5,417.4,366.5z"></path><path class="st2" d="M419.9,366.4c-0.3-1.5-0.9-2.9-1.9-4c-1.5-2.2-3.2-4.3-4.9-6.3c-5.1-5.8-10.6-11.2-16.4-16.3
		c-6.9-6.2-14.1-12-21.7-17.4c-7.1-5.2-14.6-9.7-22.6-13.4c-7.4-3.3-16-5.8-24.1-4l3.5-0.2c-6.2-0.6-12.5,0.8-17.9,3.9l4.5-0.3
		c-4.9-0.8-9.3,1.1-13.4,3.6c-4.5,2.9-8.8,6.1-12.9,9.6c-8.5,7.2-16.6,14.9-24.5,22.8c-1.7,1.8-3.5,3.5-5.2,5.3l4.8-0.2L239.8,328
		l-3.9-3c-0.6-0.4-2.1-0.2-2.8-0.1s-1.8,0-2.1,0.5L220.2,340l-2.8,3.8c-0.6,0.6-1.1,1.3-1.5,2.1c-0.2,0.6,0.5,1.8,0.7,2.4
		c6.2,16.2,18.4,29.5,33.9,37.3c7,3.6,14.9,5.2,22.8,4.6c6.3-0.5,12.3-2.6,17.5-6.2l-4.9,0.1c-0.5,6.1-0.8,12.1-1,18.2
		c0,0.8,0,1.5,0,2.3c-0.1,0.4-0.1,0.8,0,1.2c0.1,0.5,0.9,0.8,1.3,1.1c0.8,0.6,1.6,1.1,2.5,1.6c7.6,4.5,16.6,6,25.3,6.5
		c18,1,36.3-2.2,53.7-6.9c3.9-1,7.8-2.2,11.7-3.5c0.1,0,0.3-0.1,0.3-0.2c0.5-3.7-0.6-7.6-1.3-11.2c-1.1-4.4-1.8-8.8-2.3-13.3
		l-4.9,0.4c5.9,5,10.8,10.9,16.1,16.5c2.3,2.5,4.8,4.9,7.4,7c1.8,1.6,4,2.6,6.4,3c2.6,0.2,5.7,0,7.8-1.6c1.7-1.4,3-3.2,4-5.1
		c2.8-5.2,4.2-11.1,5.4-16.9C419.4,377.8,420.3,372,419.9,366.4c0-0.6-5-0.3-5,0.3c0.2,4.5-0.2,9.1-1,13.5
		c-0.8,5.6-2.2,11.1-4.2,16.5c-0.8,2.2-1.9,4.3-3.3,6.3c-1,1.5-2.5,2.6-4.1,3.4c0.1-0.1,0.1,0.1-0.1,0c0.5,0,1,0,1.4-0.1
		c1.4,0,0.9,0.1,0.5-0.1s-0.9-0.3-1.4-0.5c-1.1-0.5-2.1-1.1-3-1.9c-2.5-1.9-4.8-4.1-6.9-6.4c-5.6-5.8-10.8-12.1-16.9-17.4
		c-0.5-0.4-4.9-0.2-4.9,0.3c0.4,4.5,1.2,8.9,2.3,13.3c0.7,3.6,1.8,7.5,1.3,11.2l0.3-0.2c-9.7,3.3-19.7,5.8-29.8,7.5
		c-8.3,1.6-16.8,2.4-25.2,2.3c-8.3-0.2-16.8-1.4-24.3-5.1c-1-0.5-1.9-1-2.9-1.6c-1-0.5-1.9-1.1-2.7-1.9c-0.3-0.4-0.3-0.3-0.3-0.9
		c0-0.7,0-1.4,0-2c0.1-6.4,0.5-12.8,1-19.1c0-0.6-4.5-0.2-4.9,0.1c-4,2.8-8.8,5.1-13.7,5.5c-6.3,0.5-12.8-2.2-18.3-5
		c-9.1-4.7-17-11.5-23.1-19.7c-3.8-5-6.9-10.6-9.2-16.5c-0.2-0.6-1-1.9-0.9-2.6c0.1-0.4,0.8-1.1,1.1-1.5l2.5-3.4l11.6-15.8l-4.9,0.3
		l27.7,21.3l4,3c0.5,0.4,1.9,0.2,2.4,0.2s2,0,2.4-0.4c6.7-7,13.7-13.8,20.8-20.3c5.4-5,11-9.7,16.8-14.1c2.3-1.8,4.8-3.3,7.3-4.7
		c0.9-0.5,1.9-1,2.9-1.3l0.6-0.2h0.1c0.1,0,0.2,0,0.3-0.1c0.3,0-0.5,0-0.1,0h0.1c-0.4,0.1-0.9,0.1-1.3,0c-2,0-0.4,0.1,0,0.1
		c0.6,0,1.3,0,1.9-0.1c1.7-0.1,2.8-1,4.3-1.7c1.5-0.7,3.1-1.2,4.8-1.5c1.4-0.1,2.9-0.2,4.3-0.1c0.5,0,1-0.1,1.4-0.2
		c0.9-0.2-0.2,0,0.2,0c0.1,0,0.3,0,0.4,0c-0.6,0.1-0.1,0,0,0c0.6,0-0.6,0,0,0h0.3c-0.9,0,0.6,0,0,0c0.5,0,1,0,1.5,0.1
		c1.3,0.2,2.5,0.4,3.8,0.7c6.3,1.5,12.3,4.5,18,7.7c13.5,7.6,25.9,17.5,37.4,27.9c4.9,4.4,9.6,9.1,14,14c2.6,2.9,5.6,6,7.1,9.7
		c0.2,0.4,0.3,0.9,0.4,1.4C415,367.2,420,366.9,419.9,366.4z"></path><path class="st2" d="M417.4,361.7l-17.1,29c0,0-1.9,22,14.9,29.1s28.6-8.5,28.6-8.5l4.5-29.4c0,0,11.2-4.3,12.2-15.6
		c0,0,0.4,8.2,4.9,7.2s7.2-22.4-5.4-22.8c0,0,18.1-7.5,15.3-15.6s-26.3,8.4-26.3,8.4s17.2-22.9,7.8-25.3s-29.4,31.4-29.4,31.4
		s-2.5-13.5-11.7-11.1S417.4,361.7,417.4,361.7z"></path><path class="st2" d="M415.4,360.2L402.6,382l-3.1,5.3c-0.5,0.6-0.8,1.3-1.1,2c-0.1,0.9-0.1,1.8-0.1,2.7c0,2.1,0.2,4.2,0.6,6.2
		c0.9,5.9,3.5,11.4,7.5,15.8c5.3,5.7,13.1,9.6,21,9.1c5.8-0.4,11.3-3.3,15.5-7.3c1.1-0.9,2.1-1.9,2.9-3c0.2-0.6,0.4-1.3,0.4-2
		l4.1-27l0.1-0.8l-0.2,0.3c6.8-2.6,11.5-8.7,12.4-15.9l-4-2.7c0,2.7,1,5.4,2.8,7.5c2.1,2.2,5.8,4.4,7.8,1c1.3-2.5,2-5.2,2-8
		c0.2-3.2-0.5-6.5-2-9.3c-2.2-4-6.3-6.6-10.9-7l3.6,3.3c3-1.3,5.9-2.8,8.6-4.6c3.3-2.2,8.1-6,7.1-10.6c-0.5-2.4-2.7-4.3-4.9-5.3
		c-1.6-0.6-3.3-0.7-5-0.3c-4.4,0.9-8.6,3.2-12.4,5.4c-2.8,1.6-5.5,3.2-8.1,5.1l3.9,3.1c2.6-3.4,4.9-7,6.9-10.8
		c1.5-2.6,2.7-5.5,3.4-8.4c0.6-2.7,0.2-4.9-1.9-6.8s-4.5-3.1-7.2-2.3c-2.4,0.9-4.5,2.3-6.4,4.1c-5,4.6-9.2,10.2-13.1,15.8
		c-2.6,3.7-5.1,7.5-7.4,11.4l4,2.9c-0.4-2.4-1.3-4.6-2.4-6.7c-2.1-3.8-6.1-7.6-10.7-7.8c-9.4-0.3-5.8,11.8-3.9,17
		c0.9,2.5,1.9,4.9,3.1,7.3c0.6,1,1.4,1.8,2.5,2.4c0.3,0.2,1.8,0.8,1.3-0.1c-2.6-4.7-4.3-9.7-5.1-15c-0.3-2.6-0.3-6.1,2.3-7.5
		c1.5-0.8,3.3-0.9,4.9-0.4c0.2,0.1,0.7,0.3,0.4,0.1c0.5,0.3,0,0,0,0l0.2,0.1c-0.2-0.2-0.2-0.2,0,0c-0.2-0.2,0.2,0.2,0.3,0.3
		c0.3,0.3,0.5,0.7,0.8,1.1c1.2,2,2,4.2,2.5,6.5c0.1,0.7,3.4,3.8,4,2.9c4.9-8.5,10.7-16.5,17.2-23.9c1.9-2.1,4-4.1,6.4-5.7
		c1.5-1,3.5-2.1,5.2-1.8c0.1,0,0.6,0.2,0.4,0.1c0.5,0.1-0.2-0.2,0,0c0.4,0.3-0.9-0.6-0.9-0.7c-0.1-0.2-0.3-0.3-0.4-0.4
		c0.2,0.1,0,0.1,0,0c0.1,0.2,0.2,0.4,0.3,0.6c0.2,1,0.3,2,0.1,3c-0.6,2.7-1.6,5.4-3,7.8c-2.2,4.2-4.7,8.1-7.5,11.9
		c-0.6,0.8,3.1,3.7,3.9,3.1c5.2-3.9,10.9-7,17-9.4c1.6-0.7,3.4-1,5.1-1.1c0.3,0,0.6,0,0.9,0l0.5,0.1c0.3,0.1,0.2,0.1,0.2,0.1
		s-0.6-0.4-0.8-0.5s-0.5-0.5-0.7-0.7s0,0,0,0s-0.1-0.4,0,0c0,0.1,0.1,0.1,0.1,0.2c0.1,0.2,0.1,0.3,0.2,0.5c1.2,4.1-3.2,7.8-6.1,9.9
		c-2.8,2-5.9,3.7-9,5c-1,0.4,2.7,3.2,3.6,3.3c0.7,0,1.3,0.1,2,0.3c0.2,0.1,0.4,0.1,0.6,0.2c0.2,0.1,0.3,0.1,0.3,0.1s-0.3-0.4,0,0
		c-0.3-0.4-0.1-0.1,0,0c-0.3-0.4,0.2,0.3,0.1,0.1c0.4,0.5,0.7,1,0.9,1.5c1.1,2.3,1.6,4.9,1.5,7.5c0,2.4-0.4,4.8-1.3,7
		c-0.3,0.8-0.8,1.5-1.3,2.2c-0.7,0.7-1.1,0.5-2,0.6h-0.1c0.7,0.1,1.2,0.5,1.5,1.1c0,0,0.2,0.4,0-0.1c-0.1-0.3-0.3-0.6-0.4-0.9
		c-0.3-0.6-0.5-1.3-0.6-2c-0.2-0.8-0.3-1.6-0.4-2.4c0-0.9-1.5-1.8-2.1-2.3c-0.3-0.2-1.8-1.2-1.9-0.5c-0.7,6.7-5.8,12.9-12,15.3
		c-0.2,0-0.2,0.1-0.2,0.3l-3.7,24.3l-0.7,4.5c0,0.1,0,0.3-0.1,0.5s0-0.1,0,0c-0.2,0.3-0.4,0.5-0.6,0.8c-3,3.5-6.8,6.3-11.1,8
		c-6.2,2.4-14,2-19.4-2c-1-0.7-1.8-1.6-2.6-2.5c-0.9-1.1-1.6-2.2-2.3-3.5c-1.3-2.4-2.2-5-2.8-7.7c-0.7-3.4-1-6.9-0.9-10.4
		c0-0.4,0.1-0.3,0-0.2c0.1-0.3,0.3-0.6,0.5-0.9l2.5-4.3l13.6-23.4l0.3-0.5C419.9,362.3,415.8,359.5,415.4,360.2z"></path><path class="st1" d="M442.4,374.1c-0.9-5.9-3.4-12.2-7.5-16.7c-2.1-2.3-4.6-4.1-7.5-5.4c-0.1,0-0.7-0.3-0.8-0.1s0.3,0.7,0.4,0.7
		c0.8,0.8,1.8,1.5,2.9,2c-0.2-0.1,0.2,0.1,0.3,0.2c-0.3-0.2,0.1,0.1,0.2,0.1c-0.4-0.3,0.2,0.1-0.2-0.1l0.3,0.2
		c0.3,0.2-0.4-0.4,0.1,0.1c0.6,0.5,1.1,1,1.5,1.6c1.1,1.4,2.1,3,2.9,4.6c1.3,2.7,2.2,5.5,2.9,8.5c0.1,0.6,0.3,1.2,0.4,1.8
		c0.1,0.8,1.7,1.7,2.3,2C440.8,373.8,442.5,374.7,442.4,374.1L442.4,374.1z"></path><path class="st1" d="M444.6,345.4h-0.2l0.8,0.2l0.5,0.1h0.1l-0.4-0.1l0.4,0.1c0.5,0.2,1,0.4,1.5,0.6l0.3,0.2c0.5,0.2-0.6-0.3-0.1,0
		c0.3,0.2,0.6,0.3,0.9,0.5l0.8,0.5c0.5,0.3-0.5-0.4,0,0c0.2,0.1,0.3,0.2,0.5,0.4s0.6,0.5,0.9,0.7c0.1,0.1,0.5,0.4,0.2,0.2s0,0,0,0
		l0.3,0.3c0.3,0.3,0.6,0.6,0.9,0.9l0.4,0.5c0.1,0.1,0.2,0.3,0,0c0.1,0.1,0.2,0.2,0.2,0.3c1.3,1.9,2.3,3.9,2.9,6.1
		c0.5,1.1,1.5,1.9,2.7,2.2c0.8,0.2,2,0,1.7-1.1c-2.1-7.5-7.9-13.4-15.4-15.7c-0.7-0.2-1.3-0.3-2-0.4c-1-0.2-1.4,0.8-0.9,1.6
		C442.2,344.6,443.3,345.3,444.6,345.4L444.6,345.4z"></path><path class="st2" d="M236.7,325.9c0,0-18,27.6-21,26.2s-3.3-7.8-3.3-7.8c-4.9-2.5-9.4-5.6-13.4-9.3c-7.2-6.5-11.6-15.3-9.1-19.2
		s7.7,5.7,7.7,5.7s-10.3-17.1-5.2-21s10.3,6.3,10.3,6.3s-1.4-12,3.2-11.3s8.7,17.4,8.7,17.4s-1.3-12.4,5.2-11.2s6.2,20,6.2,20
		S235.4,323.5,236.7,325.9z"></path><path class="st2" d="M234.9,324.1c-2.6,4-5.3,7.9-8,11.8c-2.1,3-4.3,5.9-6.6,8.8c-1.5,1.8-3.1,4-5.1,5.3c-0.3,0.2-0.6,0.2-0.8,0.3
		s0.1,0,0.1,0c0,0.2,1.1,0.5,1.2,1c-0.1-0.3-0.4-0.7-0.5-1c-0.5-1.4-0.8-3-0.9-4.5c-0.1-1.2-1.8-2.7-2.8-3.1c-1.8-0.9-3.5-1.9-5.2-3
		c-3.9-2.5-7.4-5.5-10.4-9c-2.2-2.8-4.5-6.2-4.9-9.8c-0.2-1.3,0-2.6,0.7-3.6c0.2-0.3,0.6-0.6,1-0.7c0.2,0,0.3,0,0.5,0.1
		c0.2,0-0.2,0,0.1,0s-0.2-0.1-0.2-0.2c0.4,0.3,0,0,0,0s0.5,0.5,0.1,0.1c0.2,0.2,0.3,0.4,0.5,0.6l0.6,0.8c0.1,0.1,0.5,0.7,0.4,0.5
		c0.4,0.6,0.8,1.3,1.2,2l3.3,1.7c-2.2-3.5-4-7.2-5.3-11.1c-0.8-2.2-1.6-5-0.9-7.3c0.6-1.9,2.5-2.9,4.4-2.3c0.3,0.1,0.5,0.2,0.8,0.3
		c-0.1,0-0.3-0.2,0.1,0.1c-0.4-0.3,0.2,0.2,0.2,0.2c-0.3-0.3,0.4,0.4,0.4,0.5s0.3,0.4,0.5,0.6l0.4,0.5c0.4,0.6,0.8,1.3,1.2,2
		c0.5,0.9,1.2,1.6,2.1,2.2c0.2,0.1,1.5,0.9,1.4,0.2c-0.2-1.6-0.2-3.1-0.2-4.7c0.1-1.8,0.1-5,1.9-6.1c0.3-0.2,0.7-0.3,1.1-0.2
		c0,0,0.5,0.1,0.1,0c0.1,0,0.3,0.2-0.1,0l-0.2-0.2c0,0-0.2-0.3-0.1,0c-0.3-0.4,0.1,0.2,0.2,0.3c0.2,0.3,0.6,1,0.9,1.5
		c1.2,2.5,2.3,5,3.1,7.7c0.5,1.7,1,3.4,1.5,5.1c0.4,1,1.1,1.8,2.1,2.4c0.2,0.1,1.7,1.1,1.6,0.4c-0.2-1.7-0.2-3.4,0-5.1
		c0.2-2.1,0.9-5.4,3.4-5.8c0.5-0.1,1.1,0,1.6,0.1c0.2,0,0.3,0.2-0.1-0.1s0.5,0.5-0.2-0.2c-0.4-0.4-0.1,0.1-0.2-0.3
		c0.1,0.3,0.4,0.5,0.6,1.1c0.3,0.6,0.5,1.2,0.7,1.9c0.9,2.9,1.4,5.9,1.5,8.9c0.1,1.8,0.2,3.6,0.2,5.4c0,1.2,2.1,3.1,3.2,3.3
		c1.3,0.3,2.6,0.6,3.9,1c1.1,0.3,2.2,0.6,3.2,1c0.4,0.2,0.8,0.4,1.2,0.5c0,0,0.6,0.2,0.3,0.2c0.2,0.2,0.2,0.1,0,0
		c-0.4-0.3-0.7-0.7-1-1.1c0.6,1,1.5,1.9,2.6,2.5c0.8,0.4,1.2,0.1,0.7-0.8c-2.8-4.5-8.8-5.9-13.6-6.8l3.2,3.3
		c0.2-5.2-0.5-10.4-2-15.3c-1.1-3.2-3.5-6.9-6.9-8c-3.2-1-5.1,1.2-5.8,4.1c-0.5,2.3-0.7,4.8-0.4,7.2l3.7,2.8
		c-1.1-4.9-2.8-9.6-5.1-14.1c-1.4-2.5-3.9-6.1-7-6.5c-2.6-0.3-3.3,2.9-3.6,4.9c-0.3,2.2-0.3,4.5,0,6.7l3.5,2.4
		c-1.2-2.3-2.7-4.4-4.6-6.3c-2.3-2.3-6.1-5.1-9.2-2.6c-2,1.7-1.5,4.9-1,7.1c0.8,3.3,2,6.4,3.6,9.4c0.9,1.8,1.8,3.6,2.9,5.4
		c0.6,1,1.5,1.9,2.6,2.5c0.8,0.4,1.2,0.1,0.7-0.8c-1.3-2.4-2.9-4.6-4.9-6.6c-1.1-1.1-2.8-2.6-4.5-2.7c-1.4,0-2.1,1.3-2.4,2.5
		c-1,4,1.8,8.6,3.9,11.7c3.4,4.9,7.7,9.2,12.6,12.7c2.9,2.3,6.1,4.3,9.4,6l-2.8-3.1c0.2,4.2,1.9,8.7,5.8,10.8
		c2.1,1.1,3.9-1.2,5.2-2.6c5.1-5.6,9.3-12,13.6-18.2c1.2-1.7,2.3-3.4,3.5-5.2C239.2,326.6,235.4,323.5,234.9,324.1z"></path><path class="st1" d="M211.9,312.3c-3.9,4.4-4.8,10.4-4.1,16.1c0,1.4,1.1,2.5,2.5,2.5c1.2,0,2.7-1.1,2.5-2.5
		c-0.2-1.3-0.2-2.5-0.2-3.8c0-0.6,0-1.3,0.1-1.9c0-0.2,0-0.4,0.1-0.5c0,0.2,0,0.2,0-0.1s0.1-0.6,0.2-0.9c0.1-0.5,0.3-1.1,0.4-1.6
		c0.1-0.3,0.2-0.5,0.3-0.8s0.1-0.3,0-0.1c0-0.1,0.1-0.2,0.1-0.3c0.2-0.5,0.5-1,0.8-1.5c0.1-0.2,0.3-0.5,0.5-0.7
		c-0.3,0.4,0.3-0.3,0.4-0.4c1-1,1-2.6,0-3.5C214.4,311.3,212.8,311.3,211.9,312.3L211.9,312.3z"></path><path class="st1" d="M321.1,322.5c0,0-10.2,46.3,3.5,91"></path><path class="st2" d="M319.5,320.7c-1.3,6.1-2.1,12.2-2.6,18.4c-1.4,14.5-1.3,29.2,0.3,43.7c1.1,9.9,3.1,19.6,6,29.1
		c0.5,1.1,1.2,2,2.1,2.7c0.3,0.2,1.4,1.2,1.1,0.2c-5-16.2-7-33.3-7.1-50.3c-0.1-11.5,0.8-23,2.5-34.3c0.3-2.1,0.7-4.1,1.1-6.2
		c0.2-0.7-1.3-2.1-1.8-2.5C320.9,321.5,319.6,320.2,319.5,320.7L319.5,320.7z"></path><path class="st1" d="M282.1,447.5c0.2-1.4,5.6-23.2,5.6-23.2l88.2-11.9l9.8,31.8"></path><path class="st2" d="M284.6,447.5c0.5-2.8,1.3-5.6,2-8.4c1-4,2-8,3-12.1c0.2-0.9,0.5-1.8,0.7-2.7l-2.1,1.7l8.8-1.2l21.1-2.9
		l25.4-3.4l22.1-3c3.5-0.5,7.2-0.7,10.8-1.5h0.1l-2.8-1.1l8.6,27.8l1.2,3.9c0.7,2.2,5.5,1,4.9-1l-8.6-27.8l-1.2-3.9
		c-0.4-1.2-1.8-1.2-2.8-1.1l-8.8,1.2l-21.1,2.9l-25.4,3.4l-22.1,3c-3.6,0.5-7.2,0.8-10.7,1.5h-0.2c-1,0.1-1.8,0.8-2.1,1.7
		c-1.6,6.6-3.3,13.2-4.9,19.8c-0.3,1.1-0.6,2.3-0.8,3.4C279.3,450,284.2,449.5,284.6,447.5L284.6,447.5z"></path><path class="st0" d="M327.2,348.5c5.7-1.3,11.4-2.7,17.1-4.1c0.9-0.2,2.3-1.3,2.2-2.3s-1.6-1-2.4-0.8c-5.3,1.3-10.6,2.6-15.9,3.9
		c-1.1,0.2-2.4,0.9-2.8,2.1S326.3,348.7,327.2,348.5z"></path><path class="st0" d="M367.8,322.7c-3.7,0.9-6.9,3.5-8.5,7c-0.1,0.4,0.3,0.9,0.5,1.2c0.5,0.7,1,1.4,1.6,2l5.8,6.1c0,0,1,1,1.1,0.7
		c2.2-3.7,6-7.3,10.4-8c0.3,0-0.8-1.7-0.8-1.7c-0.5-0.8-1.2-1.5-1.9-2.1l-7.7-5.1c-0.9-0.6-0.1,0.9,0,1.1c0.6,1,1.3,1.9,2.3,2.6
		l7.7,5.1l-2.7-3.8c-4.4,0.8-8.2,4.3-10.4,8l1.1,0.7l-5.8-6.1l2,3.2c1.6-3.5,4.7-6.1,8.5-7c0.4-0.1-1.1-2.1-1.2-2.2
		C369.4,323.9,368.4,322.5,367.8,322.7z"></path><path class="st1" d="M305.1,307.3c0,0,3.6-5,17.3-8s22.2,2,22.2,2s-3.4,17-18.1,18.3S305.1,307.3,305.1,307.3z"></path><path class="st2" d="M307.3,307.6c0.1-0.2,0.3-0.3,0.4-0.5c0.2-0.2,0.4-0.4,0.5-0.5l0.3-0.3c0.4-0.3-0.1,0.1,0.3-0.2
		c2.1-1.5,4.4-2.7,6.8-3.6c7.2-2.7,15.3-3.9,22.8-1.8c0.6,0.2,1.2,0.4,1.8,0.6l0.8,0.3c0.1,0,0.7,0.3,0.3,0.1
		c0.4,0.2,0.8,0.4,1.1,0.6l-0.4-0.9c-1.1,5.4-3.9,10.2-8,13.9c-7,5.8-16.7,3.2-22.6-2.9c-1.7-1.7-3.1-3.6-4.2-5.6
		c-0.7-1.3-5.5-0.4-4.7,1.2c3.2,6.2,9,10.7,15.7,12.4c5.9,1.4,12.1,0.6,17.4-2.4c3.7-2.3,6.8-5.7,8.7-9.6c1.2-2.2,2-4.5,2.5-6.9
		c0.1-0.3-0.1-0.7-0.4-0.9c-4.5-2.6-10.5-3.4-15.6-3.3c-5.3,0.1-10.5,1-15.5,2.7c-3.4,1-6.6,2.5-9.6,4.4c-1.2,0.7-2.2,1.6-3.1,2.7
		C301.6,308.7,306.5,308.8,307.3,307.6z"></path><path class="st0" d="M292,333.2c0.5,0.1-0.2-0.1-0.2-0.1c0.4,0.1,0,0-0.2-0.1c-0.4-0.2,0.1,0.1-0.1,0l-0.4-0.4c0,0-0.5-0.5-0.2-0.2
		l-0.4-0.5c-0.2-0.3-0.4-0.6-0.6-0.9c0.2,0.3-0.1-0.3-0.1-0.3c-0.1-0.2-0.2-0.5-0.3-0.7c-0.2-0.4-0.3-0.8-0.5-1.2
		c-0.3-0.8-0.4-1.6-0.4-2.4c0-1.5,0.8-3,2-3.9c0.6-0.4,1.2-0.7,1.9-0.8c0.3-0.1,0.7-0.1,1.1,0c0,0,0.7,0.2,0.4,0.1
		c0.2,0.1,0.5,0.2,0.7,0.3c0.9,0.4,2.4,0.1,2.6-1s-1-2.2-2-2.6c-2.6-1.1-5.6-0.9-8,0.7c-2,1.4-3.2,3.6-3.2,6
		c0.1,2.7,0.9,5.3,2.4,7.5c1.4,2.3,3.7,4,6.4,4.6c0.8,0.2,1.7-0.2,1.9-1c0.1-0.2,0.1-0.4,0.1-0.6C294.4,334.4,293.3,333.5,292,333.2
		L292,333.2z"></path><path class="st0" d="M287.4,405.8c0,0-9.1,12.4-0.3,23.2s76.6,6.8,94.9-10c0,0,5.9-13.4-1.3-21.2
		C380.6,397.9,330.5,422.7,287.4,405.8z"></path><path class="st0" d="M285.4,404.3c-2.5,3.5-3.9,7.6-4.2,11.8c-0.4,6.1,2.6,12,7.7,15.5c3.1,1.8,6.6,3.1,10.1,3.6
		c4.6,0.8,9.2,1.3,13.8,1.4c11.5,0.3,23-0.4,34.4-2.4c10.3-1.7,21-4.1,30.3-9.2c1.8-0.9,3.5-2,5.1-3.3c0.6-0.4,1-0.8,1.5-1.3
		c0.3-0.5,0.5-1.1,0.6-1.6c1.7-5.2,2.6-11.2,0.3-16.3c-0.7-1.6-1.7-3.1-2.9-4.3c-0.4-0.5-2.3-2.3-3.2-1.9c-6.2,3-12.7,5.4-19.4,7.3
		c-14.4,4.4-29.5,7-44.5,6.4c-9.8-0.3-19.5-2.2-28.7-5.7c-0.9-0.3-1.2,0.2-0.7,0.9c0.7,1,1.7,1.7,2.8,2.2
		c16.1,6.2,33.7,7.1,50.6,4.8c12.6-1.7,24.9-5,36.7-9.7c2.2-0.9,4.5-1.8,6.7-2.9l-3.2-1.9c3.9,4.3,3.4,11,2,16.1
		c-0.2,1.3-0.6,2.5-1.2,3.7c-0.5,0.6-1.1,1.1-1.8,1.5c-0.8,0.6-1.5,1.1-2.4,1.6c-8.1,5.1-18,7.5-27.2,9.4
		c-10.8,2.2-21.9,3.3-32.9,3.4c-4.8,0.1-9.6-0.2-14.4-0.7c-3.6-0.3-7.1-1.1-10.5-2.2c-0.3-0.1-0.6-0.2-1-0.4
		c0.5,0.2-0.4-0.2-0.6-0.3l-0.4-0.2c0.5,0.2,0.1,0.2,0.1,0c-0.1-0.1-0.2-0.2-0.4-0.2c0,0,0.5,0.4,0.1,0s0.4,0.4,0.1,0.1
		c-0.1-0.1-0.4-0.4-0.1-0.1s0,0-0.1-0.1c-0.3-0.4-0.5-0.7-0.8-1.1c-1.1-1.6-1.8-3.3-2.2-5.1c-1.1-5.2,0.5-10.6,3.2-15
		c0.2-0.3,0.3-0.5,0.5-0.8C290,406.4,286,403.4,285.4,404.3z"></path><path class="st2" d="M296.2,283.7c0,0-10.7-23.7,9.4-33.8s48.7,4.5,52.4,31.2s-29.5,31.6-29.5,31.6L296.2,283.7z"></path><path class="st2" d="M297.3,284.5C297.1,284,297.5,285,297.3,284.5c-0.2-0.6-0.4-1.1-0.6-1.6c-0.6-1.6-1-3.3-1.3-5
		c-1.1-4.9-0.8-9.9,0.8-14.6c4.6-12.3,19.9-16.2,31.7-13.8c12.3,2.6,23.3,11.3,27.2,23.2c1.9,5.9,2.5,12.5,0.4,18.5
		c-1.8,4.7-5,8.7-9.1,11.5c-3.5,2.5-7.4,4.5-11.5,5.8c-1.5,0.5-3.1,1-4.6,1.4c-0.9,0.2-1.8,0.3-2.7,0.6c-0.1,0-0.3,0-0.4,0.1
		l0.4,0.1l-10.9-9.9l-17.3-15.6l-4-3.6c-0.8-0.7-0.2,1-0.1,1.1c0.5,1.1,1.2,2,2,2.8l25.9,23.4l5.3,4.8c0.6,0.5,1,1.1,1.8,1
		c4.4-0.8,8.6-2.1,12.6-4.1c6.2-2.9,11.8-7.4,14.7-13.7c4-8.6,1.8-18.9-2.1-27c-4.3-9.1-11.4-16.6-20.3-21.3
		c-7.9-4-17.2-5.3-25.8-2.9c-4.6,1.2-8.8,3.8-12.1,7.3c-2.7,3.1-4.4,6.9-4.9,10.9c-0.7,5.9,0.1,11.9,2.3,17.5
		c0.2,0.5,0.4,0.9,0.6,1.4c0.4,0.8,1.1,2.4,2,2.8S297.5,285,297.3,284.5z"></path><path class="st1" d="M298.7,305.5c-8.5-8.9-4.1-42.5-4.1-42.5c4.8-8.8,34.2-4.8,34.2-4.8c-3.4,8.7-0.9,22.7-0.9,22.7
		c2.8-7.8,12.2-4.9,12.3,2.6s-8.7,10.1-8.7,10.1s3.8,15.8,3.3,18.8s-14.5,7.9-22.7-0.2C312.2,312.2,306.1,313.3,298.7,305.5z"></path><path class="st2" d="M298.2,303.8c0.4,0.4-0.6-0.7-0.1-0.1c-0.1-0.1-0.2-0.2-0.2-0.3c0.3,0.5,0.1,0.2,0,0.1
		c-0.4-0.6,0.1,0.2-0.3-0.5l-0.2-0.4c0.2,0.4-0.1-0.2-0.1-0.2c-0.5-1.2-0.9-2.5-1.2-3.8c-0.7-3.2-1.1-6.5-1.2-9.8
		c-0.3-6.2-0.1-12.4,0.5-18.6c0.1-1.6,0.2-3.2,0.5-4.7s1.9-2.5,3.1-3.1c5.2-2.8,12-2.8,17.7-2.8c4.4,0,8.8,0.3,13.1,0.9l-2.5-4.1
		c-1.7,4.7-1.9,9.8-1.7,14.8c0.1,2.8,0.4,5.5,0.8,8.2c0.2,1,0.7,2,1.4,2.8c0.2,0.2,1.2,1.5,1.4,0.9c0.7-2.2,2.5-3.9,4.7-4.4
		c1-0.1,1.9,0,2.8,0.3c0.5,0.2,0.9,0.4,1.3,0.7c0.1,0.1,0.3,0.2,0.4,0.4c0.3,0.2,0.2,0.2,0.2,0.2s-0.2-0.3-0.2-0.3
		c0.1,0.2,0.1,0.3,0.2,0.5c0.1,0.6,0.2,1.2,0.2,1.8c0,1.3-0.3,2.5-0.9,3.6c-1,1.8-2.6,3.4-4.4,4.4c-1,0.6-2.1,1.1-3.3,1.5
		c-0.2,0.1,0,0.8,0,0.9c0.7,2.8,1.3,5.6,1.9,8.4c0.4,2.1,0.8,4.2,1.1,6.4c0.1,1.1,0.6,2.7,0.1,3.7c-0.6,1.2-2.3,1.9-3.4,2.3
		c-2,0.8-4.1,1.2-6.3,1.4c-2.6,0.1-5.1-0.3-7.5-1.2c-1.2-0.5-2.4-1.2-3.4-2c-0.6-0.5-1.1-1.2-1.9-1.2c-1.4,0-2.8-0.3-4.2-0.7
		C303.4,308.2,300.5,306.3,298.2,303.8c-0.6-0.7-1-0.4-0.8,0.4c0.3,1.1,1,2.2,1.8,3c2.8,2.9,6.1,5.5,10,6.7c1.4,0.5,2.8,0.6,4.3,0.5
		l-0.8-0.4c5.8,5.3,14.3,6.5,21.3,2.8c0.9-0.4,1.7-1.1,2.1-2c0.2-0.9,0.2-1.9,0-2.8c-0.4-3.3-1-6.6-1.7-9.8c-0.5-2.4-1-4.8-1.6-7.2
		v0.9c3.6-1.1,7.2-3.8,8.4-7.4c1.1-3.2,0.1-6.6-1.6-9.4c-1.4-2.3-3.6-4.6-6.5-4.9c-3.2-0.3-5.5,1.9-6.6,4.8l2.8,3.7
		c-0.4-2.6-0.7-5.3-0.8-7.9c-0.2-4.8,0-9.9,1.7-14.5c0.4-1-1.5-4-2.5-4.1c-3.9-0.5-7.9-0.8-11.9-0.9c-3.3-0.1-6.6,0-9.9,0.3
		c-3,0.2-6,0.9-8.8,2.1c-1.5,0.7-3.5,1.9-3.9,3.6c-0.3,1.5-0.4,3.1-0.5,4.6c-0.6,6.5-0.8,13.1-0.5,19.6c0.4,7.6,1.6,16,7,21.8
		c0.6,0.7,1,0.3,0.8-0.5C299.6,305.6,299,304.6,298.2,303.8z"></path><path class="st1" d="M300.1,291.6c0,0-18.1,2.6-21.7-6.6s9.4-13.6,19.9-5.9"></path><path class="st2" d="M299,289.4c-0.4,0.1-0.9,0.1-1.3,0.1l-0.7,0.1c0.5,0-0.2,0-0.4,0c-0.7,0-1.3,0.1-2,0.1c-1.5,0-3.1,0-4.6-0.2
		c-1.6-0.1-3.1-0.4-4.6-0.9c-0.7-0.2-1.5-0.5-2.2-0.8c-0.6-0.3,0.4,0.2-0.2-0.1c-0.2-0.1-0.4-0.2-0.5-0.3l-0.4-0.3
		c-0.1-0.1-0.7-0.5-0.2-0.2c-0.3-0.2-0.6-0.5-0.9-0.8c-0.5-0.4,0.2,0.3,0,0l-0.3-0.4c-0.1-0.1-0.4-0.7-0.1-0.1
		c-0.1-0.2-0.2-0.4-0.3-0.5c-0.2-0.3-0.3-0.7-0.4-1c-0.4-1.3-0.2-2.7,0.6-3.8c0.9-1.2,2.2-2.1,3.6-2.5c4.7-1.5,9.9,0.2,13.7,3
		c0.6,0.5,1.5,0.5,2-0.1c0.1-0.2,0.2-0.3,0.3-0.5c0.1-1.2-0.5-2.4-1.6-3.1c-4.3-3.1-9.9-5-15.3-4c-4.1,0.8-7.5,3.6-7.6,8
		s3,8.5,6.8,10.5c3.5,1.7,7.4,2.6,11.4,2.6c2.4,0.1,4.9,0,7.3-0.3c1.2-0.2,0.9-1.9,0.6-2.6C301.4,290.1,300.3,289.4,299,289.4
		L299,289.4z"></path><path class="st2" d="M315.3,288.8l0.1,0.3L315.3,288.8c0.2,0.6,0.2,1.2,0,1.9l0.1-0.4c-0.1,0.4-0.3,0.8-0.5,1.2l0.2-0.4
		c-0.2,0.3-0.4,0.5-0.7,0.8l0.4-0.3c-0.1,0.1-0.2,0.2-0.4,0.3l-0.2,0.1l-0.1,0.1l0.4-0.2c-0.2,0.1-0.4,0.2-0.5,0.2l-0.3,0.1
		c-0.3,0.1,0.4-0.1,0.4-0.1l-0.2,0c-0.2,0.1-0.5,0.1-0.7,0.1l-0.4,0h-0.2c0,0,0.8-0.1,0.4,0c-0.6,0-1.3,0-1.9,0
		c-0.6,0-1.2,0.2-1.8,0.5c-0.4,0.2-0.7,0.6-0.7,1.1c0.1,1.2,1.6,1.5,2.5,1.5c1.7,0.1,3.5-0.1,5.2-0.6c1.1-0.3,2.1-1,2.9-1.9
		c0.9-1.1,1.3-2.5,1.1-3.9c-0.1-0.4-0.1-0.8-0.3-1.1c-0.3-0.4-0.7-0.8-1.2-0.9c-0.6-0.2-1.3-0.2-1.9-0.1
		C316.1,287.1,314.9,287.7,315.3,288.8L315.3,288.8z"></path><path class="st2" d="M304.6,272.3c0,0,1.7,0.5,1.1,2s-2.5,0.8-2.5-0.6c-0.1-0.7,0.4-1.3,1.1-1.3
		C304.5,272.3,304.6,272.3,304.6,272.3z"></path><path class="st2" d="M315.9,272.6c0,0,1.7,0.5,1.1,2s-2.5,0.8-2.5-0.6c-0.1-0.7,0.4-1.3,1.1-1.3
		C315.7,272.6,315.8,272.6,315.9,272.6z"></path><path class="st1" d="M302.5,316.8l3.9-4.7c0,0,2.9,3.2,16.8,2.6c17.4-0.8,24-10.7,25.2-9.6s2.8,4.5,2.8,4.5s-11.6,18.2-26,21.3
		S302.5,316.8,302.5,316.8z"></path><path class="st2" d="M304.7,317.8l3.9-4.7l-4.2-0.5c1.3,1.2,2.9,2,4.6,2.4c4.5,1.4,9.5,1.4,14.1,1.3c8.9-0.1,17.6-3.1,24.6-8.5
		c0.4-0.3,0.8-0.6,1.2-0.9c0.2-0.1,0.4-0.2,0.5-0.3c0.4-0.3-0.4,0.1,0,0c-0.5,0.1-1.1,0.1-1.6,0c-0.5-0.1-0.9-0.3-1.3-0.7
		c0.1,0.1,0.2,0.2,0.3,0.4c0.3,0.4,0.6,0.9,0.9,1.4c0.4,0.7,0.8,1.5,1.2,2.2l0.1-1.2c-4,6.4-9.2,11.9-15.4,16.3
		c-4.2,2.9-9.4,5.5-14.5,4.7c-2-0.4-3.8-1.2-5.4-2.3c-1.7-1.2-3.3-2.6-4.6-4.2c-1.8-1.9-3.2-4.1-4.4-6.5c-0.8-1.6-5.7-2-4.6,0.3
		c3,6,7.8,10.9,13.8,13.9c5,2.3,10.6,2.6,15.8,0.7c5.1-2,9.8-5,13.7-8.9c3.1-2.9,5.9-6.1,8.4-9.6c0.6-0.8,1.1-1.5,1.6-2.3
		c0.7-1.2-0.8-3.1-1.4-4.2c-1.2-1.9-3-3.7-5.5-3c-0.9,0.4-1.8,0.9-2.6,1.6c-3,2.4-6.4,4.3-10,5.7c-6,2.1-12.4,2.8-18.8,2.2
		c-1.2-0.1-2.4-0.2-3.6-0.4h0.1l-0.3-0.1l-0.6-0.1c-0.4-0.1-0.8-0.2-1.2-0.3l-0.5-0.2c0.3,0.1,0.4,0.2,0.1,0l-0.8-0.3
		c-0.6-0.3,0.3,0.2,0,0c-0.1-0.1-0.2-0.2-0.3-0.2c-0.3-0.1,0.5,0.5,0.2,0.1c-0.9-0.9-3.2-1.6-4.2-0.5l-3.9,4.7
		C298.9,317.4,303.5,319.2,304.7,317.8z"></path><path class="st1" d="M372.9,314l13.6,1.8c1.1,0.1,2.6-0.2,2.8-1.5s-1-2.3-2.1-2.4l-13.6-1.8c-1.1-0.1-2.6,0.2-2.8,1.5
		S371.8,313.9,372.9,314z"></path><path class="st1" d="M382.3,323.2l9.5,1.5c0.6,0.1,1.2,0.1,1.8,0.1c0.2,0,0.8-0.1,0.8-0.4c0.1-0.8-1.9-1.2-2.3-1.3l-9.5-1.5
		c-0.6-0.1-1.2-0.1-1.8-0.1c-0.2,0-0.8,0.1-0.8,0.4C379.9,322.7,381.9,323.1,382.3,323.2z"></path><path class="st2" d="M313.7,313.3l-1.6,10.3c0,1.1,0.4,2.1,1.2,2.9c0.1,0.2,1.6,1.8,1.8,1l1.6-10.2c0-1.1-0.4-2.1-1.1-2.9
		C315.3,314.1,313.8,312.4,313.7,313.3L313.7,313.3z"></path><path class="st2" d="M323.5,314.9c0,4.1,0.6,8.2,1.8,12.1c0.2,0.5,0.6,0.9,1.1,1.2c0.5,0.4,1.1,0.6,1.8,0.7
		c0.9,0.1,1.9-0.2,1.6-1.3c-1-3.7-1.6-7.5-1.6-11.3C328.1,314.6,323.4,312.9,323.5,314.9L323.5,314.9z"></path><path class="st2" d="M334.5,311.8c0.3,2.3,0.9,4.6,1.8,6.8c0.2,0.4,0.6,0.6,1,0.8c0.6,0.3,1.2,0.5,1.8,0.7c0.3,0.1,2.3,0.5,2-0.4
		c-0.9-2.2-1.5-4.4-1.8-6.8c0-0.3-0.8-0.7-0.9-0.8c-0.6-0.3-1.2-0.5-1.8-0.7c-0.5-0.2-1-0.2-1.5-0.1
		C334.7,311.4,334.5,311.4,334.5,311.8L334.5,311.8z"></path><path class="st2" d="M289.5,355.4l-2.6,19.4c-0.4,3.1-0.8,6.2-1.3,9.3c-0.4,2.4-1,4.9-3,6.4c-0.4,0.3,1.7,0.2,1.8,0.2
		c1.1-0.1,2.1-0.4,3-0.9c1.9-1.4,2.6-3.7,3-5.9c0.6-3.1,0.9-6.4,1.3-9.5l2.7-19.9C294.4,354.4,289.6,354.4,289.5,355.4L289.5,355.4z
		"></path></g></svg>