<svg transform="scale(1)" version="1.1" id="xexacNzo4o" xmlns="http://www.w3.org/2000/svg" xmlns:xlink="http://www.w3.org/1999/xlink" x="0px" y="0px" viewBox="0 0 500 500" xml:space="preserve" class="pbimage_pbimage__wrapper__image__0LEis false"><title>Website Design</title><style type="text/css"> .st0{fill:#FFFFFF;} .st1{fill:#59BE4C;} .st2{fill:#000005;}
 .st2{fill:#000005;}
 .st1{fill:#59BE4C;}
 .st0{fill:#FFFFFF;}</style><g id="screen"><path class="st0" d="M43.9,151c0,0,0.8,233.5,4.2,243.5S251.7,304.8,257.5,294s-4.2-213.6-13.3-216.9S50.9,141,43.9,151z" fill="#FFFFFF"></path><path class="st1" d="M41.5,151.7c0,6.7,0,13.4,0.1,20.1c0.1,16.5,0.2,33,0.3,49.5c0.2,21,0.4,42,0.6,63c0.2,20,0.5,40,0.9,60
		c0.3,13.9,0.5,27.8,1.3,41.7c0.2,2.8,0,6.1,0.8,8.9c0.7,2.4,4.7,1.5,6.4,1.2c4.8-1,9.5-2.5,14-4.2c6.7-2.5,13.4-5.2,20-8
		c17.7-7.6,35.2-15.7,52.6-24c19.1-9.1,38-18.5,56.7-28.2c15.3-7.9,30.5-15.9,45.4-24.5c4.7-2.7,9.4-5.5,13.9-8.6
		c1.9-1.3,4.8-3,5.6-5.3c1.1-3.3,1-7.2,1.2-10.7c0.3-6.6,0.3-13.2,0.3-19.8c-0.1-19.2-0.8-38.4-1.6-57.6c-1-21.4-2.2-42.7-3.9-64
		c-1.3-16.5-2.6-33-5.2-49.3c-0.7-4.3-1.3-8.8-2.9-12.9c-0.3-1-0.8-1.8-1.6-2.5c-1.1-0.7-2.9-0.5-4.2-0.3c-4.5,0.6-9,1.6-13.3,3
		c-7.2,2-14.3,4.2-21.4,6.6c-19.1,6.2-38.1,12.9-57,19.7c-19.9,7.2-39.7,14.7-59.3,22.4c-14,5.6-28.2,11.1-41.7,18.1
		c-1.8,0.9-3.6,1.9-5.3,3c-1,0.6-1.9,1.3-2.7,2.2c-1.1,1.5,3.7,1,4.4-0.1c0.1-0.1,0.2-0.3,0.4-0.4c0.4-0.5-0.2,0.1,0.3-0.3
		s1.1-0.8,1.7-1.2l0.5-0.3l0.1-0.1l1.3-0.8c1-0.6,2-1.1,3-1.6c5.7-2.9,11.6-5.5,17-7.8c17.5-7.5,35.3-14.4,53.1-21.1
		c19.9-7.5,39.8-14.8,59.9-21.7c8.8-3.1,17.7-6,26.6-8.9c6.8-2.2,13-4.1,20.1-6.1c2.4-0.7,4.9-1.3,7.3-1.9l1.4-0.3
		c0.6-0.1-0.6,0.1,0.1,0l0.7-0.1c0.7-0.1,1.4-0.2,2.1-0.3c-1,0.1,0,0,0.2,0c0.6,0-0.5,0,0.2,0c0.3,0-0.2,0-0.2,0s0.1,0,0.1,0.1
		s-0.3-0.3-0.1,0c0.1,0.1,0.1,0.1,0.2,0.2c0.1,0.1,0.1,0.2,0.2,0.3c0.1,0.2,0.3,0.5,0.4,0.7c0.3,0.6,0.5,1.2,0.7,1.8
		c1.3,4.6,2.3,9.3,2.8,14c1.1,7.4,1.9,14.8,2.7,22.2c2,19.8,3.4,39.7,4.5,59.5c1.2,20.7,2.2,41.5,2.7,62.2
		c0.4,15.1,0.9,30.3,0.1,45.4c-0.2,3.2-0.2,6.6-1.2,9.6c-0.1,0.2-0.1,0.3-0.2,0.4c0.3-0.5-0.1,0.1-0.2,0.2l-0.4,0.5l-0.3,0.3
		c-0.4,0.4,0.3-0.2-0.1,0.1c-1.3,1.1-2.6,2-4,3c-4.8,3.2-8.9,5.6-13.9,8.5c-6.8,3.9-13.6,7.7-20.5,11.4
		c-17.4,9.3-34.9,18.3-52.6,27.1c-18.5,9.2-37.1,18.1-55.9,26.7c-14.3,6.5-28.5,13-43.4,18.4c-1.2,0.5-2.5,0.9-3.8,1.3l-1.7,0.6
		l-0.8,0.3l-0.4,0.1c-0.9,0.3-1.9,0.5-2.8,0.8l-1.2,0.3c-0.7,0.1,0,0,0,0l-0.6,0.1c-0.3,0.1-0.6,0.1-1,0.1c0.9-0.1-0.2-0.1-0.3,0
		s-1.1,0.1,0.2,0c-0.1,0-0.2,0-0.3,0c-0.2,0-0.4,0.1,0.1,0c0,0-0.2,0-0.3-0.1c-0.2-0.2,0.1,0.3-0.1-0.1s0.1,0.3-0.1-0.1
		c-0.1-0.3-0.2-0.7-0.2-1c-0.5-3.4-0.7-6.8-0.8-10.2c-0.3-6.1-0.5-12.2-0.7-18.3c-0.5-17.8-0.8-35.5-1.1-53.3
		c-0.3-21-0.6-42.1-0.7-63.1c-0.2-19-0.3-38.1-0.4-57.1c-0.1-11.8-0.1-23.6-0.2-35.4c0-1.6,0-3.3,0-4.9
		C46.3,149.3,41.5,150.1,41.5,151.7z" fill="#59BE4C"></path><path class="st1" d="M250.3,102L54.9,184.1c0,0-3.1-25.7-1.8-30S242.4,74.5,246,75.7S250.3,102,250.3,102z" fill="#59BE4C"></path><path class="st1" d="M249,99.9l-5.2,2.2l-14.2,6l-21,8.8l-25.7,10.8l-28.1,11.8l-28.3,11.9L100,162.5l-22.4,9.4l-16.1,6.7
		c-2.5,1.1-5.2,2-7.6,3.2l-0.3,0.1l3,3.1c-0.5-4.1-0.9-8.2-1.3-12.3c-0.3-3.2-0.6-6.5-0.7-9.8c-0.1-1.4-0.1-2.7-0.1-4.1
		c0-0.9,0-1.8,0.1-2.6c0-0.1,0-0.3,0.1-0.4c0-0.3,0.2-0.3,0,0.1c0,0,0.1-0.1,0.1-0.1c-0.1,0.4-0.2,0.2,0.1-0.1s1-0.6,1.5-0.9
		c1.8-1,3.7-1.9,5.6-2.8c6.7-3.2,13.4-6.1,20.2-9c9.6-4.1,19.3-8.2,29-12.2c11.2-4.7,22.4-9.3,33.7-13.8
		c11.4-4.6,22.8-9.2,34.2-13.7c10.4-4.1,20.8-8.2,31.1-12.2c7.9-3.1,15.9-6.1,23.8-9c2.6-1,5.2-1.9,7.9-2.8l1.5-0.5l0.3-0.1
		c0.4-0.1-0.1,0,0,0l0.6-0.2c0.6-0.2,1.2-0.4,1.8-0.5c0.2,0,0.4-0.1,0.6-0.1c0.3-0.1,0.2,0.1-0.1,0c-0.4-0.1-0.7-0.4-0.9-0.8
		c0.3,0.5,0,0.1,0,0c0.1,0.2,0.2,0.5,0.3,0.7c-0.2-0.5,0,0,0.1,0.2s0.1,0.5,0.2,0.8c0.2,0.6,0.3,1.2,0.4,1.8
		c1,5.6,1.5,11.2,1.7,16.9c0,1.2,0.1,2.3,0.1,3.5c0.1,1.2,0.8,2.4,1.9,3c0.9,0.5,1.6,0.1,1.5-1c-0.1-4.1-0.3-8.2-0.7-12.3
		c-0.3-3.2-0.7-6.3-1.3-9.4c-0.5-2.3-1.2-4.8-2.8-6.6c-1.4-1.6-2.5-1.4-4.2-0.9c-2.1,0.6-4.1,1.3-6.1,2c-7,2.4-14,5.1-20.9,7.7
		c-9.9,3.8-19.8,7.6-29.7,11.5c-11.5,4.5-22.9,9.1-34.3,13.7c-11.6,4.7-23.3,9.4-34.9,14.2c-10.4,4.3-20.7,8.6-31,12.9
		c-7.7,3.3-15.5,6.6-23.1,10c-2.4,1.1-4.9,2.2-7.2,3.4c-1.3,0.6-2.5,1.3-3.7,2.1c-0.5,0.5-0.9,1.1-0.9,1.9c-0.2,2.5-0.2,5,0,7.5
		c0.3,6.2,0.9,12.4,1.6,18.6c0.1,1.2,0.3,2.4,0.4,3.6s1.5,3.8,3,3.1l5.2-2.2l14.3-6l21-8.8l25.7-10.8l28.1-11.8l28.3-11.9l26.4-11.1
		l22.4-9.4l16.1-6.7c2.5-1.1,5.2-2,7.6-3.2l0.3-0.1C253.2,103.5,250.7,99.2,249,99.9z" fill="#59BE4C"></path><path class="st2" d="M66.3,161.5c-1.2-0.8-2.9-0.7-4,0.3c-1.4,1.2-2.8,3.2-0.5,5.6C64.9,170.4,69.6,163.9,66.3,161.5z" fill="#000005"></path><path class="st2" d="M67.4,160.8c-0.9-0.6-1.9-1-3-1.2c-0.8-0.2-1.6-0.2-2.3,0c-1.1,0.3-2,0.9-2.7,1.8c-0.6,0.7-1,1.5-1.1,2.4
		c0,1.2,0.5,2.4,1.4,3.3c1.7,1.9,4.6,3.2,7.1,2.1c1.3-0.6,2.2-1.7,2.7-3c0.3-0.7,0.4-1.6,0.2-2.4c-0.3-1.1-0.9-2.1-1.8-2.7
		c-0.5-0.4-1.1-0.7-1.7-0.9c-0.5-0.2-1-0.3-1.6-0.2c-0.3,0.1-0.7,0.3-0.6,0.7c0.1,0.4,0.4,0.8,0.7,1.1l0.2,0.1
		c0.3,0.2-0.4-0.4-0.2-0.2l0.2,0.3c-0.4-0.4-0.2-0.3-0.1-0.1c0,0,0.1,0.1,0.1,0.1c0.1,0.1,0.1,0.2,0.2,0.4l-0.1-0.4
		c0.1,0.5,0.2,1,0.1,1.5v-0.3c-0.2,0.9-0.6,1.8-1.2,2.5l0.2-0.2c-0.4,0.5-0.9,0.8-1.5,1.1l0.3-0.1c-0.1,0.1-0.3,0.1-0.4,0.1h-0.2
		h-0.1c0,0,0.5,0,0.3,0h-0.2c-0.3,0,0.6,0.1,0.3,0h-0.1c-0.2,0,0.7,0.2,0.4,0.1h-0.1c-0.3-0.1,0.7,0.3,0.4,0.2H63
		c-0.2-0.1-0.4-0.3,0.4,0.2l-0.2-0.1c-0.2-0.1,0.5,0.4,0.3,0.3l-0.1-0.1l-0.1-0.1c-0.2-0.2,0.3,0.4,0.2,0.2s-0.2-0.2-0.3-0.4
		l-0.1-0.2c0.3,0.3,0.2,0.2,0.1,0.1c-0.1-0.2-0.3-0.5-0.3-0.7l0.1,0.4c-0.1-0.4-0.2-0.8-0.1-1.2v0.3c0.2-0.8,0.5-1.4,1.1-2l-0.2,0.2
		c0.4-0.5,1-0.9,1.6-1.2l-0.3,0.1c0.2-0.1,0.4-0.2,0.7-0.2h0.2c0.2,0,0.1,0-0.2,0c0.1,0,0.2,0,0.3,0c0.3,0-0.6-0.1-0.1,0
		s-0.7-0.2-0.2,0s-0.7-0.3-0.2-0.1c-0.5-0.3-0.6-0.3-0.4-0.2l0.1,0.1c0.5,0.4,1.2,0.6,1.8,0.7c0.3,0.1,1,0.1,1.3-0.1
		C69.2,162.1,67.8,161.1,67.4,160.8z" fill="#000005"></path><path class="st2" d="M81.7,156.5c-1.2-0.8-2.9-0.7-4,0.3c-1.4,1.2-2.8,3.2-0.5,5.5C80.3,165.5,85,159,81.7,156.5z" fill="#000005"></path><path class="st2" d="M83.5,155c-1.4-1-3.2-1.3-4.9-0.9c-1.4,0.4-2.7,1.3-3.7,2.4c-0.8,0.9-1.3,1.9-1.4,3.1
		c-0.1,1.4,0.4,2.8,1.4,3.7c0.7,0.9,1.8,1.5,2.9,1.7c1.2,0.2,2.4,0,3.5-0.5c1.7-0.8,3-2.2,3.6-4c0.4-1,0.5-2,0.3-3
		C84.9,156.5,84.4,155.6,83.5,155c-0.5-0.4-1.1-0.5-1.7-0.5c-0.7,0-1.3,0.3-1.8,0.7c-0.5,0.3-0.8,0.9-0.8,1.4c0,0.5,0.2,1.1,0.6,1.4
		c0.2,0.1,0.3,0.2,0.4,0.4l-0.4-0.4c0.2,0.2,0.4,0.5,0.5,0.7l-0.2-0.5c0.1,0.3,0.2,0.7,0.2,1v-0.5c0,0.4,0,0.8-0.1,1.2l0.1-0.5
		c-0.1,0.4-0.3,0.9-0.5,1.3l0.3-0.5c-0.2,0.4-0.5,0.7-0.8,1l0.4-0.4c-0.2,0.2-0.5,0.4-0.8,0.6l0.5-0.3c-0.2,0.1-0.4,0.3-0.7,0.3
		l0.6-0.2c-0.2,0.1-0.4,0.1-0.6,0.1l0.7-0.1c-0.2,0-0.4,0-0.5,0h0.6c-0.2,0-0.4,0-0.5-0.1l0.6,0.2c-0.2-0.1-0.4-0.2-0.6-0.3l0.5,0.3
		c-0.3-0.2-0.6-0.4-0.8-0.7l0.4,0.4c-0.3-0.3-0.5-0.7-0.7-1.1l0.2,0.5c-0.1-0.3-0.2-0.6-0.2-0.9v0.5c0-0.3,0-0.6,0.1-0.9l-0.1,0.5
		c0.1-0.3,0.2-0.6,0.4-0.9l-0.3,0.5c0.2-0.4,0.5-0.7,0.8-1l-0.4,0.4c0.3-0.3,0.6-0.5,0.9-0.7l-0.5,0.3c0.2-0.1,0.4-0.2,0.6-0.3
		l-0.6,0.2c0.2-0.1,0.5-0.2,0.8-0.2l-0.7,0.1c0.2,0,0.5,0,0.7,0l-0.6-0.1c0.2,0,0.4,0,0.7,0.1l-0.6-0.2c0.2,0.1,0.4,0.2,0.6,0.3
		l-0.5-0.3l0.2,0.1c0.5,0.4,1.1,0.5,1.7,0.5c0.7,0,1.3-0.3,1.8-0.7c0.5-0.3,0.8-0.9,0.8-1.4C84.2,155.9,83.9,155.3,83.5,155z" fill="#000005"></path><path class="st2" d="M95.4,151.6c-1.2-0.8-2.9-0.7-4,0.3c-1.4,1.2-2.8,3.2-0.5,5.6C94,160.6,98.7,154.1,95.4,151.6z" fill="#000005"></path><path class="st2" d="M96.4,150.3c-1.4-1-3.2-1.4-4.8-1c-1.1,0.3-2.2,1-2.9,1.9c-0.6,0.7-1.1,1.6-1.2,2.6c-0.1,0.7,0,1.5,0.3,2.1
		c0.3,0.8,0.8,1.6,1.4,2.2c0.9,1,2,1.7,3.3,2c1,0.2,2.1,0.1,3.1-0.4c0.7-0.3,1.3-0.8,1.8-1.4c0.5-0.6,0.9-1.3,1.2-2.1
		c0.3-0.8,0.3-1.7,0.2-2.5c-0.1-0.7-0.4-1.3-0.7-1.8C97.5,151.3,97,150.8,96.4,150.3c-0.5-0.3-1.1-0.5-1.7-0.6c-0.5,0-1,0.2-1.3,0.5
		c-0.6,1,0.3,2.2,1.1,2.8l0.2,0.1l-0.5-0.4c0.1,0.1,0.2,0.2,0.3,0.4l-0.4-0.5c0.1,0.1,0.2,0.3,0.3,0.4l-0.3-0.5
		c0.1,0.2,0.2,0.4,0.2,0.6l-0.1-0.5c0.1,0.3,0.1,0.6,0.1,0.9v-0.5c0,0.5-0.2,1-0.4,1.5l0.2-0.4c-0.3,0.6-0.7,1.2-1.2,1.7l0.3-0.3
		c-0.4,0.3-0.8,0.6-1.2,0.8l0.4-0.2c-0.2,0.1-0.5,0.2-0.8,0.2h0.5c-0.2,0-0.4,0-0.6,0l0.6,0.1c-0.2,0-0.3-0.1-0.4-0.1l0.6,0.2
		c-0.2-0.1-0.3-0.1-0.4-0.2l0.6,0.3c-0.2-0.1-0.3-0.2-0.4-0.3l0.5,0.4c-0.2-0.2-0.4-0.4-0.6-0.7l0.4,0.5c-0.2-0.2-0.3-0.4-0.4-0.6
		l0.3,0.5c-0.1-0.2-0.2-0.5-0.3-0.7l0.1,0.5c-0.1-0.3-0.1-0.5-0.1-0.8v0.5c0-0.4,0.1-0.7,0.3-1.1l-0.2,0.4c0.3-0.6,0.7-1.2,1.3-1.7
		l-0.3,0.3c0.3-0.3,0.7-0.6,1.2-0.8l-0.4,0.2c0.3-0.1,0.7-0.2,1-0.2h-0.5c0.3,0,0.5,0,0.8,0l-0.6-0.1c0.2,0,0.4,0.1,0.6,0.1
		l-0.6-0.2c0.2,0.1,0.3,0.1,0.5,0.2l-0.6-0.3l0.2,0.1c0.5,0.4,1.1,0.6,1.7,0.6c0.5,0.1,1-0.1,1.3-0.5
		C98.1,152.1,97.2,150.8,96.4,150.3z" fill="#000005"></path><path class="st1" d="M52.5,185c0,2,0.1,4,0.1,6c0.1,5,0.2,10,0.3,15c0.2,7.3,0.3,14.7,0.5,22l0.6,26.6l0.7,29
		c0.2,9.8,0.5,19.6,0.7,29.4c0.2,9.1,0.4,18.2,0.7,27.4c0.2,7.8,0.4,15.6,0.5,23.3l0.4,16.9c0.1,2.8,0.1,5.6,0.2,8.4
		c0,0.2,0,0.3,0,0.5c0,2.6,4.9,1.7,4.9-0.5c0-2-0.1-4-0.1-6c-0.1-5-0.2-10-0.3-15c-0.2-7.3-0.4-14.7-0.5-22l-0.6-26.6l-0.7-29
		c-0.2-9.8-0.5-19.6-0.7-29.4c-0.2-9.1-0.4-18.2-0.7-27.4c-0.2-7.8-0.4-15.5-0.5-23.3c-0.1-5.6-0.3-11.3-0.4-16.9
		c-0.1-2.8-0.1-5.6-0.2-8.4v-0.5C57.4,181.9,52.5,182.8,52.5,185L52.5,185z" fill="#59BE4C"></path><path class="st2" d="M76.3,242.9c0,0,60.1-27.2,64.6-26.8s3.4,66.9,0,70.3s-59.7,31-62.7,24.6S74.1,243.7,76.3,242.9z" fill="#000005"></path><path class="st2" d="M77.1,243.1c6.4-2.9,12.7-5.7,19.1-8.5c5.7-2.5,11.4-5,17.1-7.4c5.6-2.4,10.1-4.3,15.7-6.5
		c2.1-0.8,4.1-1.6,6.2-2.4h0.1l0.6-0.2l1.2-0.4c0.2-0.1,0.5-0.1,0.7-0.2c-0.4,0.1,0.4-0.1,0.6-0.2c0.5-0.1-0.5,0.1,0.2,0
		c0.3,0,0,0-0.1,0c0.1,0,0.2,0,0.2,0c-0.2,0.2-0.1-0.1,0,0c0.1,0.1,0.2,0.2,0.2,0.3c0.5,1,0.9,2,1,3.1c0.7,4.3,1.1,8.7,1.2,13.1
		c0.2,6,0.3,12.1,0.2,18.1S141.4,264,141,270c-0.2,4.5-0.6,9-1.3,13.4c-0.1,1.1-0.4,2.2-0.8,3.3c-0.1,0.1-0.1,0.2-0.2,0.4
		c0.1-0.2,0,0-0.2,0.1l-0.2,0.2c-0.1,0.1,0.3-0.2,0,0s-0.5,0.3-0.7,0.5c-0.6,0.4-1.2,0.8-1.9,1.1c0.2-0.1,0.1,0-0.2,0.1l-0.6,0.3
		l-1.3,0.7c-2.1,1.1-4.2,2.2-6.4,3.3c-10.6,5.4-21.5,10.2-32.6,14.4l-0.4,0.1c0.5-0.2,0,0-0.1,0l-0.9,0.3l-1.9,0.6
		c-0.6,0.2-1.1,0.4-1.7,0.5l-0.5,0.1c0.1,0,0.4-0.1,0,0l-0.9,0.2c-0.5,0.1-1,0.3-1.5,0.4l-0.5,0.1l-0.6,0.1
		c-0.4,0.1-0.8,0.2-1.2,0.2c-0.3,0.1-0.6,0.1-0.9,0.1c-0.8,0.1-2,0.2-2.7-0.5c-0.5-0.9-0.9-1.9-0.9-2.9c-0.7-4.4-1.2-8.9-1.4-13.4
		c-0.4-6.2-0.7-12.5-0.8-18.8s-0.2-12.3-0.2-18.5c-0.1-4.2,0.1-8.3,0.5-12.5c0.1-0.4,0.1-1.1,0.2-1.4c0.3-1.2,0.4-0.4-1.8,0.5
		c0.3-0.1,2.3-0.9,2.2-1.4s-2.3,0.4-2.5,0.4c-1.8,0.7-2.4,1.1-2.7,2.9c-0.2,1.6-0.4,3.2-0.4,4.8c-0.3,5.4-0.3,10.8-0.2,16.3
		c0.1,12.4,0.4,24.9,1.6,37.2c0.2,2,0.4,3.9,0.8,5.8c0.2,0.9,0.3,2.2,1,2.8s2.3,0.7,3.3,0.6c2-0.2,4.1-0.6,6.1-1.1
		c5.6-1.6,11.1-3.5,16.5-5.7c6.2-2.5,12.2-5.2,18.3-8c5.1-2.4,10.2-4.9,15.2-7.6c1.7-0.9,3.5-1.9,5.1-2.9c1-0.5,1.9-1.1,2.6-1.9
		c0.5-0.9,0.8-1.9,0.9-2.9c0.4-1.8,0.6-3.7,0.8-5.5c0.6-5.5,0.8-11,1-16.5c0.6-12.1,0.4-24.2-0.5-36.2c-0.1-1.9-0.4-3.8-0.7-5.7
		c-0.1-1.1-0.4-2.2-1-3.1c-0.6-0.7-1.5-0.4-2.3-0.3c-1.7,0.4-3.3,0.9-4.9,1.5c-11,3.9-21.6,8.6-32.3,13.2c-9.1,3.9-18.2,7.9-27.3,12
		l-1.5,0.7c-0.3,0.1-1.8,0.8-1.4,1.2S76.8,243.3,77.1,243.1z" fill="#000005"></path><path class="st0" d="M102.6,284.1c0.3-5.2-0.4-10.4-1.2-15.5c-0.3-2.5-0.7-5.1-0.8-7.6c-0.1-1.4-0.1-2.8-0.1-4.1
		c0-0.7,0.1-1.4,0.1-2.1c0-0.3,0.1-0.6,0.1-0.9c0-0.5,0.5-0.7-0.5-0.2l-1.8,0.7c2-0.6,4.6,0.7,6.4,1.4c2.1,0.8,4.2,1.6,6.2,2.4
		c3,1.1,7.4,2.6,7.6,6.5c0.1,2.1-1.2,4-2.3,5.7c-1.3,1.9-2.6,3.7-4,5.5c-2.8,3.7-5.6,7.3-8.7,10.8c-0.7,0.9,0.9,0.8,1.3,0.7
		c1.2-0.2,2.2-0.8,3-1.7c4.1-4.8,8-9.8,11.7-15c1.6-2.2,3.6-4.8,3.5-7.7c-0.1-2.3-1.7-4-3.6-5.2c-2.4-1.3-4.9-2.3-7.5-3.1
		c-2.8-1.1-5.6-2.4-8.6-2.8c-2.6-0.3-6.8,0.5-7.4,3.5c-0.4,2.9-0.5,5.9-0.1,8.9c0.6,7.2,2.3,14.3,1.9,21.5
		C97.9,286.9,102.5,285.4,102.6,284.1L102.6,284.1z" fill="#FFFFFF"></path><path class="st0" d="M78.3,192.2c0,0,155-66.6,157.5-64.2c2.5,2.4,2.6,31.6,2.6,34.8S81,223.5,77.8,225.2S78.3,192.2,78.3,192.2z" fill="#FFFFFF"></path><path class="st1" d="M79.6,194.1l5.7-2.4l15.2-6.5c7.3-3.1,14.6-6.2,21.9-9.3c8.6-3.6,17.2-7.3,25.7-10.9
		c8.9-3.7,17.9-7.5,26.8-11.2c8.4-3.5,16.7-6.9,25.1-10.3c6.8-2.8,13.7-5.5,20.6-8.1c2.5-1,5.1-1.9,7.7-2.9l1.6-0.6
		c0.3-0.1,1-0.3,0.2-0.1l0.8-0.3c0.8-0.3,1.6-0.6,2.4-0.8c0.6-0.2,1.2-0.4,1.8-0.5l0.6-0.1c0.6-0.1-0.1,0-0.2,0
		c0.4,0-0.8-0.2-0.9-0.3c-0.1-0.1-0.3-0.2-0.5-0.3c0.2,0.2-0.4-0.5-0.2-0.2c0.4,0.5-0.1-0.4,0.1,0.2s0.4,1.3,0.5,2
		c0.1,0.4,0.1,0.8,0.2,1.2c0,0.2,0,0.4,0.1,0.6c-0.1-0.5,0.1,0.4,0.1,0.5c1.1,9.1,1.1,18.3,1.2,27.4c0,0.5,0,0.9,0,1.4
		c0,0,0.3-1.3,0.6-1.3c-0.1,0.1-0.2,0.2-0.3,0.2c-0.3,0.3,0.6-0.3,0.3-0.2c-0.1,0-0.2,0.1-0.3,0.2c-1.2,0.7-2.5,1.3-3.8,1.9
		c-4.9,2.2-9.8,4.2-14.7,6.2c-7.2,2.9-14.5,5.8-21.8,8.6c-8.7,3.4-17.5,6.7-26.3,10c-9.1,3.4-18.3,6.9-27.4,10.3l-26,9.7l-21.5,8.1
		c-4.7,1.8-9.5,3.5-14.2,5.3c-1.2,0.4-2.3,0.9-3.4,1.3c-0.2,0.1-0.5,0.2-0.7,0.3c0-0.4,1.7-0.1,1.9-0.1s0.6,0.4,0.6,0.4
		s0.4,0.6,0.2,0.2s0.1,0.6,0.1,0.2c0-0.2-0.1-0.4-0.2-0.6c0-0.1,0-0.2-0.1-0.4c-0.1-0.5,0,0.3,0,0c-0.3-3.8-0.2-7.7,0.1-11.5
		c0.2-4.4,0.6-8.8,1-13.2c0.2-2,0.4-4.1,0.6-6.1c0.3-2.9-4.7-3-5-0.1c-0.7,6.8-1.3,13.5-1.7,20.3c-0.4,3.9-0.3,7.8,0.1,11.7
		c0.4,2.7,2.4,4,5,3c2.9-1.2,5.8-2.3,8.7-3.4c6-2.3,12-4.5,18.1-6.8l24.2-9c9.2-3.4,18.4-6.9,27.5-10.3c9.2-3.4,18.4-6.9,27.7-10.5
		c8.3-3.2,16.5-6.4,24.8-9.6c6.3-2.5,12.6-5,18.8-7.6c3.4-1.3,6.7-2.8,9.8-4.5c0.6-0.3,1.1-0.7,1.6-1.3c0.4-0.8,0.6-1.7,0.4-2.6
		c0-4.2-0.1-8.4-0.3-12.6c-0.2-5-0.4-10.1-1-15.1c-0.3-2.4-0.4-7.2-3.3-8c-1.2-0.2-2.5,0-3.7,0.4c-1.9,0.5-3.7,1.2-5.6,1.9
		c-5.6,2-11.2,4.2-16.8,6.4c-7.7,3.1-15.4,6.2-23.1,9.4c-8.9,3.6-17.8,7.3-26.6,11c-9,3.8-18.1,7.6-27.1,11.4
		c-8.2,3.5-16.5,7-24.7,10.5c-6.4,2.7-12.8,5.4-19.2,8.2l-11,4.7l-1.4,0.6c-1.1,0.5-1.6,1.7-1.1,2.8c0,0.1,0.1,0.1,0.1,0.2
		C76.8,194.4,78.3,194.8,79.6,194.1z" fill="#59BE4C"></path><path class="st1" d="M91.7,193.6c-2.2,1.5-4,3.6-4.9,6.1c-0.7,1.5-0.3,3.3,0.9,4.4c1,0.8,2.2,1.4,3.5,1.6c1.5,0.3,3.1,0.5,4.6,0.5
		c1.5,0.1,3.1,0,4.6-0.5c1.6-0.6,2.8-2,3-3.7c0.2-1.3,0-2.6-0.5-3.8c-1.6-3.3-5.1-5.3-8.7-4.9c-1,0.1-2.3,1-1.9,2.1
		c0.5,1.1,1.8,1.8,3,1.6c0.4,0-0.1,0.1-0.1,0c0.1,0,0.2,0,0.3,0c0.1,0,0.2,0,0.4,0c0.3,0-0.2,0-0.2-0.1s0.7,0.2,0.7,0.2
		s0.3,0.1,0.1,0s0.2,0.1,0.2,0.1s0.2,0.1,0.3,0.2s-0.3-0.2-0.1-0.1s0.3,0.3,0.5,0.4c0.1,0.1,0.2,0.2,0.3,0.3c0,0-0.2-0.2-0.1-0.1
		s0.3,0.5,0.5,0.7c0,0,0.2,0.3,0.1,0.1s0.1,0.2,0.1,0.2c0.1,0.2,0.1,0.4,0.2,0.6c0,0.2,0.1,0.4,0.1,0.6s0-0.2,0,0.1v0.6
		c0,0.2,0,0.4-0.1,0.7c0,0.1,0,0.2-0.1,0.3c0-0.1,0.1-0.2,0,0.1c0,0.1-0.1,0.2-0.1,0.2c-0.1,0.3,0.2-0.2,0,0.1
		c-0.1,0.1-0.1,0.1-0.2,0.2c0.4-0.4-0.2,0.1,0.1-0.1s-0.3,0.2-0.4,0.1s0.5,0,0.1,0h-0.4h-0.3c-0.1,0-0.4,0.1-0.1,0s0,0-0.1,0h-0.7
		c-1.1,0-2.3-0.1-3.4-0.3l-0.3-0.1c-0.6-0.1,0.1,0,0.1,0c-0.1-0.1-0.4-0.1-0.6-0.1c-0.2-0.1-0.4-0.1-0.5-0.2
		c0.8,0.1-0.1,0.1-0.1-0.1s0.4,0.3,0.1,0.1c0,0-0.2-0.1-0.2-0.2s0.3,0.2,0.1,0.1s-0.1-0.3-0.1-0.1s0-0.1,0-0.1c-0.1,0.3,0,0,0-0.1
		c0-0.2,0.1-0.4,0.2-0.6c0.2-0.5,0.4-1,0.7-1.4c0.1-0.2,0.3-0.4,0.4-0.6s-0.2,0.2,0,0l0.3-0.4c0.3-0.4,0.6-0.8,1-1.1l0.3-0.3
		c0,0,0.4-0.4,0.2-0.2s0.1,0,0.1-0.1l0.5-0.3c0.8-0.4,1-1.4,0.6-2.1c-0.1-0.2-0.2-0.3-0.4-0.5C94.2,193.2,92.8,193,91.7,193.6
		L91.7,193.6z" fill="#59BE4C"></path><path class="st1" d="M91.3,205.2l-3.1,7.5c-0.2,0.4,2.3,0.4,2.5,0.4c0.6,0,1.2-0.1,1.8-0.2c0.2-0.1,0.6-0.1,0.7-0.4l3.1-7.5
		c0.2-0.4-2.3-0.4-2.5-0.4c-0.6,0-1.2,0.1-1.8,0.2C91.7,204.9,91.4,204.9,91.3,205.2L91.3,205.2z" fill="#59BE4C"></path><path class="st1" d="M114.3,190c2.4,2.5,5,5,7.7,7.3c1,0.8,3.1,2.6,4.3,1.2c0.4-0.7,0.7-1.5,0.8-2.3c0.2-0.8,0.3-1.7,0.5-2.6
		c0.3-1.7,0.5-3.4,0.7-5.1c0-0.4,0.1-0.8,0.1-1.2c0-0.2-0.3,0-0.1,0c0.8,0.3,1.5,0.8,2.2,1.2c3,1.6,6.2,2.9,9.5,3.9
		c0.5,0.2,1.1,0,1.3-0.5c0,0,0-0.1,0-0.1c1.1-3.3-0.7-6.8,0.4-10.1c0.6-1.7-3.4-4.7-4-2.7c-1.1,3.3,0.7,6.8-0.4,10.1l1.4-0.6
		c-2.2-0.7-4.4-1.5-6.5-2.5c-1-0.5-2-1-3-1.6c-0.9-0.7-2-1.1-3.1-1.2c-2.4,0-2,3.3-2.2,5c-0.2,1.3-0.4,2.5-0.6,3.7
		c-0.2,0.8-0.2,2.7-0.9,3.2l0.7-0.3h-0.3l1,0.2c-0.6-0.5-1.1-1-1.6-1.5c-0.7-0.6-1.3-1.2-2-1.9c-1.3-1.3-2.6-2.6-3.9-3.9
		c-0.6-0.6-2-1.4-2.8-0.7S113.8,189.4,114.3,190L114.3,190z" fill="#59BE4C"></path><path class="st1" d="M147.9,175.8c2.9,2.4,5.5,5.1,7.8,8.1c0.8,1.1,4.3,1.1,4.8-0.3c1.2-3.1,2.4-6.2,3.7-9.3
		c0.1-0.3,0.3-0.5,0.4-0.8c0.1-0.6-3.1-0.4-1.8,0.4c0.6,0.4,1.3,0.8,1.9,1.2c1.3,0.9,2.6,1.8,3.9,2.8c1.2,1.2,2.9,1.7,4.6,1.4
		c0.8-0.1,1.5-0.5,2-1.1c0.3-0.7,0.4-1.4,0.3-2.1c0-3.4-0.1-6.8-0.4-10.1c-0.1-1.6-5.1-1.3-5,0.3c0.2,2,0.3,3.9,0.4,5.9
		c0,1,0.1,1.9,0.1,2.9c0,0.5,0.2,2.3-0.1,2.6l1.5-0.6l-0.3,0.1h1.9l-0.3-0.1l0.9,0.4c-0.9-0.6-1.7-1.2-2.5-1.9
		c-0.9-0.7-1.9-1.4-2.9-2c-2.1-1.4-4.3-2.8-7-2c-2.2,0.7-2.6,2.9-3.4,4.8c-0.9,2.3-1.8,4.6-2.7,6.9l4.8-0.3
		c-2.4-3.2-5.2-6.1-8.3-8.6c-0.9-0.7-2.5-0.6-3.4-0.2C147.9,174.4,147,175.1,147.9,175.8L147.9,175.8z" fill="#59BE4C"></path><path class="st1" d="M181,162.3c3,3.1,6.1,6,9.3,8.8c0.8,0.7,4.6,0.8,4.6-0.7c0.2-3.4,1-6.7,2.3-9.8c0.1-0.1,0.1-0.2,0.2-0.3
		c-2.4-0.2-3.1-0.1-2.2,0.4c0.4,0.3,0.7,0.5,1.1,0.7l2.3,1.4l4.7,3c0.9,0.6,4.4,0.9,4.6-0.7c0.5-4.7,0.8-9.5,0.9-14.2
		c0-1.5-5-1.4-5,0.2c0,4.8-0.3,9.5-0.8,14.2l4.6-0.7l-6.2-4c-2.3-1.4-4.3-2.9-7.1-1.9c-2,0.7-2.6,3.2-3.1,5c-0.6,2.2-1,4.5-1.1,6.8
		l4.6-0.7c-3-2.7-5.9-5.4-8.8-8.3c-0.9-0.7-2-0.9-3.1-0.7C182.3,160.9,180.3,161.5,181,162.3L181,162.3z" fill="#59BE4C"></path></g><g id="character"><path class="st0" d="M262.7,149.2c0,0-2.2-7.2-7.8-7s-26.1,18.2-23.2,20s12.7,2.5,15.8,1s6.1-7.8,6.1-7.8l-0.4,5.6l30.2-5.4
		c0,0-0.2-9.6,2.8-15.7c2.6-5.4-1-13.1-7.6-3.9c-1.8,2.5-3.1,5.2-4,8.2l-1.3,4.4C273.2,148.6,266.9,138.2,262.7,149.2z"></path><path class="st2" d="M264.5,148.9c-1.4-4.5-5.7-10.1-11.1-9c-2,0.6-3.9,1.5-5.6,2.7c-2.4,1.5-4.6,3.2-6.8,5
		c-2.2,1.8-4.4,3.8-6.5,5.8c-1.6,1.5-3,3.1-4.2,4.9c-1.1,1.9-1.5,4.2,0.6,5.7c2.4,1.8,6.2,2,9.1,2.2c3.3,0.2,7.4,0.4,10.1-1.9
		c2.3-2.1,4.2-4.7,5.4-7.6l-3.9-2.3l-0.4,5.6c-0.1,1.4,1.1,3.5,2.8,3.2l26.4-4.7l3.8-0.7c1-0.2,1.2-1.2,1.2-2c0-0.2,0-0.5,0,0.3
		c0-0.1,0-0.3,0-0.4c0-0.6,0-1.2,0-1.8c0.1-1.8,0.3-3.7,0.5-5.5c0.3-2.1,0.8-4.1,1.6-6.1c0.8-1.6,1.3-3.3,1.5-5
		c0.1-3.1-1.2-7.4-4.8-8c-4.3-0.6-7.5,4.7-9.2,7.8c-1.6,3.2-2.8,6.5-3.7,10l3.5,0.5c-1.3-2.1-3.1-3.9-5.2-5.1
		c-1.5-0.8-3.2-0.9-4.7-0.2c-2.1,1-3.3,3.5-4.1,5.5s2.7,5.5,3.8,2.8c0.6-1.4,1.3-3.2,2.8-4c0.3-0.1,0.7-0.2,1-0.1
		c0.2,0,0.4,0.1,0.1,0c0.1,0,0.2,0.1,0.4,0.1l0.3,0.1c0.4,0.2-0.1-0.1,0.1,0s0.4,0.3,0.6,0.4l0.3,0.2c0.2,0.2-0.3-0.3,0,0
		s0.7,0.7,1,1.1l0.4,0.5c0.4,0.4-0.3-0.5,0,0l0.2,0.4c0.6,1,2.9,2.4,3.5,0.5c0.6-2.1,1.2-4.4,2-6.4c0.8-2.2,2-4.3,3.4-6.3
		c0.9-1.4,2.2-2.4,3.7-3.1c0.1,0,0.3,0,0.4-0.1c0,0-0.4,0,0,0c0.2,0,0.1,0-0.1-0.1c0.1,0.1,0.2,0.1,0.3,0.2
		c-0.2-0.2-0.1-0.3-0.1-0.1c0-0.1-0.4-0.4-0.1-0.1s-0.1-0.2,0,0s0.2,0.7,0.1,0.3c0.1,0.3,0.1,0.6,0.1,0.9c0,0.6,0,1.2-0.2,1.8
		c-0.3,1.4-1.2,2.9-1.7,4.3c-0.6,2-1,4-1.3,6c-0.4,2.6-0.5,5.3-0.5,7.9l1.2-2l-26.4,4.7l-3.8,0.7l2.8,3.2l0.4-5.6
		c0.1-1.8-2.6-4.8-3.9-2.3c-0.9,1.9-2,3.6-3.4,5.2c-0.4,0.5-0.8,0.9-1.3,1.3c-0.4,0.3-0.8,0.5-1.2,0.6c-1.3,0.3-2.6,0.5-3.9,0.5
		c-2.8,0.1-5.6-0.2-8.2-0.9c-0.5-0.1-0.9-0.4-1.4-0.6s0.1,0,0.1,0.1c0.2,0.2,0.4,0.4,0.5,0.6c0.4,0.5,0.5,1,0.5,1.6
		c0-0.3,0,0.1-0.1,0.2c0-0.1,0.1-0.2,0.1-0.4c0.1-0.1,0.1-0.2,0.2-0.4c0.1-0.2-0.1,0.2-0.1,0.2l0.2-0.3c2.3-3.4,5.6-6.3,8.8-9
		c3.5-2.9,7.2-6,11.4-7.8c0.2-0.1,0.4-0.2,0.6-0.2c-0.4,0.1,0,0,0.2-0.1c0.3-0.1,0.6-0.2,0.9-0.2c1.1,0,2.2,0.4,2.9,1.2
		c0.1,0.1,0.5,0.5,0.6,0.7l0.2,0.3c0.3,0.3-0.3-0.5,0.1,0.1c0.3,0.5,0.6,1,0.9,1.5c0.1,0.1,0.1,0.2,0.2,0.3c0-0.1-0.2-0.4-0.1-0.1
		l0.2,0.5c0.1,0.2,0.1,0.3,0.2,0.5c0.3,1,1.5,2.2,2.7,2S264.8,149.9,264.5,148.9z"></path><path class="st2" d="M265.1,150.9c-0.4-1-0.9-2-1.4-2.9c-0.3-0.6-0.6-1.1-1.1-1.6c-0.4-0.4-0.9-0.8-1.5-1c-0.3-0.1-0.9-0.2-1.2,0.1
		c-0.3,0.3-0.3,0.8-0.2,1.2c0.2,0.6,0.5,1.1,0.9,1.6l0,0l-0.4-0.5c0,0.1,0.1,0.1,0.1,0.2l-0.3-0.5c0.5,0.9,1,1.9,1.4,2.9
		c0,0.1,0.1,0.2,0.1,0.3c0.1,0.3,0.3,0.5,0.5,0.8c0.2,0.3,0.4,0.5,0.7,0.7c0.2,0.2,0.5,0.3,0.8,0.4c0.2,0.1,0.5,0.2,0.7,0.2
		c0.4,0,0.8-0.2,0.9-0.6C265.4,151.8,265.3,151.3,265.1,150.9L265.1,150.9z"></path><path class="st1" d="M222.6,164.1c0,0,80.5-13.8,82.2-13s3.2,6.8,1.9,8.5s-80.9,14.8-82.1,14.6s-13.9-3.2-13.9-3.2L222.6,164.1z"></path><path class="st1" d="M224.1,165.8l9.5-1.6c7.5-1.3,14.9-2.5,22.4-3.8c8.5-1.4,17.1-2.8,25.6-4.2c6.5-1,13-2.1,19.6-2.9l2.9-0.4
		l0.5-0.1c-0.5,0.1-0.2,0,0.1,0h0.7c0.7-0.1-0.5-0.1-0.7-0.2l-0.9-0.5l-0.2-0.2c0,0-0.1-0.3,0,0c0.1,0.2,0.2,0.4,0.4,0.6
		c0.2,0.5,0.4,1.1,0.6,1.6c0.4,1.1,0.5,2.2,0.3,3.4c0,0.1-0.1,0.3-0.1,0.4c-0.1,0.4-0.4,0.4,0,0.1l-0.1,0.1c-0.3,0.1,0.4-0.1,0.1,0
		l-0.3,0.1l-0.8,0.2c-0.8,0.2-1.7,0.4-2.5,0.6c-2.7,0.6-5.4,1.1-8.1,1.6c-7.8,1.5-15.7,2.9-23.5,4.2c-8.5,1.5-17,2.9-25.5,4.3
		c-6,1-11.9,2-17.9,2.9c-0.7,0.1-1.5,0.2-2.2,0.3c-0.2,0-0.4,0-0.6,0.1c0.2,0,0.1,0,0.4,0c0.5,0-0.1,0-0.3-0.1l-1-0.2l-2.7-0.6
		l-6.4-1.5l-3.2-0.7l2.4,3.2l11.9-6.9c1.7-1-2.2-3.9-3.8-3l-11.9,6.9c-1.7,1,1.7,3,2.4,3.2c3.3,0.8,6.7,1.6,10.1,2.3
		c1.9,0.6,3.8,0.8,5.8,0.7c5-0.6,10-1.5,15-2.3c8.4-1.4,16.8-2.8,25.2-4.2c8.4-1.4,16.9-2.9,25.3-4.5c4.9-0.9,10-1.6,14.8-3.1
		c0.6-0.1,1.1-0.4,1.5-0.8c1.3-1.7,0.5-4.9-0.2-6.7c-1-2.9-3.2-5-6.3-4.7c-5.4,0.4-10.8,1.4-16.2,2.2c-8.5,1.3-17,2.7-25.4,4.1
		c-8.3,1.4-16.6,2.8-24.9,4.2l-14.1,2.4l-0.7,0.1c-1.1,0.2-0.7,1.5-0.1,2.1C221.8,165.5,223,165.9,224.1,165.8z"></path><path class="st0" d="M255.5,170.4c0,0-0.6,6.7-4.1,6.7s-8.9-6.7-15.7-10.3s-9.4,4-5.5,10.9s12.4,16.7,19.6,23s14.1,5.9,14.1,5.9
		S269.2,363,318.2,348s52.4-101.8,52.4-101.8l-52,21c-3.9-34.3-31.4-102.3-31.4-102.3"></path><path class="st2" d="M253.2,171.2c0,0.5-0.1,1-0.3,1.4c-0.2,1-0.6,2-1.1,2.9c-0.1,0.2-0.2,0.2-0.1,0.2c0.2-0.1,0.5-0.2,0.7-0.3
		c0.1,0,0,0-0.2,0c-0.3-0.1-0.5-0.2-0.8-0.3c-1.2-0.6-2.3-1.3-3.4-2.2c-2.9-2.4-5.9-4.7-9.1-6.8c-3.1-1.9-6.5-2.9-9.8-0.6
		c-2.4,1.8-3.6,4.8-3.1,7.7c0.4,3.4,2.1,6.3,4.1,9.1c4.5,6.5,9.7,12.6,15.6,18c4.4,4.2,10.5,8.4,17,8l-1.2-0.9
		c0.1,3.5,0.3,7,0.6,10.5c0.6,8.8,1.3,17.5,2.3,26.2c1.2,11.4,2.8,22.7,4.9,33.9c2,11.6,4.9,23.1,8.5,34.4
		c3.1,9.3,6.9,18.8,12.9,26.6c4.7,6.1,11,11.1,18.9,11.6c4.8,0.3,9.6-1.2,14-3.1c6.2-2.8,11.9-6.6,16.8-11.4
		c9.6-9.2,16.1-21.3,20.8-33.6c4.3-11.4,7.4-23.2,9.2-35.2c1.2-7,2-14,2.5-21c0-0.3,0-0.7,0-1c0-1.1-1.8-0.9-2.4-0.7l-17.6,7
		l-28,11.3l-6.4,2.6l2.4,0.7c-1-7.9-2.6-15.6-4.6-23.3c-2.3-8.9-4.9-17.8-7.8-26.5c-4.8-14.8-10.1-29.5-15.7-44
		c-1.1-2.9-2.3-5.9-3.5-8.8c-0.7-1.7-5.2,0.5-4.4,2.4c3.3,8.3,6.5,16.6,9.5,25c6.1,16.7,11.8,33.5,16.4,50.7
		c2.4,8.6,4.2,17.3,5.4,26.2c0.1,1.1,1.6,1,2.4,0.7l17.6-7.1l28-11.3l6.4-2.6l-2.4-0.7c-0.2,4.8-0.7,9.7-1.4,14.4
		c-1.4,11-3.8,21.8-7,32.4c-3.8,12.2-8.9,24.2-16.8,34.4c-3.7,4.9-8.1,9.1-13.2,12.6c-0.3,0.2-0.6,0.4-0.9,0.6l-0.2,0.1l-0.4,0.3
		c-0.7,0.4-1.4,0.8-2.1,1.2s-1.3,0.7-2,1c-0.9,0.5-1.2,0.6-1.9,0.9c-1.5,0.6-3,1.2-4.5,1.6l-0.7,0.2c0.7-0.2-0.1,0-0.3,0.1
		c-0.5,0.1-1,0.2-1.5,0.3s-0.9,0.1-1.3,0.2s0.2,0-0.2,0h-0.8c-0.9,0-1.7,0-2.6-0.1h-0.3c-0.5-0.1,0.3,0,0,0l-0.6-0.1
		c-0.4-0.1-0.9-0.2-1.3-0.3c-0.8-0.2-1.6-0.5-2.4-0.8c-0.7-0.3-1.4-0.6-2.1-1c-0.8-0.4-1.5-0.9-2.3-1.5c-1.5-1.1-2.9-2.3-4.2-3.7
		c-6.1-6.4-10.2-15.3-13.4-23.7c-3.9-10.7-6.9-21.6-9.1-32.8c-2.3-11.3-4-22.7-5.4-34.1c-1.1-9.3-2-18.7-2.7-28
		c-0.4-4.9-0.7-9.8-0.9-14.6v-0.6c-0.1-0.6-0.6-1-1.2-0.9c-5,0.3-10.2-2.9-13.9-6.3c-5.7-5.2-10.9-10.9-15.4-17.2
		c-1.9-2.7-4.1-5.6-4.7-8.9c-0.3-1.3-0.3-2.7,0.1-4.1c0.1-0.4,0.3-0.7,0.5-1c0.2-0.2,0,0-0.1,0s0.6-0.3,0,0c-0.2,0.1-0.1,0,0.1,0
		c1.4,0.2,2.7,0.8,3.9,1.6c1.6,1,3.2,2.1,4.7,3.3c2.4,1.9,4.8,4.2,7.5,5.6c3.1,1.5,6.8,0.4,8.5-2.6c1-1.8,1.7-3.8,1.8-5.9
		c0.1-1.1-1.8-0.9-2.4-0.7C254.4,169.2,253.5,170.1,253.2,171.2L253.2,171.2z"></path><path class="st2" d="M299.9,385.5c0,0,52.5-153.7,84.4-152.4s72.8,115.4,62.8,164S316.3,421.4,299.9,385.5z"></path><path class="st2" d="M302.1,384.6c0.7-2.1,1.5-4.3,2.2-6.4c2-5.7,4.1-11.4,6.2-17c3-8,6.1-16,9.4-24c3.7-9.3,7.6-18.5,11.7-27.6
		c4.2-9.4,8.5-18.7,13.2-27.9c4.2-8.3,8.8-16.5,13.8-24.3c2.2-3.4,4.5-6.7,6.9-9.9c2-2.7,4.2-5.2,6.6-7.5c0.5-0.5,1.1-1,1.7-1.5
		l0.8-0.7l0.4-0.4c0.4-0.3-0.1,0.1,0.1-0.1c0.5-0.4,1.1-0.8,1.6-1.2c0.1-0.1,0.7-0.4,0,0c0.1-0.1,0.2-0.2,0.4-0.2l0.8-0.5
		c0.5-0.3-0.4,0.2-0.1,0l0.4-0.2l0.4-0.2c0.5-0.3-0.4,0.1-0.1,0l0.8-0.3c0.4-0.2-0.5,0.1-0.1,0l0.4-0.1l0.4-0.1c0.3-0.1-0.5,0.1,0,0
		c0.2-0.1,0.5-0.1,0.8-0.1l0.4-0.1c-0.3,0-0.2,0,0,0h0.8c6.1,0,11.8,4.4,15.9,8.6c6.5,6.5,11.6,14.4,16.1,22.4
		c5.6,10.1,10.4,20.5,14.4,31.3c4.4,11.6,8.1,23.5,11.1,35.6c2.9,11.4,4.9,23,6.1,34.7c0.9,9.7,1.2,19.6-0.5,29.2
		c-0.5,3.6-1.8,7.1-3.6,10.3c-0.9,1.5-2,2.9-3.2,4.2c-0.5,0.6-1,1.1-1.7,1.7c-0.3,0.3-0.7,0.6-1,0.9c-0.5,0.4-0.3,0.3-0.8,0.6
		l-1.1,0.8l-0.5,0.4l-0.3,0.2c0.2-0.1,0.2-0.2,0,0c-0.4,0.2-0.8,0.5-1.2,0.7l-0.6,0.3c-0.2,0.1-0.8,0.4-0.2,0.1
		c-0.9,0.5-1.7,0.9-2.6,1.3c-0.3,0.2,0.4-0.1-0.3,0.1l-0.6,0.3l-1.4,0.5l-0.8,0.3c-0.1,0-0.2,0.1-0.3,0.1l-1.5,0.5
		c-1,0.3-2,0.6-3,0.9c-0.8,0.2-1.8,0.5-2.9,0.7s-2.2,0.4-3.3,0.6c-9.6,1.5-19.3,1.7-29,0.8c-10.3-0.9-20.6-2.7-30.6-5.5
		c-9.5-2.6-18.7-6.1-27.5-10.5c-7.2-3.7-14.3-8.2-19.8-14.2c-2.1-2.3-3.9-4.9-5.3-7.8c-0.4-0.9-4.9,1.3-4.5,2.2
		c3,6.6,8.8,11.7,14.6,15.8c7.7,5.3,16.1,9.5,25,12.7c9.8,3.6,20,6.4,30.3,8.1c10.2,1.8,20.6,2.6,31,2.3c9.3-0.4,18.8-1.8,27.5-5.2
		c7.5-3,14.9-7.5,19.4-14.4c4.6-7.1,5.3-15.9,5.5-24.1c0.1-11-0.8-22-2.8-32.8c-4.3-24.5-11.7-48.4-22-71.1
		c-4.4-9.8-9.7-19.1-15.8-27.9c-4.5-6.2-9.8-12.5-16.7-16c-2.5-1.3-5.3-2-8.1-2.1c-2.8,0.2-5.5,1-7.9,2.3c-5.9,3-10.7,8-14.9,13.1
		c-5.3,6.7-10,13.9-14.2,21.3c-5,8.7-9.6,17.6-13.9,26.7c-4.5,9.5-8.8,19-12.9,28.7c-3.8,8.9-7.4,17.8-10.9,26.9
		c-2.8,7.1-5.5,14.3-8.1,21.5c-1.5,4.1-3,8.2-4.4,12.4c-0.2,0.5-0.4,1.1-0.6,1.6c-0.3,0.8,1.8,0.1,1.9,0
		C300.4,386.1,301.8,385.5,302.1,384.6z"></path><path class="st0" d="M311.9,294c0,0-30.4,11.4-29.7-6.2c0.4-12.3,36.6-12.9,37.7-5.5S311.9,294,311.9,294z"></path><path class="st2" d="M310.8,291.7c-4.1,1.6-8.4,2.7-12.8,3.3c-3.2,0.6-6.6,0.5-9.8-0.2c-0.6-0.1-1.2-0.3-1.7-0.6
		c-0.6-0.3-1.2-0.6-1.7-1c-0.1-0.1-0.7-0.7-0.4-0.3c-0.1-0.1-0.2-0.3-0.3-0.4c-0.4-0.5,0.3,0.4,0-0.1s0.3,0.5,0,0
		c-0.1-0.1-0.3-0.7,0-0.1c0-0.1-0.1-0.3-0.1-0.5s0-0.1,0,0.1l-0.1-0.4c-0.7-2.5,0.3-5.2,2.5-6.7c2.6-1.9,5.6-3.2,8.8-3.8
		c3.7-0.9,7.5-1.3,11.3-1.2c3.2,0,6.5,0.4,9.6,1.2c0.6,0.2,1.2,0.4,1.7,0.7c0.3,0.1,0.6,0.3,0.8,0.5c0.1,0,0.4,0.3,0.1,0
		c0.1,0.1,0.2,0.2,0.4,0.3s0.2,0.4,0-0.1c0.1,0.2,0.3,0.5-0.1-0.2c0.2,0.4-0.3-0.6-0.1-0.2c-0.1-0.1-0.3-0.8-0.2-0.6
		c-0.2-0.2,0,0.3,0,0.5c0,0.3,0,0.7-0.1,1c-0.1,0.5-0.2,1.1-0.4,1.6C316.8,287.6,313.8,290.2,310.8,291.7c-1.3,0.6,0.8,5.2,2.1,4.5
		c3-1.4,5.5-3.8,7.2-6.6c2-3.9,1.5-9-2.2-11.6c-2.5-1.8-5.8-2.3-8.8-2.6c-4.1-0.4-8.3-0.3-12.4,0.3c-5.7,0.8-15.5,3-16,10.2
		c-0.3,4.2,1.3,8.9,4.7,11.6c2.8,2.1,6.3,2.6,9.7,2.5c3.7-0.1,7.3-0.7,10.9-1.6c2.2-0.5,4.4-1.1,6.5-1.9l0.3-0.1
		C314.2,295.8,312.2,291.2,310.8,291.7z"></path><path class="st0" d="M445.1,292.1c0,0,33.7,123.2-17.1,102.8s-73.8-49.1-73.8-49.1c-18.7,1.8-26.1-11.8-26.1-11.8
		s-22.5,1.7-30.5-5.7s-0.2-12.8,8.4-13.7s20.8-3.7,20.8-3.7c-17.8,4.5-10.8-10.3-10.8-10.3s-11.7,5.4-16.5,3.6s-3.2-12.1,8.7-21.6
		s20.3-0.5,20.3-0.5s4.6-8,14.8-5.3s21.6,32.2,21.6,32.2l29.6,16.3c0,0-11.4-72.5,11.8-75.3S441.2,270.9,445.1,292.1z"></path><path class="st2" d="M443,291c0.7,2.7,1.4,5.3,2,8c1.6,6.6,3,13.2,4.2,19.9c1.6,8.6,2.9,17.2,3.8,25.8c0.9,8.4,1.1,16.9,0.6,25.4
		c-0.5,6.5-1.6,13.6-5.3,19.1c-3,4.7-8.3,7.2-13.8,6.6c-5.1-0.5-9.4-2.7-14.1-4.7c-7.8-3.4-15.4-7.3-22.8-11.5
		c-10.7-6.2-20.7-13.4-29.9-21.5c-4-3.5-7.7-7.3-11.2-11.3c-0.1,0-0.1-0.1-0.1-0.2c-1-0.9-2.1-1.6-3.4-2c-1-0.2-2-0.2-3,0
		c-3.4,0.1-6.8-0.3-10.1-1.5c-0.5-0.2-1.1-0.4-1.4-0.6c-0.4-0.2-0.8-0.4-1.2-0.6c-0.8-0.5-1.6-1.1-2.4-1.7c-1.3-1.1-2.4-2.3-3.4-3.6
		c-0.4-0.5-0.8-1.1-1.1-1.6c-0.5-0.6-1.2-1.1-2-1.5c-0.7-0.5-1.5-0.8-2.3-0.9c-7.4,0.5-15.3,0.3-22.4-1.7c-0.9-0.3-1.9-0.6-2.8-1
		l-0.5-0.2l0,0c-0.1-0.1-0.2-0.1-0.3-0.2c0,0,0.3,0.2,0,0c-0.1,0-0.1-0.1-0.2-0.1c-0.2-0.2-0.5-0.3-0.7-0.5
		c-2.1-1.9-3.9-4.9-2.3-7.7c1.4-2.5,4.3-3.8,6.9-4.6c3.1-0.9,6.4-1,9.6-1.5c5.1-0.8,10.2-1.8,15.3-2.9l-4.1-2.5
		c-1.7,0.5-3.4,0.7-5.2,0.8c-0.6,0-1.3,0-1.9-0.1c-0.3,0-0.5-0.1-0.8-0.1s-0.3-0.2-0.2,0c0.4,0.4,0.9,0.6,1.4,0.8
		c-0.1-0.1,0,0-0.2-0.2c-0.2-0.3-0.4-0.5-0.5-0.8c-0.3-0.7-0.5-1.4-0.5-2.1c0-2.1,0.4-4.2,1.4-6.1c0.3-0.7-3.7-2.7-4.4-2.4
		c-2.9,1.3-6,2.4-9.1,3.2c-1.9,0.6-4,0.8-6,0.6c-1.3-0.1,1.2,0.2,1.4,1c0,0.1-0.3-0.4-0.3-0.5c-0.4-0.6-0.6-1.3-0.6-2
		c-0.4-4.4,2.6-8.9,5.3-12.1c4-4.8,9.6-9.8,16.2-10c1.2-0.1,2.4,0.1,3.5,0.4c0.3,0.1,0.6,0.2,0.9,0.3c0.7,0.3-0.4-0.2,0.2,0.1
		c0.2,0.1,0.1,0-0.1-0.1l0.5,0.3c-0.5-0.3,0.1,0.1,0.2,0.1c-0.4-0.3,0.2,0.2,0.3,0.3c0.4,0.4-0.1-0.1,0.2,0.2c0,0,0.1,0.1,0.1,0.1
		c0.4,0.4,3.8,2.8,4.2,2.1c1.2-1.9,2.9-3.5,5-4.5c2-1,4.1-1.4,6.3-1.3c1.1,0.1,2.2,0.3,3.3,0.6c-0.5-0.1,0.4,0.2-0.2-0.1
		c-0.9-0.4,0.5,0.1-0.4-0.2c0.4,0.1,0.1,0.1,0,0c0.3,0.3,0.2,0.1,0.4,0.3c2.9,2.2,5,5.4,7,8.4c2.2,3.5,4.3,7.2,6.1,11
		c1.3,2.8,2.6,5.5,3.8,8.4c0.3,0.6,0.5,1.3,0.8,1.9c0.6,0.8,1.3,1.3,2.2,1.7c4.8,2.7,9.7,5.3,14.5,8l14.9,8.2
		c0.1,0.1,2.5,1.3,2.4,0.7c-0.7-4.5-1.2-9-1.6-13.6c-1-9.5-1.3-19.1-1-28.6c0.1-4.8,0.7-9.6,1.5-14.4c0.7-4,1.9-7.9,3.8-11.6
		c1.5-2.8,3.8-5.3,6.9-6.4c2.5-0.7,5.1-0.9,7.7-0.6c2.9,0.2,5.7,0.9,8.4,2.1c5.1,2.6,9.3,8.2,12.2,13.3c3.4,6.1,5.9,12.7,7.5,19.5
		C442.3,287.7,442.6,289.3,443,291c0.1,0.7,1.9,1.5,2.5,1.8c0.2,0.1,1.9,0.9,1.8,0.4c-2.5-13.5-7.7-28.1-18.8-36.9
		c-5.6-4.4-12.5-7.5-19.7-7.8c-4.2-0.1-8.2,0.5-11.2,3.6c-2.6,2.7-4.1,6.4-5.2,9.9c-1.3,4.6-2.1,9.3-2.4,14
		c-0.7,10.2-0.6,20.4,0.4,30.5c0.3,3.9,0.7,7.7,1.2,11.6c0.1,1.9,0.4,3.9,0.8,5.8c0,0.1,0,0.2,0,0.3l2.4,0.7l-25.9-14.3l-3.7-2
		l2,1.5c-2.5-6.4-5.4-12.6-8.9-18.5c-4.8-8.1-12.2-18-22.9-16.4c-3.7,0.6-6.9,2.7-8.9,5.8l4.2,2.1c-2.7-2.7-6.2-4.6-9.9-5.5
		c-7-1.8-13.2,2.3-18,7c-3.7,3.7-8.3,9.2-7.8,14.9c0.4,4.7,6.3,6.9,10.5,6.5c4.5-0.6,8.9-2,13-4l-4.4-2.4c-0.8,1.7-1.3,3.5-1.4,5.3
		c-0.1,1.3,0.2,2.7,0.9,3.8c1.4,2,4,3.4,6.3,4c3,0.9,6.2,0.4,9.2-0.4c0.6-0.1-1.1-1.3-1.2-1.3c-0.6-0.4-2-1.4-2.9-1.2
		c-4.7,1.1-9.5,2-14.3,2.8c-3.5,0.6-7.1,0.7-10.5,1.7c-2.7,0.8-5.9,2.2-7.3,4.8c-1.5,2.9,0.4,6,2.5,8c2.3,2.2,5,3.9,8,5
		c5.2,2.2,10.9,2.9,16.4,3.3c3.6,0.2,7.2,0.2,10.7,0l-4.3-2.2c1.1,1.9,2.5,3.6,4.2,5.1c4.2,3.9,9.3,6.7,14.8,8.2
		c3.7,1,7.6,1.3,11.4,0.9l-4.1-2.1c2.3,2.8,4.8,5.4,7.4,7.8c7.1,6.8,14.8,12.9,22.9,18.5c12.5,8.5,25.7,15.8,39.5,21.8
		c6.7,3,15,7.1,22.6,4.8c4.9-1.5,8-5.5,9.9-10c2.5-6,3.2-12.6,3.5-19.1c0.2-7.9-0.1-15.7-1-23.5c-0.8-7.8-2-15.5-3.5-23.3
		c-1.2-6.3-2.5-12.6-3.9-18.8c-0.7-3.2-1.4-6.5-2.4-9.6c0-0.1-0.1-0.3-0.1-0.4c-0.2-0.8-1.9-1.5-2.5-1.8
		C444.5,291.3,442.8,290.5,443,291z"></path><path class="st2" d="M394.9,326.8c0.4,0.2,0.9,0.4,1.3,0.6c-0.7-0.4,0.2,0.1,0.5,0.2l1.2,0.6c2,1,4,2.1,6,3.2
		c4.2,2.2,8.5,4.5,12.7,6.8c1.5,0.8,3,1.6,4.5,2.3c0.6,0.3,2.1,0.7,2.2-0.4s-1.5-2-2.2-2.3c-0.4-0.2-0.9-0.4-1.3-0.6l-0.5-0.2
		l-1.2-0.6l-6-3.2c-4.2-2.3-8.5-4.5-12.7-6.8c-1.5-0.8-3-1.6-4.5-2.3c-0.6-0.3-2.1-0.7-2.2,0.3S394.3,326.5,394.9,326.8L394.9,326.8
		z"></path><path class="st1" d="M253.6,386c0,0-14.3-70.1-13-73.9s75.8-16.9,82.7-17s19.1,69.8,15.6,76.1S256.1,391,253.6,386z"></path><path class="st1" d="M256,386.5c-1.7-8.4-3.4-16.8-5-25.2c-2.6-13.3-5.2-26.6-7.2-39.9c-0.3-2-0.6-4-0.8-6
		c-0.1-0.6-0.1-1.3-0.1-1.9c0-0.2,0-0.4,0-0.5c0-0.4-0.1,0.3,0,0.2s-0.1,0-0.1,0s-0.2,0.3,0,0s0.4-0.2-0.2,0.1
		c0.2-0.1,0.4-0.2,0.6-0.3c0.6-0.3,1.2-0.5,1.8-0.8c0.1,0,0.8-0.3,0.2-0.1l0.6-0.2l1.4-0.4c1.1-0.3,2.2-0.6,3.3-0.9
		c13.3-3.5,26.9-6,40.4-8.5c6.7-1.2,13.4-2.4,20-3.5c2.5-0.4,5.1-0.8,7.6-1.2l2.8-0.4l1.1-0.1l0.5-0.1c0.5,0-0.6,0,0,0h0.6
		c0.7-0.1-0.3-0.1-0.6-0.2c0.4,0.1-0.7-0.4-0.3-0.1s-0.6-0.5-0.2-0.1c0.1,0.1,0.2,0.2,0.3,0.2c-0.6-0.4-0.2-0.2,0,0s0.4,0.5,0.5,0.8
		l0.2,0.4l0.2,0.5c0.5,0.9,0.9,1.8,1.2,2.8c2.1,5.6,3.7,11.4,5,17.2c3.3,13.6,5.5,27.4,6.7,41.3c0.2,2.4,0.3,4.7,0.3,7.1
		c0,0.8-0.1,1.5-0.2,2.3c0,0.5,0-0.1,0,0.1s-0.1,0.3-0.1,0.5s-0.2,0.4-0.2,0.6s0.3-0.3,0.1-0.1s-0.1,0.1-0.2,0.2
		c-0.1,0.1-0.2,0.1-0.2,0.2c-0.4,0.4,0.1-0.1,0,0c-0.6,0.4-1.2,0.7-1.8,1c-0.8,0.4-1.7,0.7-2.6,1l-0.7,0.2l-0.4,0.1
		c-0.3,0.1,0.5-0.1,0,0s-1.1,0.4-1.7,0.5c-12.8,4-26.2,6.3-39.5,8.5c-6.8,1.1-13.7,2.1-20.5,2.8c-1.3,0.1-2.2,0.2-3.8,0.3
		c-1.3,0.1-2.6,0.2-3.8,0.2c-1.9,0.1-3.8,0-5.7-0.1c0.9,0-0.1,0-0.4-0.1s-1.3-0.4-0.2,0L255,385c-0.4-0.2,0.7,0.4,0.3,0.2
		s0.5,0.4,0.3,0.2c0,0,0.3,0.5,0.4,0.6c-0.6-1.1-1.7-1.8-3-1.8c-0.9,0-2.2,0.6-1.6,1.7c1.8,3.3,7.1,2.9,10.3,2.9
		c6-0.2,12-0.8,18-1.6c14.5-1.8,28.9-4.5,43.1-7.9c5.1-1.1,10-2.6,14.8-4.5c1.3-0.4,2.4-1.2,3.3-2.1c0.9-1.1,0.9-2.8,1-4.1
		c0.3-5.3-0.4-10.6-1.1-15.9c-0.9-7.4-2.1-14.8-3.5-22.2c-1.4-7.1-2.9-14.2-4.9-21.2c-0.8-2.7-1.6-5.3-2.6-7.9
		c-0.7-1.9-1.6-3.6-2.7-5.3c-1-1.6-2.8-2.6-4.8-2.6c-1.5,0.1-3.1,0.2-4.6,0.5c-5.5,0.7-10.9,1.6-16.4,2.6
		c-14.7,2.5-29.4,5.2-43.9,8.5c-5.2,1-10.3,2.4-15.3,4c-1.3,0.3-2.4,0.9-3.4,1.7c-0.7,0.8-0.6,2-0.5,2.9c0.3,4.7,1.2,9.4,2,14
		c1.2,7.1,2.5,14.1,3.9,21.2c2.2,11.6,4.5,23.2,6.8,34.8c0.1,0.6,0.3,1.3,0.4,2c0.3,1.1,1.3,2,2.5,2.2
		C254.4,387.8,256.2,387.7,256,386.5z"></path><path class="st0" d="M264.7,365.8c1.7-7.2,4.7-14.1,8.9-20.3c3.6-5.3,8.8-11.5,15.5-12.6c0.2,0,0.4,0,0.6-0.1
		c-0.1,0.2-0.6-0.6-0.7-0.4c0,0.1,0.5,0.8,0.5,0.9c0.5,0.9,1,1.9,1.4,2.8c0.8,1.7,1.4,3.5,1.9,5.4c0.7,2.6,0.9,5.7-0.2,8.1
		c-0.5,1.1-1.4,2.1-2.5,2.6c-0.3,0.1-1,0.2-1.2,0.4s0-0.1,0.1,0.1c-0.3-0.5-0.4-1.1-0.5-1.7c-0.1-3.2,2.8-5.6,5.8-6
		c7-1.1,13.9,4,17.2,9.8c0.7,1,1.8,1.7,3,1.9c1,0.1,1.4-0.6,0.9-1.5c-4.2-7.3-12.5-13.2-21-13.7c-4.1-0.2-8.5,1.2-9.9,5.4
		s2,8.7,6.3,9c4.1,0.4,6.5-3.3,6.9-6.9c0.5-4.1-0.9-8.3-2.5-12c-0.9-2.1-1.9-4.4-3.6-6c-1.9-1.7-4.5-2.2-6.8-1.4
		c-4,1.3-7.6,3.7-10.4,6.8c-7.1,7.4-11.8,17.2-14.1,27.1C259.9,365.3,264.3,367.6,264.7,365.8L264.7,365.8z"></path><path class="st0" d="M300.6,326c-1.2,0.6-2,1.7-2.1,3c-0.1,1.1,0.3,2.1,1.1,2.9c2.1,2.1,5.6,1.8,8.3,2c0.8,0.1,1.7,0.1,2.5,0
		c1.5-0.3,2.9-0.9,4.2-1.8c1.1-0.9,1.7-2.1,1.9-3.5c0.4-4.9-3.3-9.2-8.2-9.6c-0.3,0-0.7,0-1,0c-1.1,0.1-2.2,0.5-3.2,1.1
		c-0.3,0.2-1.6,1.2-0.5,1.1c4-0.3,7.4,3.1,8.2,6.9c0.2,1,0.2,2,0,3c-0.1,0.5-0.3,0.9-0.5,1.4c0,0.1-0.1,0.1-0.1,0.2
		c-0.7,1.1,3.4-1,2.3-1c-0.3,0-0.7,0-1,0c-2.4-0.1-5.1,0.1-7.3-1.1c-1-0.5-1.6-1.4-1.9-2.5c-0.1-0.5-0.1-1,0-1.4
		c0.1-0.2,0.1-0.4,0.2-0.6c0.1-0.1,0,0.1,0.1-0.1l0.1-0.1c-0.5,0.3-0.5,0.4-0.3,0.2s1.5-1.1,0.5-1.1
		C302.7,325,301.6,325.4,300.6,326L300.6,326z"></path><path class="st0" d="M308.1,282.6c0,0-14.5,9.6-12.4,19s21.4-0.2,25.1-3.6"></path><path class="st2" d="M306.1,281.7c-2.3,1.6-4.4,3.3-6.4,5.3c-3.1,3.1-6.2,7-6.6,11.5c-0.2,1.9,0.3,3.9,1.4,5.4
		c1.4,1.5,3.2,2.4,5.2,2.6c4.3,0.8,8.8-0.5,12.8-2c3.7-1.4,7.7-3.2,10.6-5.9c0.8-0.7-1.1-1.5-1.5-1.6c-0.9-0.3-2.4-0.5-3.2,0.2
		c-2.3,1.8-4.9,3.3-7.7,4.4c-1.7,0.8-3.5,1.4-5.3,1.9c-0.8,0.2-1.7,0.4-2.5,0.6c-0.3,0-0.8,0.1-1.2,0.1h-0.5H301c0.2,0,0.2,0-0.1,0
		h-0.4c-0.7,0,0.5,0.1-0.2,0c0,0-0.7-0.1-0.3,0s-0.2-0.1-0.2-0.1c0.5,0.2,0,0-0.1-0.1s0.3,0.2,0,0c-0.2-0.1-0.4-0.3-0.6-0.5
		c-0.9-1.3-1.3-3-1-4.6c0.5-4,3.1-7.5,5.9-10.3c1.9-2,4-3.7,6.2-5.3C311.9,282.4,307.3,280.9,306.1,281.7L306.1,281.7z"></path><path class="st0" d="M339.6,294.9c0,0-8.8,20.1-20.1,17.5s2.7-24.9,9-31.4s14.7-4.2,14.7-4.2"></path><path class="st2" d="M337.3,294.1c-1.5,3.3-3.3,6.4-5.5,9.3c-1.7,2.4-3.8,4.5-6.1,6.2c-1.1,0.8-2.4,1.4-3.7,1.8
		c-0.6,0.2-1.2,0.3-1.8,0.4c-0.4,0-0.7,0-1.1,0c-0.3-0.1-0.6-0.1-0.9-0.1c0,0,1.4,0.5,1.5,0.5c0.6,0.2,0.3,0.2,0.1,0
		s-0.4-0.2-0.5-0.4c-0.4-0.3-0.7-0.7-1-1.2c-0.5-0.9-0.7-2-0.7-3c0.1-2.6,0.7-5.2,1.8-7.6c2.3-5.7,5.5-11,9.5-15.8
		c2.4-3,5.2-5.5,9.1-6.5c1.6-0.4,3.2-0.6,4.9-0.5c0.3,0,0.6,0,0.9,0.1c0.1,0,0.8,0.1,0.5,0.1l0.5,0.1l-0.3-0.1
		c0.3,0.1,1.6,0.5,1-0.1s-2.4-1-3.2-1.2c-6-1.7-12.5,0.2-16.7,4.9c-4.3,4.9-7.8,10.4-10.4,16.4c-1.8,4.1-4.2,11.2,0.9,14
		c3.1,1.7,7.1,2.8,10.6,1.8c2.9-1,5.5-2.7,7.5-5c3.4-3.6,6.1-7.8,8-12.4C342.1,295.5,337.5,293.6,337.3,294.1z"></path><path class="st0" d="M331.5,180c3.7-0.5,7.9-1.6,10.7-6.7c2.9-5.4,4.5-10.4,8.5-18.5c0.9-1.8,1.9-3.7,3-5.8l1.5,5.8
		c3.9,15.3,14.3,28.1,28.4,35l1.4-0.2c-4.2,25.6,12.9,36.1,12.9,36.1s-3.6,19.2-3.2,18.9l-0.3,0.4c-2.6,2.8-21.4,22-35.7,12.2
		c0,0,1.6-3.2,3.2-7.5s1-6.9-11.4-13.8c-24.5-13.6-16.5-37.4-16.5-37.4s-3.7-0.1-9.4-3.5C319.7,192.1,315.5,182,331.5,180z"></path><path class="st2" d="M333.6,180.6c2.8-0.2,5.4-1.2,7.7-2.8c2.6-2.1,4-5.1,5.4-8.1c3.2-6.8,6-13.7,9.6-20.4l-4.9-1.1
		c1.5,6,3.1,12,6,17.5c5.2,9.9,13.3,17.9,23.2,23.1c2,1.1,4.4,1.5,6.7,1.2l-4.5-1.2c-2,12.6,0.9,26.2,11,34.7
		c0.7,0.6,1.4,1.2,2.2,1.7l-0.3-0.3c-0.6,3.2-1.2,6.4-1.8,9.7c-0.4,2.1-0.8,4.3-1.1,6.5c-0.1,0.7-0.8,2.6-0.1,3
		c0.7,0.4,1.5,0.6,2.4,0.7c0.5,0.1,1.6,0.4,2.1,0.1l0,0l-4.7-1.1c-2.6,2.8-5.4,5.4-8.5,7.6c-4.5,3.4-9.8,6.5-15.4,7.4
		c-1.4,0.3-2.8,0.3-4.2,0.1c0.2,0,0.1,0-0.1,0c-0.3-0.1-0.6-0.2-0.9-0.3c-0.8-0.4-1.6-0.8-2.4-1.3l0.3,0.3c1.3-2.6,2.4-5.3,3.4-8
		c0.6-1.3,0.6-2.8,0.1-4.2c-0.8-2.1-2.8-3.5-4.5-4.8c-3.3-2.4-7-4.1-10.4-6.4c-9.8-6-15.4-17-14.5-28.4c0.1-2.4,0.5-4.7,1.2-7
		c0.2-0.6-3.7-1.2-4.1-1.2c0.3,0,0.5-0.1,0.1,0c0.3,0,0.5,0,0.1,0c0.8,0.1-0.4-0.1,0.1,0c-1.3-0.4-2.6-0.9-3.9-1.5
		c-1.8-0.8-3.4-2-4.6-3.5c-2-2.7-2.2-6.4,0.4-8.8C327,181.7,330.5,181,333.6,180.6c1-0.2-0.5-0.7-0.7-0.8c-1.1-0.4-2.2-0.6-3.4-0.6
		c-4.5,0.6-12,2.3-11.7,8.2c0.2,4.9,4.8,7.5,8.7,9.2c2.9,1.3,6,2.1,9.2,2.3l-4.1-1.2c-3.7,12.2,0.4,25.5,10.4,33.4
		c3.3,2.7,7,4.5,10.6,6.8c2.3,1.4,4.9,3,6.6,5.3c1,1.3,1.3,3.1,0.7,4.7c-1,3-2.2,5.8-3.6,8.6c0,0.1,0.1,0.2,0.3,0.3
		c6,4,14.1,4.6,20.9,2.2c5.8-2.1,10.9-5.8,15.5-9.9c1.5-1.3,2.9-2.7,4.3-4.2c0.2-0.2-2-0.9-2-0.9c-0.6-0.1-2.1-0.6-2.8-0.3l0,0
		l4.5,0.9l0,0l0.3,0.3c0-0.3,0-0.7,0.1-1c0.1-0.7,0.2-1.4,0.3-2.1c0.4-2.2,0.7-4.3,1.1-6.5c0.6-3.1,1.1-6.2,1.7-9.3
		c0-0.1-0.1-0.3-0.3-0.3c-0.1-0.1-0.5-0.4-0.3-0.2c-0.4-0.3-0.9-0.6-1.2-1c-1.4-1.2-2.7-2.4-3.8-3.8c-3.8-4.6-6.4-10.2-7.4-16.2
		c-0.8-4.9-0.7-9.9,0.1-14.7c0.1-0.8-4-1.3-4.5-1.2l-1.4,0.2l4.2,0.9c-14-7-24.3-19.6-28.2-34.8c-0.5-1.9-1-3.9-1.5-5.8
		c-0.2-0.8-4.5-1.7-4.9-1.1c-3.5,6.4-6.3,13.1-9.3,19.8c-1.3,2.8-2.6,6-5,8.1c-2.2,1.8-4.8,2.8-7.6,3.1c-1,0.1,0.5,0.7,0.8,0.8
		C331.3,180.4,332.4,180.7,333.6,180.6z"></path><path class="st0" d="M388,190.5c0,0-17.5,54.2,29.6,76.8c20.2,9.7,38.8-4.5,36.1-27.5c1.9-8.3-9.6-41.2-10.2-47.6
		c-4.2-45.1-24.9-50.7-46.9-55.1c-23-4.6-39.4,1.8-45,10.4c-0.8,1.3-1,3.9-0.8,7.4c0.9-1.8,1.9-3.7,3-5.8l1.5,5.8
		c3.9,15.3,14.3,28.1,28.4,35"></path><path class="st2" d="M385.7,190c-1.3,4.1-2.1,8.3-2.6,12.6c-1.3,9.3-0.9,18.7,1.2,27.8c2.7,11.5,9,21.9,17.9,29.6
		c10.5,9,25.6,16.4,39.2,9.9c5.9-2.9,10.5-7.9,12.9-14c1.3-3.3,2-6.8,2.1-10.4c0-0.9,0-1.9,0-2.9c0-1-0.3-2.1-0.2-3.1
		c0-0.6,0.2-1.5,0.2-2.2c0-5.3-1.4-10.6-2.6-15.6c-1.5-6-3.2-12-4.9-18c-1.1-4-2.5-8-3-12.1c-0.9-8.1-2.1-16.1-4.8-23.8
		c-3.7-10.6-10.2-19.8-20.1-25.3c-4.2-2.2-8.6-3.9-13.2-5.1c-5.9-1.6-11.9-2.8-18-3.5c-8-0.9-16.4-0.6-24.2,1.9
		c-5.7,1.8-11.3,4.6-15.1,9.4c-0.9,1-1.6,2.3-1.9,3.6c-0.4,2-0.5,4-0.3,6c0.1,2.6,3.8,2.6,4.8,0.5s2-3.9,3-5.8h-4.8
		c1.4,5.4,2.7,10.8,5.1,15.9c3.4,7.2,8.3,13.6,14.3,18.7c3.5,3,7.4,5.5,11.5,7.5c1.2,0.5,2.6,0.2,3.4-0.8c0.6-0.8,0.5-1.9-0.2-2.5
		c-0.1-0.1-0.3-0.2-0.4-0.3c-13.6-6.8-23.6-19.1-27.4-33.8l-1.5-5.8c-0.6-2.3-3.9-1.6-4.8,0c-1,1.9-2,3.9-3,5.8l4.8,0.5
		c-0.2-1.9-0.2-3.9,0.2-5.8c0.1-0.3,0.2-0.5,0.3-0.8c0.1-0.2,0,0,0,0c0.1-0.1,0.2-0.2,0.2-0.4c0.4-0.5,0.7-0.9,1.1-1.4
		c0.7-0.8,1.5-1.6,2.4-2.2c0.9-0.7,1.9-1.4,3-2c5.7-3.2,12.3-4.5,18.9-4.7c7.3-0.3,14.4,0.9,21.5,2.5c2.2,0.5,4.4,1,6.6,1.7
		c1.1,0.3,2.1,0.6,3.2,1c0.4,0.1-0.3-0.1,0,0l0.3,0.1c0.3,0.1,0.5,0.2,0.8,0.3c0.5,0.2,1.1,0.4,1.6,0.6c8.8,3.5,16.1,10.2,20.2,18.8
		c2.9,6.1,4.9,12.6,6,19.3c1,5.4,1.2,10.9,2.6,16.2c2.9,11,6.5,21.8,8.5,33c0.2,1.2,0.4,2.4,0.5,3.6c0.1,0.5,0.1,1,0.1,1.5v0.4
		c0,0,0-0.3,0-0.1s0,0.5,0,0.8c0,0.8-0.1,1.5-0.2,2.3c-0.1,1.7,0.2,3.6,0.2,5.3c-0.1,6.3-2,12.6-6.4,17.3c-3.8,4-9,6.3-14.5,6.2
		c-6.8,0-13.2-3.2-18.8-6.9c-9.7-6.2-17.1-15.5-21-26.4c-3-8.8-4.1-18.2-3.3-27.5c0.2-3.5,0.7-6.9,1.4-10.3c0.2-1.2,0.5-2.4,0.8-3.6
		l0.3-1.3c-0.2,0.8,0.1-0.3,0.1-0.5s0.1-0.5,0.2-0.8c0.9-2.8-3.9-3.4-4.7-1L385.7,190z"></path><path class="st2" d="M352.6,178.3c0,0-2.4,2.8,0.4,4.9s5.5-1.4,3.6-4c-0.7-1.3-2.4-1.8-3.7-1.1
		C352.8,178.1,352.7,178.2,352.6,178.3z"></path><path class="st2" d="M354.6,170.3c-6.5-2.2-9.9-9.3-7.7-15.8c0.1-0.4,0.3-0.8,0.5-1.2c1.6-3.5,4.3-7,7.9-8.5s7.4-1.1,10.9-0.2
		c2.2,0.6,5.2-2.9,2.2-3.7c-7.7-2.1-16.1-0.4-21.4,5.8c-2.6,3-4.8,6.6-5.4,10.6c-0.5,3.3,0.2,6.7,1.9,9.6c2,3.4,5.2,5.9,8.9,7
		C354.6,174.7,357.6,171.2,354.6,170.3L354.6,170.3z"></path><path class="st2" d="M333,165.1c-0.1-6.7,3.3-13,9-16.6c5.6-3.6,12.8-4.1,19.2-4c1.2,0,2.4-0.6,2.4-1.9c-0.1-1.3-1.1-2.4-2.4-2.5
		c-7.8-0.2-15.8,0.6-22.6,4.8c-6.6,4.3-10.5,11.7-10.4,19.6C328.3,167.1,333.1,168.1,333,165.1L333,165.1z"></path><path class="st0" d="M378.5,200.3c0,0,4-15.9,14.4-8.2s-2.4,23.5-12.8,25"></path><path class="st2" d="M380.5,201.6c0.9-3.7,3.5-9.4,8-9.9c3.4-0.4,5.8,2.1,6.2,5.3c0.5,4.1-1.7,8.1-4.3,11.1
		c-3.1,3.6-7.3,6.6-12,7.4c-0.9,0.1,0.5,1.7,0.7,1.9c0.6,0.6,1.8,1.7,2.7,1.5c4.7-0.7,8.9-3.7,12-7.1c2.9-3.2,5.5-7.8,4.8-12.4
		c-0.8-5.1-5.9-9.4-10.7-10.8c-3.5-1-6.5,0.8-8.5,3.7c-1.4,2-2.4,4.3-3,6.7C376.2,200.1,380.2,202.8,380.5,201.6L380.5,201.6z"></path><path class="st2" d="M353.9,211.4c2,0.5,4.1,0.3,5.8-0.7c1.5-0.9,2.5-2.3,2.9-3.9c0.3-1.2,0.3-2.4,0-3.6c-0.2-0.4-0.5-0.8-0.9-1
		c-0.5-0.4-1.2-0.6-1.8-0.7c-0.5-0.1-2.3-0.3-2.1,0.8c0.1,0.7,0.2,1.3,0.2,2v-0.3c0,1.2-0.4,2.4-1.1,3.3l0.2-0.2
		c-0.5,0.7-1.2,1.3-1.9,1.7l0.3-0.2c-0.3,0.1-0.6,0.3-0.9,0.4l-0.4,0.1c-0.3,0.1,0.4-0.1,0.1,0h-0.2h-0.5c-0.3,0,0.6,0,0.2,0h-0.2
		h-0.2c-0.3,0,0.6,0.1,0.3,0.1l-0.5-0.1c-0.5-0.1-1.1-0.1-1.6,0c-0.3,0.1-0.6,0.4-0.5,0.7C351.5,210.6,353,211.1,353.9,211.4
		L353.9,211.4z"></path><path class="st2" d="M426.8,185.6c-4.5-0.2-9.1-0.8-13.5-1.7c-4.4-1-8.5-2.9-12.2-5.5c-3.7-2.7-7.3-5.7-10.6-8.9
		c-3.7-3.4-7.3-6.9-10.8-10.6c-0.9-0.9-2.2-1.2-3.4-0.9c-0.6,0.1-1.1,0.7-0.9,1.3c0,0.3,0.2,0.5,0.4,0.7
		c5.6,5.9,11.6,11.5,17.8,16.8c2.9,2.5,6.1,4.7,9.5,6.5c3.5,1.8,7.2,3,11,3.8c4.4,0.8,8.8,1.3,13.3,1.6c0.9,0.1,2.3-0.2,2.1-1.4
		S427.6,185.6,426.8,185.6L426.8,185.6z"></path><path class="st2" d="M408.9,212.9c5.1,12.2,11.3,23.8,18.6,34.8c0.8,1.1,5.5,0.5,4.8-0.5c-7.3-11-13.5-22.6-18.6-34.8
		C413.2,211.3,408.3,211.6,408.9,212.9z"></path></g></svg>